  0
SECTION
  2
HEADER
  9
$ACADVER
  1
AC1014
  9
$HANDSEED
  5
FFFF
  9
$MEASUREMENT
 70
     1
  0
ENDSEC
  0
SECTION
  2
TABLES
  0
TABLE
  2
VPORT
  5
8
330
0
100
AcDbSymbolTable
 70
     4
  0
VPORT
  5
2E
330
8
100
AcDbSymbolTableRecord
100
AcDbViewportTableRecord
  2
*ACTIVE
 70
     0
 10
0.0
 20
0.0
 11
1.0
 21
1.0
 12
210.0
 22
148.5
 13
0.0
 23
0.0
 14
10.0
 24
10.0
 15
10.0
 25
10.0
 16
0.0
 26
0.0
 36
1.0
 17
0.0
 27
0.0
 37
0.0
 40
341.0
 41
1.24
 42
50.0
 43
0.0
 44
0.0
 50
0.0
 51
0.0
 71
     0
 72
   100
 73
     1
 74
     3
 75
     0
 76
     0
 77
     0
 78
     0
  0
ENDTAB
  0
TABLE
  2
LTYPE
  5
5
330
0
100
AcDbSymbolTable
 70
     1
  0
LTYPE
  5
14
330
5
100
AcDbSymbolTableRecord
100
AcDbLinetypeTableRecord
  2
BYBLOCK
 70
     0
  3

 72
    65
 73
     0
 40
0.0
  0
LTYPE
  5
15
330
5
100
AcDbSymbolTableRecord
100
AcDbLinetypeTableRecord
  2
BYLAYER
 70
     0
  3

 72
    65
 73
     0
 40
0.0
  0
LTYPE
  5
16
330
5
100
AcDbSymbolTableRecord
100
AcDbLinetypeTableRecord
  2
CONTINUOUS
 70
     0
  3
Solid line
 72
    65
 73
     0
 40
0.0
  0
ENDTAB
  0
TABLE
  2
LAYER
  5
2
100
AcDbSymbolTable
 70
4
  0
LAYER
  5
50
100
AcDbSymbolTableRecord
100
AcDbLayerTableRecord
  2
0
 70
0
  6
CONTINUOUS
  0
LAYER
  5
51
100
AcDbSymbolTableRecord
100
AcDbLayerTableRecord
  2
panel
 70
0
  6
CONTINUOUS
  0
LAYER
  5
52
100
AcDbSymbolTableRecord
100
AcDbLayerTableRecord
  2
Logo
 70
0
  6
CONTINUOUS
  0
LAYER
  5
53
100
AcDbSymbolTableRecord
100
AcDbLayerTableRecord
  2
text
 70
0
  6
CONTINUOUS
  0
ENDTAB
  0
TABLE
  2
STYLE
  5
3
330
0
100
AcDbSymbolTable
 70
     1
  0
STYLE
  5
11
330
3
100
AcDbSymbolTableRecord
100
AcDbTextStyleTableRecord
  2
STANDARD
 70
     0
 40
0.0
 41
1.0
 50
0.0
 71
     0
 42
2.5
  3
txt
  4

  0
ENDTAB
  0
TABLE
  2
VIEW
  5
6
330
0
100
AcDbSymbolTable
 70
     0
  0
ENDTAB
  0
TABLE
  2
UCS
  5
7
330
0
100
AcDbSymbolTable
 70
     0
  0
ENDTAB
  0
TABLE
  2
APPID
  5
9
330
0
100
AcDbSymbolTable
 70
     2
  0
APPID
  5
12
330
9
100
AcDbSymbolTableRecord
100
AcDbRegAppTableRecord
  2
ACAD
 70
     0
  0
ENDTAB
  0
TABLE
  2
DIMSTYLE
  5
A
330
0
100
AcDbSymbolTable
 70
     1
  0
DIMSTYLE
105
27
330
A
100
AcDbSymbolTableRecord
100
AcDbDimStyleTableRecord
  2
ISO-25
 70
     0
  3

  4

  5

  6

  7

 40
1.0
 41
2.5
 42
0.625
 43
3.75
 44
1.25
 45
0.0
 46
0.0
 47
0.0
 48
0.0
140
2.5
141
2.5
142
0.0
143
0.03937007874016
144
1.0
145
0.0
146
1.0
147
0.625
 71
     0
 72
     0
 73
     0
 74
     0
 75
     0
 76
     0
 77
     1
 78
     8
170
     0
171
     3
172
     1
173
     0
174
     0
175
     0
176
     0
177
     0
178
     0
270
     2
271
     2
272
     2
273
     2
274
     3
340
11
275
     0
280
     0
281
     0
282
     0
283
     0
284
     8
285
     0
286
     0
287
     3
288
     0
  0
ENDTAB
  0
TABLE
  2
BLOCK_RECORD
  5
1
330
0
100
AcDbSymbolTable
 70
     1
  0
BLOCK_RECORD
  5
1F
330
1
100
AcDbSymbolTableRecord
100
AcDbBlockTableRecord
  2
*MODEL_SPACE
  0
BLOCK_RECORD
  5
1B
330
1
100
AcDbSymbolTableRecord
100
AcDbBlockTableRecord
  2
*PAPER_SPACE
  0
ENDTAB
  0
ENDSEC
  0
SECTION
  2
BLOCKS
  0
BLOCK
  5
20
330
1F
100
AcDbEntity
  8
0
100
AcDbBlockBegin
  2
*MODEL_SPACE
 70
     0
 10
0.0
 20
0.0
 30
0.0
  3
*MODEL_SPACE
  1

  0
ENDBLK
  5
21
330
1F
100
AcDbEntity
  8
0
100
AcDbBlockEnd
  0
BLOCK
  5
1C
330
1B
100
AcDbEntity
 67
     1
  8
0
100
AcDbBlockBegin
  2
*PAPER_SPACE
  1

  0
ENDBLK
  5
1D
330
1B
100
AcDbEntity
 67
     1
  8
0
100
AcDbBlockEnd
  0
ENDSEC
  0
SECTION
  2
ENTITIES
  0
LWPOLYLINE
  5
100
100
AcDbEntity
  8
panel
 62
7
100
AcDbPolyline
 90
2
 70
0
 10
0.049838
 20
0.050322
 30
0.0
 10
40.049787
 20
0.050322
 30
0.0
  0
LWPOLYLINE
  5
101
100
AcDbEntity
  8
panel
 62
7
100
AcDbPolyline
 90
2
 70
0
 10
0.049838
 20
128.550160
 30
0.0
 10
0.049838
 20
0.050322
 30
0.0
  0
SPLINE
  5
102
100
AcDbEntity
  8
panel
 62
7
100
AcDbSpline
 70
8
 71
3
 72
8
 73
4
 74
0
 40
0
 40
0
 40
0
 40
0
 40
1
 40
1
 40
1
 40
1
 10
3.049833
 20
4.600316
 30
0.0
 10
2.194406
 20
4.599450
 30
0.0
 10
1.501404
 20
3.905747
 30
0.0
 10
1.501404
 20
3.050319
 30
0.0
  0
SPLINE
  5
103
100
AcDbEntity
  8
panel
 62
7
100
AcDbSpline
 70
8
 71
3
 72
8
 73
4
 74
0
 40
0
 40
0
 40
0
 40
0
 40
1
 40
1
 40
1
 40
1
 10
1.501404
 20
3.050319
 30
0.0
 10
1.501404
 20
2.194891
 30
0.0
 10
2.194406
 20
1.501187
 30
0.0
 10
3.049833
 20
1.500322
 30
0.0
  0
LWPOLYLINE
  5
104
100
AcDbEntity
  8
panel
 62
7
100
AcDbPolyline
 90
3
 70
0
 10
40.049787
 20
0.050322
 30
0.0
 10
40.049787
 20
128.550160
 30
0.0
 10
0.049838
 20
128.550160
 30
0.0
  0
SPLINE
  5
105
100
AcDbEntity
  8
panel
 62
7
100
AcDbSpline
 70
8
 71
3
 72
8
 73
4
 74
0
 40
0
 40
0
 40
0
 40
0
 40
1
 40
1
 40
1
 40
1
 10
6.149831
 20
1.500322
 30
0.0
 10
7.005258
 20
1.501187
 30
0.0
 10
7.698260
 20
2.194891
 30
0.0
 10
7.698260
 20
3.050319
 30
0.0
  0
SPLINE
  5
106
100
AcDbEntity
  8
panel
 62
7
100
AcDbSpline
 70
8
 71
3
 72
8
 73
4
 74
0
 40
0
 40
0
 40
0
 40
0
 40
1
 40
1
 40
1
 40
1
 10
7.698260
 20
3.050319
 30
0.0
 10
7.698260
 20
3.905747
 30
0.0
 10
7.005258
 20
4.599450
 30
0.0
 10
6.149831
 20
4.600316
 30
0.0
  0
LWPOLYLINE
  5
107
100
AcDbEntity
  8
panel
 62
7
100
AcDbPolyline
 90
2
 70
0
 10
3.049833
 20
1.500322
 30
0.0
 10
6.149831
 20
1.500322
 30
0.0
  0
SPLINE
  5
108
100
AcDbEntity
  8
panel
 62
7
100
AcDbSpline
 70
8
 71
3
 72
8
 73
4
 74
0
 40
0
 40
0
 40
0
 40
0
 40
1
 40
1
 40
1
 40
1
 10
11.199823
 20
19.800297
 30
0.0
 10
11.200476
 20
20.926117
 30
0.0
 10
10.600233
 20
21.966697
 30
0.0
 10
9.625353
 20
22.529795
 30
0.0
  0
SPLINE
  5
109
100
AcDbEntity
  8
panel
 62
7
100
AcDbSpline
 70
8
 71
3
 72
8
 73
4
 74
0
 40
0
 40
0
 40
0
 40
0
 40
1
 40
1
 40
1
 40
1
 10
9.625353
 20
22.529795
 30
0.0
 10
8.650473
 20
23.092894
 30
0.0
 10
7.449182
 20
23.092894
 30
0.0
 10
6.474302
 20
22.529795
 30
0.0
  0
SPLINE
  5
10a
100
AcDbEntity
  8
panel
 62
7
100
AcDbSpline
 70
8
 71
3
 72
8
 73
4
 74
0
 40
0
 40
0
 40
0
 40
0
 40
1
 40
1
 40
1
 40
1
 10
6.474302
 20
22.529795
 30
0.0
 10
5.499422
 20
21.966697
 30
0.0
 10
4.899179
 20
20.926117
 30
0.0
 10
4.899832
 20
19.800297
 30
0.0
  0
SPLINE
  5
10b
100
AcDbEntity
  8
panel
 62
7
100
AcDbSpline
 70
8
 71
3
 72
8
 73
4
 74
0
 40
0
 40
0
 40
0
 40
0
 40
1
 40
1
 40
1
 40
1
 10
4.899832
 20
19.800297
 30
0.0
 10
4.899179
 20
18.674477
 30
0.0
 10
5.499422
 20
17.633898
 30
0.0
 10
6.474302
 20
17.070799
 30
0.0
  0
SPLINE
  5
10c
100
AcDbEntity
  8
panel
 62
7
100
AcDbSpline
 70
8
 71
3
 72
8
 73
4
 74
0
 40
0
 40
0
 40
0
 40
0
 40
1
 40
1
 40
1
 40
1
 10
6.474302
 20
17.070799
 30
0.0
 10
7.449182
 20
16.507701
 30
0.0
 10
8.650473
 20
16.507701
 30
0.0
 10
9.625353
 20
17.070799
 30
0.0
  0
SPLINE
  5
10d
100
AcDbEntity
  8
panel
 62
7
100
AcDbSpline
 70
8
 71
3
 72
8
 73
4
 74
0
 40
0
 40
0
 40
0
 40
0
 40
1
 40
1
 40
1
 40
1
 10
9.625353
 20
17.070799
 30
0.0
 10
10.600233
 20
17.633898
 30
0.0
 10
11.200476
 20
18.674477
 30
0.0
 10
11.199823
 20
19.800297
 30
0.0
  0
LWPOLYLINE
  5
10e
100
AcDbEntity
  8
panel
 62
7
100
AcDbPolyline
 90
2
 70
0
 10
3.049833
 20
4.600316
 30
0.0
 10
6.149831
 20
4.600316
 30
0.0
  0
SPLINE
  5
10f
100
AcDbEntity
  8
panel
 62
7
100
AcDbSpline
 70
8
 71
3
 72
8
 73
4
 74
0
 40
0
 40
0
 40
0
 40
0
 40
1
 40
1
 40
1
 40
1
 10
11.699824
 20
37.300275
 30
0.0
 10
11.700321
 20
38.604623
 30
0.0
 10
11.004744
 20
39.810104
 30
0.0
 10
9.875228
 20
40.462422
 30
0.0
  0
SPLINE
  5
110
100
AcDbEntity
  8
panel
 62
7
100
AcDbSpline
 70
8
 71
3
 72
8
 73
4
 74
0
 40
0
 40
0
 40
0
 40
0
 40
1
 40
1
 40
1
 40
1
 10
9.875228
 20
40.462422
 30
0.0
 10
8.745711
 20
41.114739
 30
0.0
 10
7.353946
 20
41.114739
 30
0.0
 10
6.224430
 20
40.462422
 30
0.0
  0
SPLINE
  5
111
100
AcDbEntity
  8
panel
 62
7
100
AcDbSpline
 70
8
 71
3
 72
8
 73
4
 74
0
 40
0
 40
0
 40
0
 40
0
 40
1
 40
1
 40
1
 40
1
 10
6.224430
 20
40.462422
 30
0.0
 10
5.094914
 20
39.810104
 30
0.0
 10
4.399337
 20
38.604623
 30
0.0
 10
4.399834
 20
37.300275
 30
0.0
  0
SPLINE
  5
112
100
AcDbEntity
  8
panel
 62
7
100
AcDbSpline
 70
8
 71
3
 72
8
 73
4
 74
0
 40
0
 40
0
 40
0
 40
0
 40
1
 40
1
 40
1
 40
1
 10
4.399834
 20
37.300275
 30
0.0
 10
4.399337
 20
35.995926
 30
0.0
 10
5.094914
 20
34.790446
 30
0.0
 10
6.224430
 20
34.138128
 30
0.0
  0
SPLINE
  5
113
100
AcDbEntity
  8
panel
 62
7
100
AcDbSpline
 70
8
 71
3
 72
8
 73
4
 74
0
 40
0
 40
0
 40
0
 40
0
 40
1
 40
1
 40
1
 40
1
 10
6.224430
 20
34.138128
 30
0.0
 10
7.353946
 20
33.485810
 30
0.0
 10
8.745711
 20
33.485810
 30
0.0
 10
9.875228
 20
34.138128
 30
0.0
  0
SPLINE
  5
114
100
AcDbEntity
  8
panel
 62
7
100
AcDbSpline
 70
8
 71
3
 72
8
 73
4
 74
0
 40
0
 40
0
 40
0
 40
0
 40
1
 40
1
 40
1
 40
1
 10
9.875228
 20
34.138128
 30
0.0
 10
11.004744
 20
34.790446
 30
0.0
 10
11.700321
 20
35.995926
 30
0.0
 10
11.699824
 20
37.300275
 30
0.0
  0
LWPOLYLINE
  5
115
100
AcDbEntity
  8
panel
 62
7
100
AcDbPolyline
 90
1
 70
1
 10
11.199823
 20
19.800297
 30
0.0
  0
SPLINE
  5
116
100
AcDbEntity
  8
panel
 62
7
100
AcDbSpline
 70
8
 71
3
 72
8
 73
4
 74
0
 40
0
 40
0
 40
0
 40
0
 40
1
 40
1
 40
1
 40
1
 10
11.199823
 20
55.550252
 30
0.0
 10
11.200476
 20
56.676072
 30
0.0
 10
10.600233
 20
57.716652
 30
0.0
 10
9.625353
 20
58.279750
 30
0.0
  0
SPLINE
  5
117
100
AcDbEntity
  8
panel
 62
7
100
AcDbSpline
 70
8
 71
3
 72
8
 73
4
 74
0
 40
0
 40
0
 40
0
 40
0
 40
1
 40
1
 40
1
 40
1
 10
9.625353
 20
58.279750
 30
0.0
 10
8.650473
 20
58.842849
 30
0.0
 10
7.449182
 20
58.842849
 30
0.0
 10
6.474302
 20
58.279750
 30
0.0
  0
SPLINE
  5
118
100
AcDbEntity
  8
panel
 62
7
100
AcDbSpline
 70
8
 71
3
 72
8
 73
4
 74
0
 40
0
 40
0
 40
0
 40
0
 40
1
 40
1
 40
1
 40
1
 10
6.474302
 20
58.279750
 30
0.0
 10
5.499422
 20
57.716652
 30
0.0
 10
4.899179
 20
56.676072
 30
0.0
 10
4.899832
 20
55.550252
 30
0.0
  0
SPLINE
  5
119
100
AcDbEntity
  8
panel
 62
7
100
AcDbSpline
 70
8
 71
3
 72
8
 73
4
 74
0
 40
0
 40
0
 40
0
 40
0
 40
1
 40
1
 40
1
 40
1
 10
4.899832
 20
55.550252
 30
0.0
 10
4.899179
 20
54.424432
 30
0.0
 10
5.499422
 20
53.383853
 30
0.0
 10
6.474302
 20
52.820754
 30
0.0
  0
SPLINE
  5
11a
100
AcDbEntity
  8
panel
 62
7
100
AcDbSpline
 70
8
 71
3
 72
8
 73
4
 74
0
 40
0
 40
0
 40
0
 40
0
 40
1
 40
1
 40
1
 40
1
 10
6.474302
 20
52.820754
 30
0.0
 10
7.449182
 20
52.257656
 30
0.0
 10
8.650473
 20
52.257656
 30
0.0
 10
9.625353
 20
52.820754
 30
0.0
  0
SPLINE
  5
11b
100
AcDbEntity
  8
panel
 62
7
100
AcDbSpline
 70
8
 71
3
 72
8
 73
4
 74
0
 40
0
 40
0
 40
0
 40
0
 40
1
 40
1
 40
1
 40
1
 10
9.625353
 20
52.820754
 30
0.0
 10
10.600233
 20
53.383853
 30
0.0
 10
11.200476
 20
54.424432
 30
0.0
 10
11.199823
 20
55.550252
 30
0.0
  0
LWPOLYLINE
  5
11c
100
AcDbEntity
  8
panel
 62
7
100
AcDbPolyline
 90
1
 70
1
 10
11.699824
 20
37.300275
 30
0.0
  0
SPLINE
  5
11d
100
AcDbEntity
  8
panel
 62
7
100
AcDbSpline
 70
8
 71
3
 72
8
 73
4
 74
0
 40
0
 40
0
 40
0
 40
0
 40
1
 40
1
 40
1
 40
1
 10
33.949797
 20
4.600316
 30
0.0
 10
33.094369
 20
4.599450
 30
0.0
 10
32.401367
 20
3.905747
 30
0.0
 10
32.401367
 20
3.050319
 30
0.0
  0
SPLINE
  5
11e
100
AcDbEntity
  8
panel
 62
7
100
AcDbSpline
 70
8
 71
3
 72
8
 73
4
 74
0
 40
0
 40
0
 40
0
 40
0
 40
1
 40
1
 40
1
 40
1
 10
32.401367
 20
3.050319
 30
0.0
 10
32.401367
 20
2.194891
 30
0.0
 10
33.094369
 20
1.501187
 30
0.0
 10
33.949797
 20
1.500322
 30
0.0
  0
LWPOLYLINE
  5
11f
100
AcDbEntity
  8
panel
 62
7
100
AcDbPolyline
 90
1
 70
1
 10
11.199823
 20
55.550252
 30
0.0
  0
SPLINE
  5
120
100
AcDbEntity
  8
panel
 62
7
100
AcDbSpline
 70
8
 71
3
 72
8
 73
4
 74
0
 40
0
 40
0
 40
0
 40
0
 40
1
 40
1
 40
1
 40
1
 10
37.049791
 20
1.500322
 30
0.0
 10
37.905219
 20
1.501187
 30
0.0
 10
38.598221
 20
2.194891
 30
0.0
 10
38.598221
 20
3.050319
 30
0.0
  0
SPLINE
  5
121
100
AcDbEntity
  8
panel
 62
7
100
AcDbSpline
 70
8
 71
3
 72
8
 73
4
 74
0
 40
0
 40
0
 40
0
 40
0
 40
1
 40
1
 40
1
 40
1
 10
38.598221
 20
3.050319
 30
0.0
 10
38.598221
 20
3.905747
 30
0.0
 10
37.905219
 20
4.599450
 30
0.0
 10
37.049791
 20
4.600316
 30
0.0
  0
LWPOLYLINE
  5
122
100
AcDbEntity
  8
panel
 62
7
100
AcDbPolyline
 90
2
 70
0
 10
33.949797
 20
1.500322
 30
0.0
 10
37.049791
 20
1.500322
 30
0.0
  0
SPLINE
  5
123
100
AcDbEntity
  8
panel
 62
7
100
AcDbSpline
 70
8
 71
3
 72
8
 73
4
 74
0
 40
0
 40
0
 40
0
 40
0
 40
1
 40
1
 40
1
 40
1
 10
35.199792
 20
19.800297
 30
0.0
 10
35.200445
 20
20.926117
 30
0.0
 10
34.600202
 20
21.966697
 30
0.0
 10
33.625322
 20
22.529795
 30
0.0
  0
SPLINE
  5
124
100
AcDbEntity
  8
panel
 62
7
100
AcDbSpline
 70
8
 71
3
 72
8
 73
4
 74
0
 40
0
 40
0
 40
0
 40
0
 40
1
 40
1
 40
1
 40
1
 10
33.625322
 20
22.529795
 30
0.0
 10
32.650442
 20
23.092894
 30
0.0
 10
31.449152
 20
23.092894
 30
0.0
 10
30.474272
 20
22.529795
 30
0.0
  0
SPLINE
  5
125
100
AcDbEntity
  8
panel
 62
7
100
AcDbSpline
 70
8
 71
3
 72
8
 73
4
 74
0
 40
0
 40
0
 40
0
 40
0
 40
1
 40
1
 40
1
 40
1
 10
30.474272
 20
22.529795
 30
0.0
 10
29.499392
 20
21.966697
 30
0.0
 10
28.899149
 20
20.926117
 30
0.0
 10
28.899801
 20
19.800297
 30
0.0
  0
SPLINE
  5
126
100
AcDbEntity
  8
panel
 62
7
100
AcDbSpline
 70
8
 71
3
 72
8
 73
4
 74
0
 40
0
 40
0
 40
0
 40
0
 40
1
 40
1
 40
1
 40
1
 10
28.899801
 20
19.800297
 30
0.0
 10
28.899149
 20
18.674477
 30
0.0
 10
29.499392
 20
17.633898
 30
0.0
 10
30.474272
 20
17.070799
 30
0.0
  0
SPLINE
  5
127
100
AcDbEntity
  8
panel
 62
7
100
AcDbSpline
 70
8
 71
3
 72
8
 73
4
 74
0
 40
0
 40
0
 40
0
 40
0
 40
1
 40
1
 40
1
 40
1
 10
30.474272
 20
17.070799
 30
0.0
 10
31.449152
 20
16.507701
 30
0.0
 10
32.650442
 20
16.507701
 30
0.0
 10
33.625322
 20
17.070799
 30
0.0
  0
SPLINE
  5
128
100
AcDbEntity
  8
panel
 62
7
100
AcDbSpline
 70
8
 71
3
 72
8
 73
4
 74
0
 40
0
 40
0
 40
0
 40
0
 40
1
 40
1
 40
1
 40
1
 10
33.625322
 20
17.070799
 30
0.0
 10
34.600202
 20
17.633898
 30
0.0
 10
35.200445
 20
18.674477
 30
0.0
 10
35.199792
 20
19.800297
 30
0.0
  0
LWPOLYLINE
  5
129
100
AcDbEntity
  8
panel
 62
7
100
AcDbPolyline
 90
2
 70
0
 10
33.949797
 20
4.600316
 30
0.0
 10
37.049791
 20
4.600316
 30
0.0
  0
SPLINE
  5
12a
100
AcDbEntity
  8
panel
 62
7
100
AcDbSpline
 70
8
 71
3
 72
8
 73
4
 74
0
 40
0
 40
0
 40
0
 40
0
 40
1
 40
1
 40
1
 40
1
 10
35.699794
 20
37.300275
 30
0.0
 10
35.700290
 20
38.604623
 30
0.0
 10
35.004714
 20
39.810104
 30
0.0
 10
33.875197
 20
40.462422
 30
0.0
  0
SPLINE
  5
12b
100
AcDbEntity
  8
panel
 62
7
100
AcDbSpline
 70
8
 71
3
 72
8
 73
4
 74
0
 40
0
 40
0
 40
0
 40
0
 40
1
 40
1
 40
1
 40
1
 10
33.875197
 20
40.462422
 30
0.0
 10
32.745681
 20
41.114739
 30
0.0
 10
31.353916
 20
41.114739
 30
0.0
 10
30.224399
 20
40.462422
 30
0.0
  0
SPLINE
  5
12c
100
AcDbEntity
  8
panel
 62
7
100
AcDbSpline
 70
8
 71
3
 72
8
 73
4
 74
0
 40
0
 40
0
 40
0
 40
0
 40
1
 40
1
 40
1
 40
1
 10
30.224399
 20
40.462422
 30
0.0
 10
29.094883
 20
39.810104
 30
0.0
 10
28.399306
 20
38.604623
 30
0.0
 10
28.399803
 20
37.300275
 30
0.0
  0
SPLINE
  5
12d
100
AcDbEntity
  8
panel
 62
7
100
AcDbSpline
 70
8
 71
3
 72
8
 73
4
 74
0
 40
0
 40
0
 40
0
 40
0
 40
1
 40
1
 40
1
 40
1
 10
28.399803
 20
37.300275
 30
0.0
 10
28.399306
 20
35.995926
 30
0.0
 10
29.094883
 20
34.790446
 30
0.0
 10
30.224399
 20
34.138128
 30
0.0
  0
SPLINE
  5
12e
100
AcDbEntity
  8
panel
 62
7
100
AcDbSpline
 70
8
 71
3
 72
8
 73
4
 74
0
 40
0
 40
0
 40
0
 40
0
 40
1
 40
1
 40
1
 40
1
 10
30.224399
 20
34.138128
 30
0.0
 10
31.353916
 20
33.485810
 30
0.0
 10
32.745681
 20
33.485810
 30
0.0
 10
33.875197
 20
34.138128
 30
0.0
  0
SPLINE
  5
12f
100
AcDbEntity
  8
panel
 62
7
100
AcDbSpline
 70
8
 71
3
 72
8
 73
4
 74
0
 40
0
 40
0
 40
0
 40
0
 40
1
 40
1
 40
1
 40
1
 10
33.875197
 20
34.138128
 30
0.0
 10
35.004714
 20
34.790446
 30
0.0
 10
35.700290
 20
35.995926
 30
0.0
 10
35.699794
 20
37.300275
 30
0.0
  0
LWPOLYLINE
  5
130
100
AcDbEntity
  8
panel
 62
7
100
AcDbPolyline
 90
1
 70
1
 10
35.199792
 20
19.800297
 30
0.0
  0
SPLINE
  5
131
100
AcDbEntity
  8
panel
 62
7
100
AcDbSpline
 70
8
 71
3
 72
8
 73
4
 74
0
 40
0
 40
0
 40
0
 40
0
 40
1
 40
1
 40
1
 40
1
 10
35.199792
 20
55.550252
 30
0.0
 10
35.200445
 20
56.676072
 30
0.0
 10
34.600202
 20
57.716652
 30
0.0
 10
33.625322
 20
58.279750
 30
0.0
  0
SPLINE
  5
132
100
AcDbEntity
  8
panel
 62
7
100
AcDbSpline
 70
8
 71
3
 72
8
 73
4
 74
0
 40
0
 40
0
 40
0
 40
0
 40
1
 40
1
 40
1
 40
1
 10
33.625322
 20
58.279750
 30
0.0
 10
32.650442
 20
58.842849
 30
0.0
 10
31.449152
 20
58.842849
 30
0.0
 10
30.474272
 20
58.279750
 30
0.0
  0
SPLINE
  5
133
100
AcDbEntity
  8
panel
 62
7
100
AcDbSpline
 70
8
 71
3
 72
8
 73
4
 74
0
 40
0
 40
0
 40
0
 40
0
 40
1
 40
1
 40
1
 40
1
 10
30.474272
 20
58.279750
 30
0.0
 10
29.499392
 20
57.716652
 30
0.0
 10
28.899149
 20
56.676072
 30
0.0
 10
28.899801
 20
55.550252
 30
0.0
  0
SPLINE
  5
134
100
AcDbEntity
  8
panel
 62
7
100
AcDbSpline
 70
8
 71
3
 72
8
 73
4
 74
0
 40
0
 40
0
 40
0
 40
0
 40
1
 40
1
 40
1
 40
1
 10
28.899801
 20
55.550252
 30
0.0
 10
28.899149
 20
54.424432
 30
0.0
 10
29.499392
 20
53.383853
 30
0.0
 10
30.474272
 20
52.820754
 30
0.0
  0
SPLINE
  5
135
100
AcDbEntity
  8
panel
 62
7
100
AcDbSpline
 70
8
 71
3
 72
8
 73
4
 74
0
 40
0
 40
0
 40
0
 40
0
 40
1
 40
1
 40
1
 40
1
 10
30.474272
 20
52.820754
 30
0.0
 10
31.449152
 20
52.257656
 30
0.0
 10
32.650442
 20
52.257656
 30
0.0
 10
33.625322
 20
52.820754
 30
0.0
  0
SPLINE
  5
136
100
AcDbEntity
  8
panel
 62
7
100
AcDbSpline
 70
8
 71
3
 72
8
 73
4
 74
0
 40
0
 40
0
 40
0
 40
0
 40
1
 40
1
 40
1
 40
1
 10
33.625322
 20
52.820754
 30
0.0
 10
34.600202
 20
53.383853
 30
0.0
 10
35.200445
 20
54.424432
 30
0.0
 10
35.199792
 20
55.550252
 30
0.0
  0
LWPOLYLINE
  5
137
100
AcDbEntity
  8
panel
 62
7
100
AcDbPolyline
 90
1
 70
1
 10
35.699794
 20
37.300275
 30
0.0
  0
SPLINE
  5
138
100
AcDbEntity
  8
panel
 62
7
100
AcDbSpline
 70
8
 71
3
 72
8
 73
4
 74
0
 40
0
 40
0
 40
0
 40
0
 40
1
 40
1
 40
1
 40
1
 10
11.699824
 20
73.050230
 30
0.0
 10
11.700321
 20
74.354578
 30
0.0
 10
11.004744
 20
75.560059
 30
0.0
 10
9.875228
 20
76.212377
 30
0.0
  0
SPLINE
  5
139
100
AcDbEntity
  8
panel
 62
7
100
AcDbSpline
 70
8
 71
3
 72
8
 73
4
 74
0
 40
0
 40
0
 40
0
 40
0
 40
1
 40
1
 40
1
 40
1
 10
9.875228
 20
76.212377
 30
0.0
 10
8.745711
 20
76.864694
 30
0.0
 10
7.353946
 20
76.864694
 30
0.0
 10
6.224430
 20
76.212377
 30
0.0
  0
SPLINE
  5
13a
100
AcDbEntity
  8
panel
 62
7
100
AcDbSpline
 70
8
 71
3
 72
8
 73
4
 74
0
 40
0
 40
0
 40
0
 40
0
 40
1
 40
1
 40
1
 40
1
 10
6.224430
 20
76.212377
 30
0.0
 10
5.094914
 20
75.560059
 30
0.0
 10
4.399337
 20
74.354578
 30
0.0
 10
4.399834
 20
73.050230
 30
0.0
  0
SPLINE
  5
13b
100
AcDbEntity
  8
panel
 62
7
100
AcDbSpline
 70
8
 71
3
 72
8
 73
4
 74
0
 40
0
 40
0
 40
0
 40
0
 40
1
 40
1
 40
1
 40
1
 10
4.399834
 20
73.050230
 30
0.0
 10
4.399337
 20
71.745881
 30
0.0
 10
5.094914
 20
70.540400
 30
0.0
 10
6.224430
 20
69.888083
 30
0.0
  0
SPLINE
  5
13c
100
AcDbEntity
  8
panel
 62
7
100
AcDbSpline
 70
8
 71
3
 72
8
 73
4
 74
0
 40
0
 40
0
 40
0
 40
0
 40
1
 40
1
 40
1
 40
1
 10
6.224430
 20
69.888083
 30
0.0
 10
7.353946
 20
69.235765
 30
0.0
 10
8.745711
 20
69.235765
 30
0.0
 10
9.875228
 20
69.888083
 30
0.0
  0
SPLINE
  5
13d
100
AcDbEntity
  8
panel
 62
7
100
AcDbSpline
 70
8
 71
3
 72
8
 73
4
 74
0
 40
0
 40
0
 40
0
 40
0
 40
1
 40
1
 40
1
 40
1
 10
9.875228
 20
69.888083
 30
0.0
 10
11.004744
 20
70.540400
 30
0.0
 10
11.700321
 20
71.745881
 30
0.0
 10
11.699824
 20
73.050230
 30
0.0
  0
LWPOLYLINE
  5
13e
100
AcDbEntity
  8
panel
 62
7
100
AcDbPolyline
 90
1
 70
1
 10
35.199792
 20
55.550252
 30
0.0
  0
SPLINE
  5
13f
100
AcDbEntity
  8
panel
 62
7
100
AcDbSpline
 70
8
 71
3
 72
8
 73
4
 74
0
 40
0
 40
0
 40
0
 40
0
 40
1
 40
1
 40
1
 40
1
 10
11.199823
 20
91.300207
 30
0.0
 10
11.200476
 20
92.426027
 30
0.0
 10
10.600233
 20
93.466607
 30
0.0
 10
9.625353
 20
94.029705
 30
0.0
  0
SPLINE
  5
140
100
AcDbEntity
  8
panel
 62
7
100
AcDbSpline
 70
8
 71
3
 72
8
 73
4
 74
0
 40
0
 40
0
 40
0
 40
0
 40
1
 40
1
 40
1
 40
1
 10
9.625353
 20
94.029705
 30
0.0
 10
8.650473
 20
94.592804
 30
0.0
 10
7.449182
 20
94.592804
 30
0.0
 10
6.474302
 20
94.029705
 30
0.0
  0
SPLINE
  5
141
100
AcDbEntity
  8
panel
 62
7
100
AcDbSpline
 70
8
 71
3
 72
8
 73
4
 74
0
 40
0
 40
0
 40
0
 40
0
 40
1
 40
1
 40
1
 40
1
 10
6.474302
 20
94.029705
 30
0.0
 10
5.499422
 20
93.466607
 30
0.0
 10
4.899179
 20
92.426027
 30
0.0
 10
4.899832
 20
91.300207
 30
0.0
  0
SPLINE
  5
142
100
AcDbEntity
  8
panel
 62
7
100
AcDbSpline
 70
8
 71
3
 72
8
 73
4
 74
0
 40
0
 40
0
 40
0
 40
0
 40
1
 40
1
 40
1
 40
1
 10
4.899832
 20
91.300207
 30
0.0
 10
4.899179
 20
90.174387
 30
0.0
 10
5.499422
 20
89.133807
 30
0.0
 10
6.474302
 20
88.570709
 30
0.0
  0
SPLINE
  5
143
100
AcDbEntity
  8
panel
 62
7
100
AcDbSpline
 70
8
 71
3
 72
8
 73
4
 74
0
 40
0
 40
0
 40
0
 40
0
 40
1
 40
1
 40
1
 40
1
 10
6.474302
 20
88.570709
 30
0.0
 10
7.449182
 20
88.007611
 30
0.0
 10
8.650473
 20
88.007611
 30
0.0
 10
9.625353
 20
88.570709
 30
0.0
  0
SPLINE
  5
144
100
AcDbEntity
  8
panel
 62
7
100
AcDbSpline
 70
8
 71
3
 72
8
 73
4
 74
0
 40
0
 40
0
 40
0
 40
0
 40
1
 40
1
 40
1
 40
1
 10
9.625353
 20
88.570709
 30
0.0
 10
10.600233
 20
89.133807
 30
0.0
 10
11.200476
 20
90.174387
 30
0.0
 10
11.199823
 20
91.300207
 30
0.0
  0
LWPOLYLINE
  5
145
100
AcDbEntity
  8
panel
 62
7
100
AcDbPolyline
 90
1
 70
1
 10
11.699824
 20
73.050230
 30
0.0
  0
SPLINE
  5
146
100
AcDbEntity
  8
panel
 62
7
100
AcDbSpline
 70
8
 71
3
 72
8
 73
4
 74
0
 40
0
 40
0
 40
0
 40
0
 40
1
 40
1
 40
1
 40
1
 10
11.699824
 20
108.800184
 30
0.0
 10
11.700321
 20
110.104533
 30
0.0
 10
11.004744
 20
111.310014
 30
0.0
 10
9.875228
 20
111.962331
 30
0.0
  0
SPLINE
  5
147
100
AcDbEntity
  8
panel
 62
7
100
AcDbSpline
 70
8
 71
3
 72
8
 73
4
 74
0
 40
0
 40
0
 40
0
 40
0
 40
1
 40
1
 40
1
 40
1
 10
9.875228
 20
111.962331
 30
0.0
 10
8.745711
 20
112.614649
 30
0.0
 10
7.353946
 20
112.614649
 30
0.0
 10
6.224430
 20
111.962331
 30
0.0
  0
SPLINE
  5
148
100
AcDbEntity
  8
panel
 62
7
100
AcDbSpline
 70
8
 71
3
 72
8
 73
4
 74
0
 40
0
 40
0
 40
0
 40
0
 40
1
 40
1
 40
1
 40
1
 10
6.224430
 20
111.962331
 30
0.0
 10
5.094914
 20
111.310014
 30
0.0
 10
4.399337
 20
110.104533
 30
0.0
 10
4.399834
 20
108.800184
 30
0.0
  0
SPLINE
  5
149
100
AcDbEntity
  8
panel
 62
7
100
AcDbSpline
 70
8
 71
3
 72
8
 73
4
 74
0
 40
0
 40
0
 40
0
 40
0
 40
1
 40
1
 40
1
 40
1
 10
4.399834
 20
108.800184
 30
0.0
 10
4.399337
 20
107.495836
 30
0.0
 10
5.094914
 20
106.290355
 30
0.0
 10
6.224430
 20
105.638038
 30
0.0
  0
SPLINE
  5
14a
100
AcDbEntity
  8
panel
 62
7
100
AcDbSpline
 70
8
 71
3
 72
8
 73
4
 74
0
 40
0
 40
0
 40
0
 40
0
 40
1
 40
1
 40
1
 40
1
 10
6.224430
 20
105.638038
 30
0.0
 10
7.353946
 20
104.985720
 30
0.0
 10
8.745711
 20
104.985720
 30
0.0
 10
9.875228
 20
105.638038
 30
0.0
  0
SPLINE
  5
14b
100
AcDbEntity
  8
panel
 62
7
100
AcDbSpline
 70
8
 71
3
 72
8
 73
4
 74
0
 40
0
 40
0
 40
0
 40
0
 40
1
 40
1
 40
1
 40
1
 10
9.875228
 20
105.638038
 30
0.0
 10
11.004744
 20
106.290355
 30
0.0
 10
11.700321
 20
107.495836
 30
0.0
 10
11.699824
 20
108.800184
 30
0.0
  0
LWPOLYLINE
  5
14c
100
AcDbEntity
  8
panel
 62
7
100
AcDbPolyline
 90
1
 70
1
 10
11.199823
 20
91.300207
 30
0.0
  0
SPLINE
  5
14d
100
AcDbEntity
  8
panel
 62
7
100
AcDbSpline
 70
8
 71
3
 72
8
 73
4
 74
0
 40
0
 40
0
 40
0
 40
0
 40
1
 40
1
 40
1
 40
1
 10
3.049833
 20
127.100163
 30
0.0
 10
2.496072
 20
127.100163
 30
0.0
 10
1.984376
 20
126.804735
 30
0.0
 10
1.707495
 20
126.325164
 30
0.0
  0
SPLINE
  5
14e
100
AcDbEntity
  8
panel
 62
7
100
AcDbSpline
 70
8
 71
3
 72
8
 73
4
 74
0
 40
0
 40
0
 40
0
 40
0
 40
1
 40
1
 40
1
 40
1
 10
1.707495
 20
126.325164
 30
0.0
 10
1.430614
 20
125.845592
 30
0.0
 10
1.430614
 20
125.254736
 30
0.0
 10
1.707495
 20
124.775165
 30
0.0
  0
SPLINE
  5
14f
100
AcDbEntity
  8
panel
 62
7
100
AcDbSpline
 70
8
 71
3
 72
8
 73
4
 74
0
 40
0
 40
0
 40
0
 40
0
 40
1
 40
1
 40
1
 40
1
 10
1.707495
 20
124.775165
 30
0.0
 10
1.984376
 20
124.295594
 30
0.0
 10
2.496072
 20
124.000166
 30
0.0
 10
3.049833
 20
124.000166
 30
0.0
  0
LWPOLYLINE
  5
150
100
AcDbEntity
  8
panel
 62
7
100
AcDbPolyline
 90
1
 70
1
 10
11.699824
 20
108.800184
 30
0.0
  0
SPLINE
  5
151
100
AcDbEntity
  8
panel
 62
7
100
AcDbSpline
 70
8
 71
3
 72
8
 73
4
 74
0
 40
0
 40
0
 40
0
 40
0
 40
1
 40
1
 40
1
 40
1
 10
6.149831
 20
124.000166
 30
0.0
 10
6.703592
 20
124.000166
 30
0.0
 10
7.215288
 20
124.295594
 30
0.0
 10
7.492169
 20
124.775165
 30
0.0
  0
SPLINE
  5
152
100
AcDbEntity
  8
panel
 62
7
100
AcDbSpline
 70
8
 71
3
 72
8
 73
4
 74
0
 40
0
 40
0
 40
0
 40
0
 40
1
 40
1
 40
1
 40
1
 10
7.492169
 20
124.775165
 30
0.0
 10
7.769049
 20
125.254736
 30
0.0
 10
7.769049
 20
125.845592
 30
0.0
 10
7.492169
 20
126.325164
 30
0.0
  0
SPLINE
  5
153
100
AcDbEntity
  8
panel
 62
7
100
AcDbSpline
 70
8
 71
3
 72
8
 73
4
 74
0
 40
0
 40
0
 40
0
 40
0
 40
1
 40
1
 40
1
 40
1
 10
7.492169
 20
126.325164
 30
0.0
 10
7.215288
 20
126.804735
 30
0.0
 10
6.703592
 20
127.100163
 30
0.0
 10
6.149831
 20
127.100163
 30
0.0
  0
LWPOLYLINE
  5
154
100
AcDbEntity
  8
panel
 62
7
100
AcDbPolyline
 90
2
 70
0
 10
3.049833
 20
124.000166
 30
0.0
 10
6.149831
 20
124.000166
 30
0.0
  0
SPLINE
  5
155
100
AcDbEntity
  8
panel
 62
7
100
AcDbSpline
 70
8
 71
3
 72
8
 73
4
 74
0
 40
0
 40
0
 40
0
 40
0
 40
1
 40
1
 40
1
 40
1
 10
35.699794
 20
73.050230
 30
0.0
 10
35.700290
 20
74.354578
 30
0.0
 10
35.004714
 20
75.560059
 30
0.0
 10
33.875197
 20
76.212377
 30
0.0
  0
SPLINE
  5
156
100
AcDbEntity
  8
panel
 62
7
100
AcDbSpline
 70
8
 71
3
 72
8
 73
4
 74
0
 40
0
 40
0
 40
0
 40
0
 40
1
 40
1
 40
1
 40
1
 10
33.875197
 20
76.212377
 30
0.0
 10
32.745681
 20
76.864694
 30
0.0
 10
31.353916
 20
76.864694
 30
0.0
 10
30.224399
 20
76.212377
 30
0.0
  0
SPLINE
  5
157
100
AcDbEntity
  8
panel
 62
7
100
AcDbSpline
 70
8
 71
3
 72
8
 73
4
 74
0
 40
0
 40
0
 40
0
 40
0
 40
1
 40
1
 40
1
 40
1
 10
30.224399
 20
76.212377
 30
0.0
 10
29.094883
 20
75.560059
 30
0.0
 10
28.399306
 20
74.354578
 30
0.0
 10
28.399803
 20
73.050230
 30
0.0
  0
SPLINE
  5
158
100
AcDbEntity
  8
panel
 62
7
100
AcDbSpline
 70
8
 71
3
 72
8
 73
4
 74
0
 40
0
 40
0
 40
0
 40
0
 40
1
 40
1
 40
1
 40
1
 10
28.399803
 20
73.050230
 30
0.0
 10
28.399306
 20
71.745881
 30
0.0
 10
29.094883
 20
70.540400
 30
0.0
 10
30.224399
 20
69.888083
 30
0.0
  0
SPLINE
  5
159
100
AcDbEntity
  8
panel
 62
7
100
AcDbSpline
 70
8
 71
3
 72
8
 73
4
 74
0
 40
0
 40
0
 40
0
 40
0
 40
1
 40
1
 40
1
 40
1
 10
30.224399
 20
69.888083
 30
0.0
 10
31.353916
 20
69.235765
 30
0.0
 10
32.745681
 20
69.235765
 30
0.0
 10
33.875197
 20
69.888083
 30
0.0
  0
SPLINE
  5
15a
100
AcDbEntity
  8
panel
 62
7
100
AcDbSpline
 70
8
 71
3
 72
8
 73
4
 74
0
 40
0
 40
0
 40
0
 40
0
 40
1
 40
1
 40
1
 40
1
 10
33.875197
 20
69.888083
 30
0.0
 10
35.004714
 20
70.540400
 30
0.0
 10
35.700290
 20
71.745881
 30
0.0
 10
35.699794
 20
73.050230
 30
0.0
  0
LWPOLYLINE
  5
15b
100
AcDbEntity
  8
panel
 62
7
100
AcDbPolyline
 90
2
 70
0
 10
3.049833
 20
127.100163
 30
0.0
 10
6.149831
 20
127.100163
 30
0.0
  0
SPLINE
  5
15c
100
AcDbEntity
  8
panel
 62
7
100
AcDbSpline
 70
8
 71
3
 72
8
 73
4
 74
0
 40
0
 40
0
 40
0
 40
0
 40
1
 40
1
 40
1
 40
1
 10
35.199792
 20
91.300207
 30
0.0
 10
35.200445
 20
92.426027
 30
0.0
 10
34.600202
 20
93.466607
 30
0.0
 10
33.625322
 20
94.029705
 30
0.0
  0
SPLINE
  5
15d
100
AcDbEntity
  8
panel
 62
7
100
AcDbSpline
 70
8
 71
3
 72
8
 73
4
 74
0
 40
0
 40
0
 40
0
 40
0
 40
1
 40
1
 40
1
 40
1
 10
33.625322
 20
94.029705
 30
0.0
 10
32.650442
 20
94.592804
 30
0.0
 10
31.449152
 20
94.592804
 30
0.0
 10
30.474272
 20
94.029705
 30
0.0
  0
SPLINE
  5
15e
100
AcDbEntity
  8
panel
 62
7
100
AcDbSpline
 70
8
 71
3
 72
8
 73
4
 74
0
 40
0
 40
0
 40
0
 40
0
 40
1
 40
1
 40
1
 40
1
 10
30.474272
 20
94.029705
 30
0.0
 10
29.499392
 20
93.466607
 30
0.0
 10
28.899149
 20
92.426027
 30
0.0
 10
28.899801
 20
91.300207
 30
0.0
  0
SPLINE
  5
15f
100
AcDbEntity
  8
panel
 62
7
100
AcDbSpline
 70
8
 71
3
 72
8
 73
4
 74
0
 40
0
 40
0
 40
0
 40
0
 40
1
 40
1
 40
1
 40
1
 10
28.899801
 20
91.300207
 30
0.0
 10
28.899149
 20
90.174387
 30
0.0
 10
29.499392
 20
89.133807
 30
0.0
 10
30.474272
 20
88.570709
 30
0.0
  0
SPLINE
  5
160
100
AcDbEntity
  8
panel
 62
7
100
AcDbSpline
 70
8
 71
3
 72
8
 73
4
 74
0
 40
0
 40
0
 40
0
 40
0
 40
1
 40
1
 40
1
 40
1
 10
30.474272
 20
88.570709
 30
0.0
 10
31.449152
 20
88.007611
 30
0.0
 10
32.650442
 20
88.007611
 30
0.0
 10
33.625322
 20
88.570709
 30
0.0
  0
SPLINE
  5
161
100
AcDbEntity
  8
panel
 62
7
100
AcDbSpline
 70
8
 71
3
 72
8
 73
4
 74
0
 40
0
 40
0
 40
0
 40
0
 40
1
 40
1
 40
1
 40
1
 10
33.625322
 20
88.570709
 30
0.0
 10
34.600202
 20
89.133807
 30
0.0
 10
35.200445
 20
90.174387
 30
0.0
 10
35.199792
 20
91.300207
 30
0.0
  0
LWPOLYLINE
  5
162
100
AcDbEntity
  8
panel
 62
7
100
AcDbPolyline
 90
1
 70
1
 10
35.699794
 20
73.050230
 30
0.0
  0
SPLINE
  5
163
100
AcDbEntity
  8
panel
 62
7
100
AcDbSpline
 70
8
 71
3
 72
8
 73
4
 74
0
 40
0
 40
0
 40
0
 40
0
 40
1
 40
1
 40
1
 40
1
 10
35.699794
 20
108.800184
 30
0.0
 10
35.700290
 20
110.104533
 30
0.0
 10
35.004714
 20
111.310014
 30
0.0
 10
33.875197
 20
111.962331
 30
0.0
  0
SPLINE
  5
164
100
AcDbEntity
  8
panel
 62
7
100
AcDbSpline
 70
8
 71
3
 72
8
 73
4
 74
0
 40
0
 40
0
 40
0
 40
0
 40
1
 40
1
 40
1
 40
1
 10
33.875197
 20
111.962331
 30
0.0
 10
32.745681
 20
112.614649
 30
0.0
 10
31.353916
 20
112.614649
 30
0.0
 10
30.224399
 20
111.962331
 30
0.0
  0
SPLINE
  5
165
100
AcDbEntity
  8
panel
 62
7
100
AcDbSpline
 70
8
 71
3
 72
8
 73
4
 74
0
 40
0
 40
0
 40
0
 40
0
 40
1
 40
1
 40
1
 40
1
 10
30.224399
 20
111.962331
 30
0.0
 10
29.094883
 20
111.310014
 30
0.0
 10
28.399306
 20
110.104533
 30
0.0
 10
28.399803
 20
108.800184
 30
0.0
  0
SPLINE
  5
166
100
AcDbEntity
  8
panel
 62
7
100
AcDbSpline
 70
8
 71
3
 72
8
 73
4
 74
0
 40
0
 40
0
 40
0
 40
0
 40
1
 40
1
 40
1
 40
1
 10
28.399803
 20
108.800184
 30
0.0
 10
28.399306
 20
107.495836
 30
0.0
 10
29.094883
 20
106.290355
 30
0.0
 10
30.224399
 20
105.638038
 30
0.0
  0
SPLINE
  5
167
100
AcDbEntity
  8
panel
 62
7
100
AcDbSpline
 70
8
 71
3
 72
8
 73
4
 74
0
 40
0
 40
0
 40
0
 40
0
 40
1
 40
1
 40
1
 40
1
 10
30.224399
 20
105.638038
 30
0.0
 10
31.353916
 20
104.985720
 30
0.0
 10
32.745681
 20
104.985720
 30
0.0
 10
33.875197
 20
105.638038
 30
0.0
  0
SPLINE
  5
168
100
AcDbEntity
  8
panel
 62
7
100
AcDbSpline
 70
8
 71
3
 72
8
 73
4
 74
0
 40
0
 40
0
 40
0
 40
0
 40
1
 40
1
 40
1
 40
1
 10
33.875197
 20
105.638038
 30
0.0
 10
35.004714
 20
106.290355
 30
0.0
 10
35.700290
 20
107.495836
 30
0.0
 10
35.699794
 20
108.800184
 30
0.0
  0
LWPOLYLINE
  5
169
100
AcDbEntity
  8
panel
 62
7
100
AcDbPolyline
 90
1
 70
1
 10
35.199792
 20
91.300207
 30
0.0
  0
SPLINE
  5
16a
100
AcDbEntity
  8
panel
 62
7
100
AcDbSpline
 70
8
 71
3
 72
8
 73
4
 74
0
 40
0
 40
0
 40
0
 40
0
 40
1
 40
1
 40
1
 40
1
 10
33.949797
 20
127.100163
 30
0.0
 10
33.396035
 20
127.100163
 30
0.0
 10
32.884339
 20
126.804735
 30
0.0
 10
32.607458
 20
126.325164
 30
0.0
  0
SPLINE
  5
16b
100
AcDbEntity
  8
panel
 62
7
100
AcDbSpline
 70
8
 71
3
 72
8
 73
4
 74
0
 40
0
 40
0
 40
0
 40
0
 40
1
 40
1
 40
1
 40
1
 10
32.607458
 20
126.325164
 30
0.0
 10
32.330578
 20
125.845592
 30
0.0
 10
32.330578
 20
125.254736
 30
0.0
 10
32.607458
 20
124.775165
 30
0.0
  0
SPLINE
  5
16c
100
AcDbEntity
  8
panel
 62
7
100
AcDbSpline
 70
8
 71
3
 72
8
 73
4
 74
0
 40
0
 40
0
 40
0
 40
0
 40
1
 40
1
 40
1
 40
1
 10
32.607458
 20
124.775165
 30
0.0
 10
32.884339
 20
124.295594
 30
0.0
 10
33.396035
 20
124.000166
 30
0.0
 10
33.949797
 20
124.000166
 30
0.0
  0
LWPOLYLINE
  5
16d
100
AcDbEntity
  8
panel
 62
7
100
AcDbPolyline
 90
1
 70
1
 10
35.699794
 20
108.800184
 30
0.0
  0
SPLINE
  5
16e
100
AcDbEntity
  8
panel
 62
7
100
AcDbSpline
 70
8
 71
3
 72
8
 73
4
 74
0
 40
0
 40
0
 40
0
 40
0
 40
1
 40
1
 40
1
 40
1
 10
37.049791
 20
124.000166
 30
0.0
 10
37.603552
 20
124.000166
 30
0.0
 10
38.115249
 20
124.295594
 30
0.0
 10
38.392129
 20
124.775165
 30
0.0
  0
SPLINE
  5
16f
100
AcDbEntity
  8
panel
 62
7
100
AcDbSpline
 70
8
 71
3
 72
8
 73
4
 74
0
 40
0
 40
0
 40
0
 40
0
 40
1
 40
1
 40
1
 40
1
 10
38.392129
 20
124.775165
 30
0.0
 10
38.669010
 20
125.254736
 30
0.0
 10
38.669010
 20
125.845592
 30
0.0
 10
38.392129
 20
126.325164
 30
0.0
  0
SPLINE
  5
170
100
AcDbEntity
  8
panel
 62
7
100
AcDbSpline
 70
8
 71
3
 72
8
 73
4
 74
0
 40
0
 40
0
 40
0
 40
0
 40
1
 40
1
 40
1
 40
1
 10
38.392129
 20
126.325164
 30
0.0
 10
38.115249
 20
126.804735
 30
0.0
 10
37.603552
 20
127.100163
 30
0.0
 10
37.049791
 20
127.100163
 30
0.0
  0
LWPOLYLINE
  5
171
100
AcDbEntity
  8
panel
 62
7
100
AcDbPolyline
 90
2
 70
0
 10
33.949797
 20
124.000166
 30
0.0
 10
37.049791
 20
124.000166
 30
0.0
  0
LWPOLYLINE
  5
172
100
AcDbEntity
  8
panel
 62
7
100
AcDbPolyline
 90
2
 70
0
 10
33.949797
 20
127.100163
 30
0.0
 10
37.049791
 20
127.100163
 30
0.0
  0
LWPOLYLINE
  5
173
100
AcDbEntity
  8
Logo
 62
7
100
AcDbPolyline
 90
19
 70
0
 10
17.318201
 20
7.802510
 30
0.0
 10
17.539174
 20
7.692026
 30
0.0
 10
17.612831
 20
7.581541
 30
0.0
 10
17.686489
 20
7.360573
 30
0.0
 10
17.686489
 20
7.029120
 30
0.0
 10
17.612831
 20
6.808151
 30
0.0
 10
17.539174
 20
6.697668
 30
0.0
 10
17.391858
 20
6.587183
 30
0.0
 10
16.802613
 20
6.587183
 30
0.0
 10
16.802613
 20
8.907353
 30
0.0
 10
17.318201
 20
8.907353
 30
0.0
 10
17.465516
 20
8.796868
 30
0.0
 10
17.539174
 20
8.686385
 30
0.0
 10
17.612831
 20
8.465416
 30
0.0
 10
17.612831
 20
8.244448
 30
0.0
 10
17.539174
 20
8.023478
 30
0.0
 10
17.465516
 20
7.912995
 30
0.0
 10
17.318201
 20
7.802510
 30
0.0
 10
16.802613
 20
7.802510
 30
0.0
  0
LWPOLYLINE
  5
174
100
AcDbEntity
  8
Logo
 62
7
100
AcDbPolyline
 90
3
 70
0
 10
19.085954
 20
6.587183
 30
0.0
 10
18.349393
 20
6.587183
 30
0.0
 10
18.349393
 20
8.907353
 30
0.0
  0
LWPOLYLINE
  5
175
100
AcDbEntity
  8
Logo
 62
7
100
AcDbPolyline
 90
2
 70
0
 10
19.601557
 20
7.802510
 30
0.0
 10
20.117145
 20
7.802510
 30
0.0
  0
LWPOLYLINE
  5
176
100
AcDbEntity
  8
Logo
 62
7
100
AcDbPolyline
 90
4
 70
0
 10
20.338118
 20
6.587183
 30
0.0
 10
19.601557
 20
6.587183
 30
0.0
 10
19.601557
 20
8.907353
 30
0.0
 10
20.338118
 20
8.907353
 30
0.0
  0
LWPOLYLINE
  5
177
100
AcDbEntity
  8
Logo
 62
7
100
AcDbPolyline
 90
2
 70
0
 10
21.001022
 20
7.802510
 30
0.0
 10
21.516610
 20
7.802510
 30
0.0
  0
LWPOLYLINE
  5
178
100
AcDbEntity
  8
Logo
 62
7
100
AcDbPolyline
 90
4
 70
0
 10
21.737583
 20
6.587183
 30
0.0
 10
21.001022
 20
6.587183
 30
0.0
 10
21.001022
 20
8.907353
 30
0.0
 10
21.737583
 20
8.907353
 30
0.0
  0
LWPOLYLINE
  5
179
100
AcDbEntity
  8
Logo
 62
7
100
AcDbPolyline
 90
11
 70
0
 10
22.400487
 20
6.587183
 30
0.0
 10
22.400487
 20
8.907353
 30
0.0
 10
22.989733
 20
8.907353
 30
0.0
 10
23.137048
 20
8.796868
 30
0.0
 10
23.210705
 20
8.686385
 30
0.0
 10
23.284363
 20
8.465416
 30
0.0
 10
23.284363
 20
8.133963
 30
0.0
 10
23.210705
 20
7.912995
 30
0.0
 10
23.137048
 20
7.802510
 30
0.0
 10
22.989733
 20
7.692026
 30
0.0
 10
22.400487
 20
7.692026
 30
0.0
  0
LWPOLYLINE
  5
17a
100
AcDbEntity
  8
Logo
 62
7
100
AcDbPolyline
 90
19
 70
0
 10
17.097243
 20
4.863628
 30
0.0
 10
17.318201
 20
4.753144
 30
0.0
 10
17.391858
 20
4.642659
 30
0.0
 10
17.465516
 20
4.421691
 30
0.0
 10
17.465516
 20
4.090238
 30
0.0
 10
17.391858
 20
3.869269
 30
0.0
 10
17.318201
 20
3.758786
 30
0.0
 10
17.170901
 20
3.648301
 30
0.0
 10
16.581640
 20
3.648301
 30
0.0
 10
16.581640
 20
5.968471
 30
0.0
 10
17.097243
 20
5.968471
 30
0.0
 10
17.244558
 20
5.857986
 30
0.0
 10
17.318201
 20
5.747503
 30
0.0
 10
17.391858
 20
5.526534
 30
0.0
 10
17.391858
 20
5.305566
 30
0.0
 10
17.318201
 20
5.084596
 30
0.0
 10
17.244558
 20
4.974113
 30
0.0
 10
17.097243
 20
4.863628
 30
0.0
 10
16.581640
 20
4.863628
 30
0.0
  0
LWPOLYLINE
  5
17b
100
AcDbEntity
  8
Logo
 62
7
100
AcDbPolyline
 90
3
 70
0
 10
18.864981
 20
3.648301
 30
0.0
 10
18.128420
 20
3.648301
 30
0.0
 10
18.128420
 20
5.968471
 30
0.0
  0
LWPOLYLINE
  5
17c
100
AcDbEntity
  8
Logo
 62
7
100
AcDbPolyline
 90
16
 70
1
 10
19.675200
 20
5.968471
 30
0.0
 10
19.969830
 20
5.968471
 30
0.0
 10
20.117145
 20
5.857986
 30
0.0
 10
20.264461
 20
5.637018
 30
0.0
 10
20.338118
 20
5.195081
 30
0.0
 10
20.338118
 20
4.421691
 30
0.0
 10
20.264461
 20
3.979754
 30
0.0
 10
20.117145
 20
3.758786
 30
0.0
 10
19.969830
 20
3.648301
 30
0.0
 10
19.675200
 20
3.648301
 30
0.0
 10
19.527900
 20
3.758786
 30
0.0
 10
19.380584
 20
3.979754
 30
0.0
 10
19.306927
 20
4.421691
 30
0.0
 10
19.306927
 20
5.195081
 30
0.0
 10
19.380584
 20
5.637018
 30
0.0
 10
19.527900
 20
5.857986
 30
0.0
  0
LWPOLYLINE
  5
17d
100
AcDbEntity
  8
Logo
 62
7
100
AcDbPolyline
 90
16
 70
1
 10
21.295637
 20
5.968471
 30
0.0
 10
21.590268
 20
5.968471
 30
0.0
 10
21.737583
 20
5.857986
 30
0.0
 10
21.884898
 20
5.637018
 30
0.0
 10
21.958541
 20
5.195081
 30
0.0
 10
21.958541
 20
4.421691
 30
0.0
 10
21.884898
 20
3.979754
 30
0.0
 10
21.737583
 20
3.758786
 30
0.0
 10
21.590268
 20
3.648301
 30
0.0
 10
21.295637
 20
3.648301
 30
0.0
 10
21.148337
 20
3.758786
 30
0.0
 10
21.001022
 20
3.979754
 30
0.0
 10
20.927364
 20
4.421691
 30
0.0
 10
20.927364
 20
5.195081
 30
0.0
 10
21.001022
 20
5.637018
 30
0.0
 10
21.148337
 20
5.857986
 30
0.0
  0
LWPOLYLINE
  5
17e
100
AcDbEntity
  8
Logo
 62
7
100
AcDbPolyline
 90
11
 70
0
 10
22.621460
 20
3.648301
 30
0.0
 10
22.621460
 20
5.968471
 30
0.0
 10
23.210705
 20
5.968471
 30
0.0
 10
23.358021
 20
5.857986
 30
0.0
 10
23.431678
 20
5.747503
 30
0.0
 10
23.505321
 20
5.526534
 30
0.0
 10
23.505321
 20
5.195081
 30
0.0
 10
23.431678
 20
4.974113
 30
0.0
 10
23.358021
 20
4.863628
 30
0.0
 10
23.210705
 20
4.753144
 30
0.0
 10
22.621460
 20
4.753144
 30
0.0
  0
LWPOLYLINE
  5
17f
100
AcDbEntity
  8
Logo
 62
7
100
AcDbPolyline
 90
2
 70
0
 10
15.506612
 20
9.132813
 30
0.0
 10
16.023298
 20
9.465329
 30
0.0
  0
LWPOLYLINE
  5
180
100
AcDbEntity
  8
Logo
 62
7
100
AcDbPolyline
 90
2
 70
0
 10
15.093003
 20
4.154381
 30
0.0
 10
15.056437
 20
4.671968
 30
0.0
  0
LWPOLYLINE
  5
181
100
AcDbEntity
  8
Logo
 62
7
100
AcDbPolyline
 90
2
 70
0
 10
15.052477
 20
3.034972
 30
0.0
 10
15.348964
 20
3.672588
 30
0.0
  0
LWPOLYLINE
  5
182
100
AcDbEntity
  8
Logo
 62
7
100
AcDbPolyline
 90
2
 70
0
 10
24.760826
 20
4.001817
 30
0.0
 10
24.428300
 20
3.485137
 30
0.0
  0
LWPOLYLINE
  5
183
100
AcDbEntity
  8
Logo
 62
7
100
AcDbPolyline
 90
2
 70
0
 10
15.056437
 20
7.945983
 30
0.0
 10
15.174101
 20
8.616133
 30
0.0
  0
LWPOLYLINE
  5
184
100
AcDbEntity
  8
Logo
 62
7
100
AcDbPolyline
 90
2
 70
0
 10
24.428300
 20
9.132813
 30
0.0
 10
24.760826
 20
8.616133
 30
0.0
  0
LWPOLYLINE
  5
185
100
AcDbEntity
  8
Logo
 62
7
100
AcDbPolyline
 90
2
 70
0
 10
23.911629
 20
9.465332
 30
0.0
 10
24.428300
 20
9.132813
 30
0.0
  0
LWPOLYLINE
  5
186
100
AcDbEntity
  8
Logo
 62
7
100
AcDbPolyline
 90
2
 70
0
 10
24.878490
 20
7.945986
 30
0.0
 10
24.878475
 20
4.671968
 30
0.0
  0
LWPOLYLINE
  5
187
100
AcDbEntity
  8
Logo
 62
7
100
AcDbPolyline
 90
2
 70
0
 10
15.174101
 20
8.616133
 30
0.0
 10
15.506612
 20
9.132813
 30
0.0
  0
LWPOLYLINE
  5
188
100
AcDbEntity
  8
Logo
 62
7
100
AcDbPolyline
 90
3
 70
0
 10
16.181951
 20
3.069808
 30
0.0
 10
15.713911
 20
3.313756
 30
0.0
 10
15.052477
 20
3.034972
 30
0.0
  0
LWPOLYLINE
  5
189
100
AcDbEntity
  8
Logo
 62
7
100
AcDbPolyline
 90
3
 70
0
 10
16.693441
 20
9.582989
 30
0.0
 10
23.241471
 20
9.582994
 30
0.0
 10
23.911629
 20
9.465332
 30
0.0
  0
LWPOLYLINE
  5
18a
100
AcDbEntity
  8
Logo
 62
7
100
AcDbPolyline
 90
2
 70
0
 10
23.911629
 20
3.152620
 30
0.0
 10
23.241471
 20
3.034959
 30
0.0
  0
LWPOLYLINE
  5
18b
100
AcDbEntity
  8
Logo
 62
7
100
AcDbPolyline
 90
2
 70
0
 10
24.878475
 20
4.671968
 30
0.0
 10
24.760826
 20
4.001817
 30
0.0
  0
LWPOLYLINE
  5
18c
100
AcDbEntity
  8
Logo
 62
7
100
AcDbPolyline
 90
3
 70
0
 10
23.241471
 20
3.034959
 30
0.0
 10
16.693441
 20
3.034959
 30
0.0
 10
16.181951
 20
3.069808
 30
0.0
  0
LWPOLYLINE
  5
18d
100
AcDbEntity
  8
Logo
 62
7
100
AcDbPolyline
 90
2
 70
0
 10
24.428300
 20
3.485137
 30
0.0
 10
23.911629
 20
3.152620
 30
0.0
  0
LWPOLYLINE
  5
18e
100
AcDbEntity
  8
Logo
 62
7
100
AcDbPolyline
 90
2
 70
0
 10
15.348964
 20
3.672588
 30
0.0
 10
15.093003
 20
4.154381
 30
0.0
  0
LWPOLYLINE
  5
18f
100
AcDbEntity
  8
Logo
 62
7
100
AcDbPolyline
 90
2
 70
0
 10
16.023298
 20
9.465329
 30
0.0
 10
16.693441
 20
9.582989
 30
0.0
  0
LWPOLYLINE
  5
190
100
AcDbEntity
  8
Logo
 62
7
100
AcDbPolyline
 90
2
 70
0
 10
24.760826
 20
8.616133
 30
0.0
 10
24.878490
 20
7.945986
 30
0.0
  0
LWPOLYLINE
  5
191
100
AcDbEntity
  8
Logo
 62
7
100
AcDbPolyline
 90
2
 70
0
 10
15.056437
 20
4.671968
 30
0.0
 10
15.056437
 20
7.945983
 30
0.0
  0
LWPOLYLINE
  5
192
100
AcDbEntity
  8
text
 62
7
100
AcDbPolyline
 90
2
 70
0
 10
5.640492
 20
121.958016
 30
0.0
 10
5.640492
 20
120.089700
 30
0.0
  0
LWPOLYLINE
  5
193
100
AcDbEntity
  8
text
 62
7
100
AcDbPolyline
 90
2
 70
0
 10
5.019601
 20
121.958016
 30
0.0
 10
6.264204
 20
121.958016
 30
0.0
  0
LWPOLYLINE
  5
194
100
AcDbEntity
  8
text
 62
7
100
AcDbPolyline
 90
2
 70
0
 10
6.707291
 20
121.958016
 30
0.0
 10
6.707291
 20
120.089700
 30
0.0
  0
LWPOLYLINE
  5
195
100
AcDbEntity
  8
text
 62
7
100
AcDbPolyline
 90
10
 70
0
 10
6.707291
 20
121.958016
 30
0.0
 10
7.508804
 20
121.958016
 30
0.0
 10
7.774094
 20
121.867705
 30
0.0
 10
7.864405
 20
121.777394
 30
0.0
 10
7.954716
 20
121.602415
 30
0.0
 10
7.954716
 20
121.421793
 30
0.0
 10
7.864405
 20
121.246814
 30
0.0
 10
7.774094
 20
121.156503
 30
0.0
 10
7.508804
 20
121.066192
 30
0.0
 10
6.707291
 20
121.066192
 30
0.0
  0
LWPOLYLINE
  5
196
100
AcDbEntity
  8
text
 62
7
100
AcDbPolyline
 90
2
 70
0
 10
7.331003
 20
121.066192
 30
0.0
 10
7.954716
 20
120.089700
 30
0.0
  0
LWPOLYLINE
  5
197
100
AcDbEntity
  8
text
 62
7
100
AcDbPolyline
 90
2
 70
0
 10
8.575611
 20
121.958016
 30
0.0
 10
8.575611
 20
120.089700
 30
0.0
  0
LWPOLYLINE
  5
198
100
AcDbEntity
  8
text
 62
7
100
AcDbPolyline
 90
2
 70
0
 10
9.286811
 20
121.958016
 30
0.0
 10
9.286811
 20
120.089700
 30
0.0
  0
LWPOLYLINE
  5
199
100
AcDbEntity
  8
text
 62
7
100
AcDbPolyline
 90
10
 70
0
 10
9.286811
 20
121.958016
 30
0.0
 10
10.088324
 20
121.958016
 30
0.0
 10
10.353614
 20
121.867705
 30
0.0
 10
10.443925
 20
121.777394
 30
0.0
 10
10.534236
 20
121.602415
 30
0.0
 10
10.534236
 20
121.334303
 30
0.0
 10
10.443925
 20
121.156503
 30
0.0
 10
10.353614
 20
121.066192
 30
0.0
 10
10.088324
 20
120.978702
 30
0.0
 10
9.286811
 20
120.978702
 30
0.0
  0
LWPOLYLINE
  5
19a
100
AcDbEntity
  8
text
 62
7
100
AcDbPolyline
 90
3
 70
0
 10
11.155131
 20
121.958016
 30
0.0
 10
11.155131
 20
120.089700
 30
0.0
 10
12.221934
 20
120.089700
 30
0.0
  0
LWPOLYLINE
  5
19b
100
AcDbEntity
  8
text
 62
7
100
AcDbPolyline
 90
2
 70
0
 10
12.667841
 20
121.958016
 30
0.0
 10
12.667841
 20
120.089700
 30
0.0
  0
LWPOLYLINE
  5
19c
100
AcDbEntity
  8
text
 62
7
100
AcDbPolyline
 90
2
 70
0
 10
12.667841
 20
121.958016
 30
0.0
 10
13.824955
 20
121.958016
 30
0.0
  0
LWPOLYLINE
  5
19d
100
AcDbEntity
  8
text
 62
7
100
AcDbPolyline
 90
2
 70
0
 10
12.667841
 20
121.066192
 30
0.0
 10
13.379043
 20
121.066192
 30
0.0
  0
LWPOLYLINE
  5
19e
100
AcDbEntity
  8
text
 62
7
100
AcDbPolyline
 90
2
 70
0
 10
12.667841
 20
120.089700
 30
0.0
 10
13.824955
 20
120.089700
 30
0.0
  0
LWPOLYLINE
  5
19f
100
AcDbEntity
  8
text
 62
7
100
AcDbPolyline
 90
2
 70
0
 10
15.868303
 20
121.958016
 30
0.0
 10
15.157101
 20
120.089700
 30
0.0
  0
LWPOLYLINE
  5
1a0
100
AcDbEntity
  8
text
 62
7
100
AcDbPolyline
 90
2
 70
0
 10
15.868303
 20
121.958016
 30
0.0
 10
16.579505
 20
120.089700
 30
0.0
  0
LWPOLYLINE
  5
1a1
100
AcDbEntity
  8
text
 62
7
100
AcDbPolyline
 90
2
 70
0
 10
15.422391
 20
120.710591
 30
0.0
 10
16.314215
 20
120.710591
 30
0.0
  0
LWPOLYLINE
  5
1a2
100
AcDbEntity
  8
text
 62
7
100
AcDbPolyline
 90
2
 70
0
 10
17.378192
 20
121.958016
 30
0.0
 10
17.378192
 20
120.089700
 30
0.0
  0
LWPOLYLINE
  5
1a3
100
AcDbEntity
  8
text
 62
7
100
AcDbPolyline
 90
2
 70
0
 10
16.757301
 20
121.958016
 30
0.0
 10
18.001904
 20
121.958016
 30
0.0
  0
LWPOLYLINE
  5
1a4
100
AcDbEntity
  8
text
 62
7
100
AcDbPolyline
 90
2
 70
0
 10
18.800592
 20
121.958016
 30
0.0
 10
18.800592
 20
120.089700
 30
0.0
  0
LWPOLYLINE
  5
1a5
100
AcDbEntity
  8
text
 62
7
100
AcDbPolyline
 90
2
 70
0
 10
18.179701
 20
121.958016
 30
0.0
 10
19.424304
 20
121.958016
 30
0.0
  0
LWPOLYLINE
  5
1a6
100
AcDbEntity
  8
text
 62
7
100
AcDbPolyline
 90
2
 70
0
 10
19.867391
 20
121.958016
 30
0.0
 10
19.867391
 20
120.089700
 30
0.0
  0
LWPOLYLINE
  5
1a7
100
AcDbEntity
  8
text
 62
7
100
AcDbPolyline
 90
2
 70
0
 10
19.867391
 20
121.958016
 30
0.0
 10
21.024505
 20
121.958016
 30
0.0
  0
LWPOLYLINE
  5
1a8
100
AcDbEntity
  8
text
 62
7
100
AcDbPolyline
 90
2
 70
0
 10
19.867391
 20
121.066192
 30
0.0
 10
20.578593
 20
121.066192
 30
0.0
  0
LWPOLYLINE
  5
1a9
100
AcDbEntity
  8
text
 62
7
100
AcDbPolyline
 90
2
 70
0
 10
19.867391
 20
120.089700
 30
0.0
 10
21.024505
 20
120.089700
 30
0.0
  0
LWPOLYLINE
  5
1aa
100
AcDbEntity
  8
text
 62
7
100
AcDbPolyline
 90
2
 70
0
 10
21.555091
 20
121.958016
 30
0.0
 10
21.555091
 20
120.089700
 30
0.0
  0
LWPOLYLINE
  5
1ab
100
AcDbEntity
  8
text
 62
7
100
AcDbPolyline
 90
2
 70
0
 10
21.555091
 20
121.958016
 30
0.0
 10
22.802516
 20
120.089700
 30
0.0
  0
LWPOLYLINE
  5
1ac
100
AcDbEntity
  8
text
 62
7
100
AcDbPolyline
 90
2
 70
0
 10
22.802516
 20
121.958016
 30
0.0
 10
22.802516
 20
120.089700
 30
0.0
  0
LWPOLYLINE
  5
1ad
100
AcDbEntity
  8
text
 62
7
100
AcDbPolyline
 90
10
 70
0
 10
23.510891
 20
121.958016
 30
0.0
 10
23.510891
 20
120.623101
 30
0.0
 10
23.601202
 20
120.356401
 30
0.0
 10
23.779002
 20
120.178600
 30
0.0
 10
24.047114
 20
120.089700
 30
0.0
 10
24.222093
 20
120.089700
 30
0.0
 10
24.490204
 20
120.178600
 30
0.0
 10
24.668005
 20
120.356401
 30
0.0
 10
24.758316
 20
120.623101
 30
0.0
 10
24.758316
 20
121.958016
 30
0.0
  0
LWPOLYLINE
  5
1ae
100
AcDbEntity
  8
text
 62
7
100
AcDbPolyline
 90
2
 70
0
 10
25.201401
 20
121.958016
 30
0.0
 10
25.912603
 20
120.089700
 30
0.0
  0
LWPOLYLINE
  5
1af
100
AcDbEntity
  8
text
 62
7
100
AcDbPolyline
 90
2
 70
0
 10
26.623805
 20
121.958016
 30
0.0
 10
25.912603
 20
120.089700
 30
0.0
  0
LWPOLYLINE
  5
1b0
100
AcDbEntity
  8
text
 62
7
100
AcDbPolyline
 90
2
 70
0
 10
27.066891
 20
121.958016
 30
0.0
 10
27.066891
 20
120.089700
 30
0.0
  0
LWPOLYLINE
  5
1b1
100
AcDbEntity
  8
text
 62
7
100
AcDbPolyline
 90
2
 70
0
 10
27.066891
 20
121.958016
 30
0.0
 10
28.224005
 20
121.958016
 30
0.0
  0
LWPOLYLINE
  5
1b2
100
AcDbEntity
  8
text
 62
7
100
AcDbPolyline
 90
2
 70
0
 10
27.066891
 20
121.066192
 30
0.0
 10
27.778093
 20
121.066192
 30
0.0
  0
LWPOLYLINE
  5
1b3
100
AcDbEntity
  8
text
 62
7
100
AcDbPolyline
 90
2
 70
0
 10
27.066891
 20
120.089700
 30
0.0
 10
28.224005
 20
120.089700
 30
0.0
  0
LWPOLYLINE
  5
1b4
100
AcDbEntity
  8
text
 62
7
100
AcDbPolyline
 90
2
 70
0
 10
28.754591
 20
121.958016
 30
0.0
 10
28.754591
 20
120.089700
 30
0.0
  0
LWPOLYLINE
  5
1b5
100
AcDbEntity
  8
text
 62
7
100
AcDbPolyline
 90
10
 70
0
 10
28.754591
 20
121.958016
 30
0.0
 10
29.556104
 20
121.958016
 30
0.0
 10
29.821394
 20
121.867705
 30
0.0
 10
29.911705
 20
121.777394
 30
0.0
 10
30.002016
 20
121.602415
 30
0.0
 10
30.002016
 20
121.421793
 30
0.0
 10
29.911705
 20
121.246814
 30
0.0
 10
29.821394
 20
121.156503
 30
0.0
 10
29.556104
 20
121.066192
 30
0.0
 10
28.754591
 20
121.066192
 30
0.0
  0
LWPOLYLINE
  5
1b6
100
AcDbEntity
  8
text
 62
7
100
AcDbPolyline
 90
2
 70
0
 10
29.378303
 20
121.066192
 30
0.0
 10
30.002016
 20
120.089700
 30
0.0
  0
LWPOLYLINE
  5
1b7
100
AcDbEntity
  8
text
 62
7
100
AcDbPolyline
 90
2
 70
0
 10
30.978492
 20
121.958016
 30
0.0
 10
30.978492
 20
120.089700
 30
0.0
  0
LWPOLYLINE
  5
1b8
100
AcDbEntity
  8
text
 62
7
100
AcDbPolyline
 90
2
 70
0
 10
30.357601
 20
121.958016
 30
0.0
 10
31.602204
 20
121.958016
 30
0.0
  0
LWPOLYLINE
  5
1b9
100
AcDbEntity
  8
text
 62
7
100
AcDbPolyline
 90
2
 70
0
 10
32.045291
 20
121.958016
 30
0.0
 10
32.045291
 20
120.089700
 30
0.0
  0
LWPOLYLINE
  5
1ba
100
AcDbEntity
  8
text
 62
7
100
AcDbPolyline
 90
2
 70
0
 10
32.045291
 20
121.958016
 30
0.0
 10
33.202405
 20
121.958016
 30
0.0
  0
LWPOLYLINE
  5
1bb
100
AcDbEntity
  8
text
 62
7
100
AcDbPolyline
 90
2
 70
0
 10
32.045291
 20
121.066192
 30
0.0
 10
32.756493
 20
121.066192
 30
0.0
  0
LWPOLYLINE
  5
1bc
100
AcDbEntity
  8
text
 62
7
100
AcDbPolyline
 90
2
 70
0
 10
32.045291
 20
120.089700
 30
0.0
 10
33.202405
 20
120.089700
 30
0.0
  0
LWPOLYLINE
  5
1bd
100
AcDbEntity
  8
text
 62
7
100
AcDbPolyline
 90
2
 70
0
 10
33.732991
 20
121.958016
 30
0.0
 10
33.732991
 20
120.089700
 30
0.0
  0
LWPOLYLINE
  5
1be
100
AcDbEntity
  8
text
 62
7
100
AcDbPolyline
 90
10
 70
0
 10
33.732991
 20
121.958016
 30
0.0
 10
34.534504
 20
121.958016
 30
0.0
 10
34.799794
 20
121.867705
 30
0.0
 10
34.890105
 20
121.777394
 30
0.0
 10
34.980416
 20
121.602415
 30
0.0
 10
34.980416
 20
121.421793
 30
0.0
 10
34.890105
 20
121.246814
 30
0.0
 10
34.799794
 20
121.156503
 30
0.0
 10
34.534504
 20
121.066192
 30
0.0
 10
33.732991
 20
121.066192
 30
0.0
  0
LWPOLYLINE
  5
1bf
100
AcDbEntity
  8
text
 62
7
100
AcDbPolyline
 90
2
 70
0
 10
34.356703
 20
121.066192
 30
0.0
 10
34.980416
 20
120.089700
 30
0.0
  0
LWPOLYLINE
  5
1c0
100
AcDbEntity
  8
text
 62
7
100
AcDbPolyline
 90
2
 70
0
 10
11.378091
 20
126.484116
 30
0.0
 10
11.378091
 20
124.615800
 30
0.0
  0
LWPOLYLINE
  5
1c1
100
AcDbEntity
  8
text
 62
7
100
AcDbPolyline
 90
10
 70
0
 10
11.378091
 20
126.484116
 30
0.0
 10
12.179604
 20
126.484116
 30
0.0
 10
12.444894
 20
126.393805
 30
0.0
 10
12.535205
 20
126.303494
 30
0.0
 10
12.625516
 20
126.128515
 30
0.0
 10
12.625516
 20
125.947893
 30
0.0
 10
12.535205
 20
125.772914
 30
0.0
 10
12.444894
 20
125.682603
 30
0.0
 10
12.179604
 20
125.592292
 30
0.0
 10
11.378091
 20
125.592292
 30
0.0
  0
LWPOLYLINE
  5
1c2
100
AcDbEntity
  8
text
 62
7
100
AcDbPolyline
 90
2
 70
0
 10
12.001803
 20
125.592292
 30
0.0
 10
12.625516
 20
124.615800
 30
0.0
  0
LWPOLYLINE
  5
1c3
100
AcDbEntity
  8
text
 62
7
100
AcDbPolyline
 90
16
 70
1
 10
13.602012
 20
125.860403
 30
0.0
 10
13.427033
 20
125.772914
 30
0.0
 10
13.246411
 20
125.592292
 30
0.0
 10
13.158921
 20
125.327002
 30
0.0
 10
13.158921
 20
125.149201
 30
0.0
 10
13.246411
 20
124.882501
 30
0.0
 10
13.427033
 20
124.704700
 30
0.0
 10
13.602012
 20
124.615800
 30
0.0
 10
13.870123
 20
124.615800
 30
0.0
 10
14.047924
 20
124.704700
 30
0.0
 10
14.225724
 20
124.882501
 30
0.0
 10
14.313214
 20
125.149201
 30
0.0
 10
14.313214
 20
125.327002
 30
0.0
 10
14.225724
 20
125.592292
 30
0.0
 10
14.047924
 20
125.772914
 30
0.0
 10
13.870123
 20
125.860403
 30
0.0
  0
LWPOLYLINE
  5
1c4
100
AcDbEntity
  8
text
 62
7
100
AcDbPolyline
 90
2
 70
0
 10
14.934101
 20
126.484116
 30
0.0
 10
14.934101
 20
124.615800
 30
0.0
  0
LWPOLYLINE
  5
1c5
100
AcDbEntity
  8
text
 62
7
100
AcDbPolyline
 90
14
 70
0
 10
14.934101
 20
125.592292
 30
0.0
 10
15.114723
 20
125.772914
 30
0.0
 10
15.289702
 20
125.860403
 30
0.0
 10
15.557813
 20
125.860403
 30
0.0
 10
15.735614
 20
125.772914
 30
0.0
 10
15.913414
 20
125.592292
 30
0.0
 10
16.000904
 20
125.327002
 30
0.0
 10
16.000904
 20
125.149201
 30
0.0
 10
15.913414
 20
124.882501
 30
0.0
 10
15.735614
 20
124.704700
 30
0.0
 10
15.557813
 20
124.615800
 30
0.0
 10
15.289702
 20
124.615800
 30
0.0
 10
15.114723
 20
124.704700
 30
0.0
 10
14.934101
 20
124.882501
 30
0.0
  0
LWPOLYLINE
  5
1c6
100
AcDbEntity
  8
text
 62
7
100
AcDbPolyline
 90
16
 70
1
 10
16.977392
 20
125.860403
 30
0.0
 10
16.802413
 20
125.772914
 30
0.0
 10
16.621791
 20
125.592292
 30
0.0
 10
16.534301
 20
125.327002
 30
0.0
 10
16.534301
 20
125.149201
 30
0.0
 10
16.621791
 20
124.882501
 30
0.0
 10
16.802413
 20
124.704700
 30
0.0
 10
16.977392
 20
124.615800
 30
0.0
 10
17.245503
 20
124.615800
 30
0.0
 10
17.423304
 20
124.704700
 30
0.0
 10
17.601104
 20
124.882501
 30
0.0
 10
17.688594
 20
125.149201
 30
0.0
 10
17.688594
 20
125.327002
 30
0.0
 10
17.601104
 20
125.592292
 30
0.0
 10
17.423304
 20
125.772914
 30
0.0
 10
17.245503
 20
125.860403
 30
0.0
  0
LWPOLYLINE
  5
1c7
100
AcDbEntity
  8
text
 62
7
100
AcDbPolyline
 90
5
 70
0
 10
18.399802
 20
126.484116
 30
0.0
 10
18.399802
 20
124.971401
 30
0.0
 10
18.490113
 20
124.704700
 30
0.0
 10
18.665092
 20
124.615800
 30
0.0
 10
18.845714
 20
124.615800
 30
0.0
  0
LWPOLYLINE
  5
1c8
100
AcDbEntity
  8
text
 62
7
100
AcDbPolyline
 90
2
 70
0
 10
18.134512
 20
125.860403
 30
0.0
 10
18.755403
 20
125.860403
 30
0.0
  0
LWPOLYLINE
  5
1c9
100
AcDbEntity
  8
text
 62
7
100
AcDbPolyline
 90
2
 70
0
 10
19.376291
 20
126.484116
 30
0.0
 10
19.376291
 20
124.615800
 30
0.0
  0
LWPOLYLINE
  5
1ca
100
AcDbEntity
  8
text
 62
7
100
AcDbPolyline
 90
12
 70
0
 10
19.376291
 20
126.484116
 30
0.0
 10
20.000003
 20
126.484116
 30
0.0
 10
20.268115
 20
126.393805
 30
0.0
 10
20.443094
 20
126.216004
 30
0.0
 10
20.533405
 20
126.038204
 30
0.0
 10
20.623716
 20
125.772914
 30
0.0
 10
20.623716
 20
125.327002
 30
0.0
 10
20.533405
 20
125.061712
 30
0.0
 10
20.443094
 20
124.882501
 30
0.0
 10
20.268115
 20
124.704700
 30
0.0
 10
20.000003
 20
124.615800
 30
0.0
 10
19.376291
 20
124.615800
 30
0.0
  0
LWPOLYLINE
  5
1cb
100
AcDbEntity
  8
text
 62
7
100
AcDbPolyline
 90
4
 70
1
 10
21.157121
 20
126.484116
 30
0.0
 10
21.244611
 20
126.393805
 30
0.0
 10
21.334922
 20
126.484116
 30
0.0
 10
21.244611
 20
126.571605
 30
0.0
  0
LWPOLYLINE
  5
1cc
100
AcDbEntity
  8
text
 62
7
100
AcDbPolyline
 90
2
 70
0
 10
21.244611
 20
125.860403
 30
0.0
 10
21.244611
 20
124.615800
 30
0.0
  0
LWPOLYLINE
  5
1cd
100
AcDbEntity
  8
text
 62
7
100
AcDbPolyline
 90
2
 70
0
 10
22.935104
 20
125.860403
 30
0.0
 10
22.935104
 20
124.615800
 30
0.0
  0
LWPOLYLINE
  5
1ce
100
AcDbEntity
  8
text
 62
7
100
AcDbPolyline
 90
14
 70
0
 10
22.935104
 20
125.592292
 30
0.0
 10
22.757304
 20
125.772914
 30
0.0
 10
22.579503
 20
125.860403
 30
0.0
 10
22.311392
 20
125.860403
 30
0.0
 10
22.136413
 20
125.772914
 30
0.0
 10
21.955791
 20
125.592292
 30
0.0
 10
21.868301
 20
125.327002
 30
0.0
 10
21.868301
 20
125.149201
 30
0.0
 10
21.955791
 20
124.882501
 30
0.0
 10
22.136413
 20
124.704700
 30
0.0
 10
22.311392
 20
124.615800
 30
0.0
 10
22.579503
 20
124.615800
 30
0.0
 10
22.757304
 20
124.704700
 30
0.0
 10
22.935104
 20
124.882501
 30
0.0
  0
LWPOLYLINE
  5
1cf
100
AcDbEntity
  8
text
 62
7
100
AcDbPolyline
 90
2
 70
0
 10
23.643491
 20
126.484116
 30
0.0
 10
23.643491
 20
124.615800
 30
0.0
  0
LWPOLYLINE
  5
1d0
100
AcDbEntity
  8
text
 62
7
100
AcDbPolyline
 90
16
 70
1
 10
24.710292
 20
125.860403
 30
0.0
 10
24.535313
 20
125.772914
 30
0.0
 10
24.354691
 20
125.592292
 30
0.0
 10
24.267201
 20
125.327002
 30
0.0
 10
24.267201
 20
125.149201
 30
0.0
 10
24.354691
 20
124.882501
 30
0.0
 10
24.535313
 20
124.704700
 30
0.0
 10
24.710292
 20
124.615800
 30
0.0
 10
24.978403
 20
124.615800
 30
0.0
 10
25.156204
 20
124.704700
 30
0.0
 10
25.334004
 20
124.882501
 30
0.0
 10
25.421494
 20
125.149201
 30
0.0
 10
25.421494
 20
125.327002
 30
0.0
 10
25.334004
 20
125.592292
 30
0.0
 10
25.156204
 20
125.772914
 30
0.0
 10
24.978403
 20
125.860403
 30
0.0
  0
LWPOLYLINE
  5
1d1
100
AcDbEntity
  8
text
 62
7
100
AcDbPolyline
 90
7
 70
0
 10
27.021704
 20
125.860403
 30
0.0
 10
27.021704
 20
124.438000
 30
0.0
 10
26.934215
 20
124.169888
 30
0.0
 10
26.843904
 20
124.082399
 30
0.0
 10
26.666103
 20
123.994909
 30
0.0
 10
26.397992
 20
123.994909
 30
0.0
 10
26.223013
 20
124.082399
 30
0.0
  0
LWPOLYLINE
  5
1d2
100
AcDbEntity
  8
text
 62
7
100
AcDbPolyline
 90
14
 70
0
 10
27.021704
 20
125.592292
 30
0.0
 10
26.843904
 20
125.772914
 30
0.0
 10
26.666103
 20
125.860403
 30
0.0
 10
26.397992
 20
125.860403
 30
0.0
 10
26.223013
 20
125.772914
 30
0.0
 10
26.042391
 20
125.592292
 30
0.0
 10
25.954901
 20
125.327002
 30
0.0
 10
25.954901
 20
125.149201
 30
0.0
 10
26.042391
 20
124.882501
 30
0.0
 10
26.223013
 20
124.704700
 30
0.0
 10
26.397992
 20
124.615800
 30
0.0
 10
26.666103
 20
124.615800
 30
0.0
 10
26.843904
 20
124.704700
 30
0.0
 10
27.021704
 20
124.882501
 30
0.0
  0
LWPOLYLINE
  5
1d3
100
AcDbEntity
  8
text
 62
7
100
AcDbPolyline
 90
17
 70
0
 10
28.621915
 20
125.592292
 30
0.0
 10
28.531604
 20
125.772914
 30
0.0
 10
28.266314
 20
125.860403
 30
0.0
 10
27.998202
 20
125.860403
 30
0.0
 10
27.730091
 20
125.772914
 30
0.0
 10
27.642601
 20
125.592292
 30
0.0
 10
27.730091
 20
125.417313
 30
0.0
 10
27.910713
 20
125.327002
 30
0.0
 10
28.353803
 20
125.236691
 30
0.0
 10
28.531604
 20
125.149201
 30
0.0
 10
28.621915
 20
124.971401
 30
0.0
 10
28.621915
 20
124.882501
 30
0.0
 10
28.531604
 20
124.704700
 30
0.0
 10
28.266314
 20
124.615800
 30
0.0
 10
27.998202
 20
124.615800
 30
0.0
 10
27.730091
 20
124.704700
 30
0.0
 10
27.642601
 20
124.882501
 30
0.0
  0
LWPOLYLINE
  5
1d4
100
AcDbEntity
  8
text
 62
7
100
AcDbPolyline
 90
20
 70
1
 10
27.739003
 20
118.380816
 30
0.0
 10
27.561202
 20
118.290505
 30
0.0
 10
27.383402
 20
118.112704
 30
0.0
 10
27.293091
 20
117.934904
 30
0.0
 10
27.205601
 20
117.669614
 30
0.0
 10
27.205601
 20
117.223702
 30
0.0
 10
27.293091
 20
116.958412
 30
0.0
 10
27.383402
 20
116.779201
 30
0.0
 10
27.561202
 20
116.601400
 30
0.0
 10
27.739003
 20
116.512500
 30
0.0
 10
28.094604
 20
116.512500
 30
0.0
 10
28.272404
 20
116.601400
 30
0.0
 10
28.450205
 20
116.779201
 30
0.0
 10
28.540516
 20
116.958412
 30
0.0
 10
28.628005
 20
117.223702
 30
0.0
 10
28.628005
 20
117.669614
 30
0.0
 10
28.540516
 20
117.934904
 30
0.0
 10
28.450205
 20
118.112704
 30
0.0
 10
28.272404
 20
118.290505
 30
0.0
 10
28.094604
 20
118.380816
 30
0.0
  0
LWPOLYLINE
  5
1d5
100
AcDbEntity
  8
text
 62
7
100
AcDbPolyline
 90
2
 70
0
 10
29.248901
 20
118.380816
 30
0.0
 10
29.248901
 20
116.512500
 30
0.0
  0
LWPOLYLINE
  5
1d6
100
AcDbEntity
  8
text
 62
7
100
AcDbPolyline
 90
2
 70
0
 10
29.248901
 20
118.380816
 30
0.0
 10
30.406015
 20
118.380816
 30
0.0
  0
LWPOLYLINE
  5
1d7
100
AcDbEntity
  8
text
 62
7
100
AcDbPolyline
 90
2
 70
0
 10
29.248901
 20
117.488992
 30
0.0
 10
29.960103
 20
117.488992
 30
0.0
  0
LWPOLYLINE
  5
1d8
100
AcDbEntity
  8
text
 62
7
100
AcDbPolyline
 90
2
 70
0
 10
30.849101
 20
118.380816
 30
0.0
 10
30.849101
 20
116.512500
 30
0.0
  0
LWPOLYLINE
  5
1d9
100
AcDbEntity
  8
text
 62
7
100
AcDbPolyline
 90
2
 70
0
 10
30.849101
 20
118.380816
 30
0.0
 10
32.006215
 20
118.380816
 30
0.0
  0
LWPOLYLINE
  5
1da
100
AcDbEntity
  8
text
 62
7
100
AcDbPolyline
 90
2
 70
0
 10
30.849101
 20
117.488992
 30
0.0
 10
31.560303
 20
117.488992
 30
0.0
  0
LWPOLYLINE
  5
1db
100
AcDbEntity
  8
text
 62
7
100
AcDbPolyline
 90
20
 70
0
 10
33.606415
 20
118.112704
 30
0.0
 10
33.428614
 20
118.290505
 30
0.0
 10
33.160503
 20
118.380816
 30
0.0
 10
32.804902
 20
118.380816
 30
0.0
 10
32.539612
 20
118.290505
 30
0.0
 10
32.361811
 20
118.112704
 30
0.0
 10
32.361811
 20
117.934904
 30
0.0
 10
32.449301
 20
117.757103
 30
0.0
 10
32.539612
 20
117.669614
 30
0.0
 10
32.717412
 20
117.579303
 30
0.0
 10
33.250814
 20
117.401502
 30
0.0
 10
33.428614
 20
117.314013
 30
0.0
 10
33.516104
 20
117.223702
 30
0.0
 10
33.606415
 20
117.045901
 30
0.0
 10
33.606415
 20
116.779201
 30
0.0
 10
33.428614
 20
116.601400
 30
0.0
 10
33.160503
 20
116.512500
 30
0.0
 10
32.804902
 20
116.512500
 30
0.0
 10
32.539612
 20
116.601400
 30
0.0
 10
32.361811
 20
116.779201
 30
0.0
  0
LWPOLYLINE
  5
1dc
100
AcDbEntity
  8
text
 62
7
100
AcDbPolyline
 90
2
 70
0
 10
34.227311
 20
118.380816
 30
0.0
 10
34.227311
 20
116.512500
 30
0.0
  0
LWPOLYLINE
  5
1dd
100
AcDbEntity
  8
text
 62
7
100
AcDbPolyline
 90
2
 70
0
 10
34.227311
 20
118.380816
 30
0.0
 10
35.384425
 20
118.380816
 30
0.0
  0
LWPOLYLINE
  5
1de
100
AcDbEntity
  8
text
 62
7
100
AcDbPolyline
 90
2
 70
0
 10
34.227311
 20
117.488992
 30
0.0
 10
34.938513
 20
117.488992
 30
0.0
  0
LWPOLYLINE
  5
1df
100
AcDbEntity
  8
text
 62
7
100
AcDbPolyline
 90
2
 70
0
 10
34.227311
 20
116.512500
 30
0.0
 10
35.384425
 20
116.512500
 30
0.0
  0
LWPOLYLINE
  5
1e0
100
AcDbEntity
  8
text
 62
7
100
AcDbPolyline
 90
2
 70
0
 10
36.270602
 20
118.380816
 30
0.0
 10
36.270602
 20
116.512500
 30
0.0
  0
LWPOLYLINE
  5
1e1
100
AcDbEntity
  8
text
 62
7
100
AcDbPolyline
 90
2
 70
0
 10
35.649711
 20
118.380816
 30
0.0
 10
36.894314
 20
118.380816
 30
0.0
  0
LWPOLYLINE
  5
1e2
100
AcDbEntity
  8
text
 62
7
100
AcDbPolyline
 90
2
 70
0
 10
1.739503
 20
118.380816
 30
0.0
 10
1.028301
 20
116.512500
 30
0.0
  0
LWPOLYLINE
  5
1e3
100
AcDbEntity
  8
text
 62
7
100
AcDbPolyline
 90
2
 70
0
 10
1.739503
 20
118.380816
 30
0.0
 10
2.450705
 20
116.512500
 30
0.0
  0
LWPOLYLINE
  5
1e4
100
AcDbEntity
  8
text
 62
7
100
AcDbPolyline
 90
2
 70
0
 10
1.293591
 20
117.133391
 30
0.0
 10
2.185415
 20
117.133391
 30
0.0
  0
LWPOLYLINE
  5
1e5
100
AcDbEntity
  8
text
 62
7
100
AcDbPolyline
 90
2
 70
0
 10
3.249392
 20
118.380816
 30
0.0
 10
3.249392
 20
116.512500
 30
0.0
  0
LWPOLYLINE
  5
1e6
100
AcDbEntity
  8
text
 62
7
100
AcDbPolyline
 90
2
 70
0
 10
2.628501
 20
118.380816
 30
0.0
 10
3.873104
 20
118.380816
 30
0.0
  0
LWPOLYLINE
  5
1e7
100
AcDbEntity
  8
text
 62
7
100
AcDbPolyline
 90
2
 70
0
 10
4.671802
 20
118.380816
 30
0.0
 10
4.671802
 20
116.512500
 30
0.0
  0
LWPOLYLINE
  5
1e8
100
AcDbEntity
  8
text
 62
7
100
AcDbPolyline
 90
2
 70
0
 10
4.050911
 20
118.380816
 30
0.0
 10
5.295514
 20
118.380816
 30
0.0
  0
LWPOLYLINE
  5
1e9
100
AcDbEntity
  8
text
 62
7
100
AcDbPolyline
 90
2
 70
0
 10
5.738601
 20
118.380816
 30
0.0
 10
5.738601
 20
116.512500
 30
0.0
  0
LWPOLYLINE
  5
1ea
100
AcDbEntity
  8
text
 62
7
100
AcDbPolyline
 90
2
 70
0
 10
5.738601
 20
118.380816
 30
0.0
 10
6.895715
 20
118.380816
 30
0.0
  0
LWPOLYLINE
  5
1eb
100
AcDbEntity
  8
text
 62
7
100
AcDbPolyline
 90
2
 70
0
 10
5.738601
 20
117.488992
 30
0.0
 10
6.449803
 20
117.488992
 30
0.0
  0
LWPOLYLINE
  5
1ec
100
AcDbEntity
  8
text
 62
7
100
AcDbPolyline
 90
2
 70
0
 10
5.738601
 20
116.512500
 30
0.0
 10
6.895715
 20
116.512500
 30
0.0
  0
LWPOLYLINE
  5
1ed
100
AcDbEntity
  8
text
 62
7
100
AcDbPolyline
 90
2
 70
0
 10
7.426301
 20
118.380816
 30
0.0
 10
7.426301
 20
116.512500
 30
0.0
  0
LWPOLYLINE
  5
1ee
100
AcDbEntity
  8
text
 62
7
100
AcDbPolyline
 90
2
 70
0
 10
7.426301
 20
118.380816
 30
0.0
 10
8.673726
 20
116.512500
 30
0.0
  0
LWPOLYLINE
  5
1ef
100
AcDbEntity
  8
text
 62
7
100
AcDbPolyline
 90
2
 70
0
 10
8.673726
 20
118.380816
 30
0.0
 10
8.673726
 20
116.512500
 30
0.0
  0
LWPOLYLINE
  5
1f0
100
AcDbEntity
  8
text
 62
7
100
AcDbPolyline
 90
10
 70
0
 10
9.382101
 20
118.380816
 30
0.0
 10
9.382101
 20
117.045901
 30
0.0
 10
9.472412
 20
116.779201
 30
0.0
 10
9.650212
 20
116.601400
 30
0.0
 10
9.918324
 20
116.512500
 30
0.0
 10
10.093303
 20
116.512500
 30
0.0
 10
10.361414
 20
116.601400
 30
0.0
 10
10.539215
 20
116.779201
 30
0.0
 10
10.629526
 20
117.045901
 30
0.0
 10
10.629526
 20
118.380816
 30
0.0
  0
LWPOLYLINE
  5
1f1
100
AcDbEntity
  8
text
 62
7
100
AcDbPolyline
 90
2
 70
0
 10
11.783803
 20
118.380816
 30
0.0
 10
11.072601
 20
116.512500
 30
0.0
  0
LWPOLYLINE
  5
1f2
100
AcDbEntity
  8
text
 62
7
100
AcDbPolyline
 90
2
 70
0
 10
11.783803
 20
118.380816
 30
0.0
 10
12.495005
 20
116.512500
 30
0.0
  0
LWPOLYLINE
  5
1f3
100
AcDbEntity
  8
text
 62
7
100
AcDbPolyline
 90
2
 70
0
 10
11.337891
 20
117.133391
 30
0.0
 10
12.229715
 20
117.133391
 30
0.0
  0
LWPOLYLINE
  5
1f4
100
AcDbEntity
  8
text
 62
7
100
AcDbPolyline
 90
2
 70
0
 10
13.293692
 20
118.380816
 30
0.0
 10
13.293692
 20
116.512500
 30
0.0
  0
LWPOLYLINE
  5
1f5
100
AcDbEntity
  8
text
 62
7
100
AcDbPolyline
 90
2
 70
0
 10
12.672801
 20
118.380816
 30
0.0
 10
13.917404
 20
118.380816
 30
0.0
  0
LWPOLYLINE
  5
1f6
100
AcDbEntity
  8
text
 62
7
100
AcDbPolyline
 90
2
 70
0
 10
14.360491
 20
118.380816
 30
0.0
 10
14.360491
 20
116.512500
 30
0.0
  0
LWPOLYLINE
  5
1f7
100
AcDbEntity
  8
text
 62
7
100
AcDbPolyline
 90
2
 70
0
 10
14.360491
 20
118.380816
 30
0.0
 10
15.517605
 20
118.380816
 30
0.0
  0
LWPOLYLINE
  5
1f8
100
AcDbEntity
  8
text
 62
7
100
AcDbPolyline
 90
2
 70
0
 10
14.360491
 20
117.488992
 30
0.0
 10
15.071693
 20
117.488992
 30
0.0
  0
LWPOLYLINE
  5
1f9
100
AcDbEntity
  8
text
 62
7
100
AcDbPolyline
 90
2
 70
0
 10
14.360491
 20
116.512500
 30
0.0
 10
15.517605
 20
116.512500
 30
0.0
  0
LWPOLYLINE
  5
1fa
100
AcDbEntity
  8
text
 62
7
100
AcDbPolyline
 90
2
 70
0
 10
7.070691
 20
98.395316
 30
0.0
 10
7.070691
 20
96.527000
 30
0.0
  0
LWPOLYLINE
  5
1fb
100
AcDbEntity
  8
text
 62
7
100
AcDbPolyline
 90
2
 70
0
 10
7.781893
 20
98.395316
 30
0.0
 10
7.781893
 20
96.527000
 30
0.0
  0
LWPOLYLINE
  5
1fc
100
AcDbEntity
  8
text
 62
7
100
AcDbPolyline
 90
2
 70
0
 10
7.781893
 20
98.395316
 30
0.0
 10
9.029318
 20
96.527000
 30
0.0
  0
LWPOLYLINE
  5
1fd
100
AcDbEntity
  8
text
 62
7
100
AcDbPolyline
 90
2
 70
0
 10
9.029318
 20
98.395316
 30
0.0
 10
9.029318
 20
96.527000
 30
0.0
  0
LWPOLYLINE
  5
1fe
100
AcDbEntity
  8
text
 62
7
100
AcDbPolyline
 90
20
 70
1
 10
29.916403
 20
98.395316
 30
0.0
 10
29.738602
 20
98.305005
 30
0.0
 10
29.560802
 20
98.127204
 30
0.0
 10
29.470491
 20
97.949404
 30
0.0
 10
29.383001
 20
97.684114
 30
0.0
 10
29.383001
 20
97.238202
 30
0.0
 10
29.470491
 20
96.972912
 30
0.0
 10
29.560802
 20
96.793701
 30
0.0
 10
29.738602
 20
96.615900
 30
0.0
 10
29.916403
 20
96.527000
 30
0.0
 10
30.272004
 20
96.527000
 30
0.0
 10
30.449804
 20
96.615900
 30
0.0
 10
30.627605
 20
96.793701
 30
0.0
 10
30.717916
 20
96.972912
 30
0.0
 10
30.805405
 20
97.238202
 30
0.0
 10
30.805405
 20
97.684114
 30
0.0
 10
30.717916
 20
97.949404
 30
0.0
 10
30.627605
 20
98.127204
 30
0.0
 10
30.449804
 20
98.305005
 30
0.0
 10
30.272004
 20
98.395316
 30
0.0
  0
LWPOLYLINE
  5
1ff
100
AcDbEntity
  8
text
 62
7
100
AcDbPolyline
 90
10
 70
0
 10
31.426301
 20
98.395316
 30
0.0
 10
31.426301
 20
97.060401
 30
0.0
 10
31.516612
 20
96.793701
 30
0.0
 10
31.694412
 20
96.615900
 30
0.0
 10
31.962524
 20
96.527000
 30
0.0
 10
32.137503
 20
96.527000
 30
0.0
 10
32.405614
 20
96.615900
 30
0.0
 10
32.583415
 20
96.793701
 30
0.0
 10
32.673726
 20
97.060401
 30
0.0
 10
32.673726
 20
98.395316
 30
0.0
  0
LWPOLYLINE
  5
200
100
AcDbEntity
  8
text
 62
7
100
AcDbPolyline
 90
2
 70
0
 10
33.737702
 20
98.395316
 30
0.0
 10
33.737702
 20
96.527000
 30
0.0
  0
LWPOLYLINE
  5
201
100
AcDbEntity
  8
text
 62
7
100
AcDbPolyline
 90
2
 70
0
 10
33.116811
 20
98.395316
 30
0.0
 10
34.361414
 20
98.395316
 30
0.0
  0
LWPOLYLINE
  5
202
100
AcDbEntity
  8
text
 62
7
100
AcDbPolyline
 90
2
 70
0
 10
16.768572
 20
12.012880
 30
0.0
 10
18.048735
 20
12.012880
 30
0.0
  0
LWPOLYLINE
  5
203
100
AcDbEntity
  8
text
 62
7
100
AcDbPolyline
 90
2
 70
0
 10
17.409218
 20
13.720894
 30
0.0
 10
17.409218
 20
12.439601
 30
0.0
  0
LWPOLYLINE
  5
204
100
AcDbEntity
  8
text
 62
7
100
AcDbPolyline
 90
2
 70
0
 10
16.768572
 20
13.080248
 30
0.0
 10
18.048735
 20
13.080248
 30
0.0
  0
LWPOLYLINE
  5
205
100
AcDbEntity
  8
text
 62
7
100
AcDbPolyline
 90
4
 70
0
 10
18.698973
 20
13.418915
 30
0.0
 10
18.873952
 20
13.506404
 30
0.0
 10
19.142063
 20
13.774516
 30
0.0
 10
19.142063
 20
11.906200
 30
0.0
  0
LWPOLYLINE
  5
206
100
AcDbEntity
  8
text
 62
7
100
AcDbPolyline
 90
16
 70
1
 10
20.742273
 20
13.774516
 30
0.0
 10
20.476983
 20
13.684205
 30
0.0
 10
20.296361
 20
13.418915
 30
0.0
 10
20.208871
 20
12.973003
 30
0.0
 10
20.208871
 20
12.707713
 30
0.0
 10
20.296361
 20
12.261801
 30
0.0
 10
20.476983
 20
11.995100
 30
0.0
 10
20.742273
 20
11.906200
 30
0.0
 10
20.920073
 20
11.906200
 30
0.0
 10
21.188185
 20
11.995100
 30
0.0
 10
21.363164
 20
12.261801
 30
0.0
 10
21.453475
 20
12.707713
 30
0.0
 10
21.453475
 20
12.973003
 30
0.0
 10
21.363164
 20
13.418915
 30
0.0
 10
21.188185
 20
13.684205
 30
0.0
 10
20.920073
 20
13.774516
 30
0.0
  0
LWPOLYLINE
  5
207
100
AcDbEntity
  8
text
 62
7
100
AcDbPolyline
 90
2
 70
0
 10
21.809071
 20
13.774516
 30
0.0
 10
22.520273
 20
11.906200
 30
0.0
  0
LWPOLYLINE
  5
208
100
AcDbEntity
  8
text
 62
7
100
AcDbPolyline
 90
2
 70
0
 10
23.231475
 20
13.774516
 30
0.0
 10
22.520273
 20
11.906200
 30
0.0
  0
LWPOLYLINE
  5
209
100
AcDbEntity
  8
text
 62
7
100
AcDbPolyline
 90
20
 70
1
 10
27.739003
 20
82.614816
 30
0.0
 10
27.561202
 20
82.524505
 30
0.0
 10
27.383402
 20
82.346704
 30
0.0
 10
27.293091
 20
82.168904
 30
0.0
 10
27.205601
 20
81.903614
 30
0.0
 10
27.205601
 20
81.457702
 30
0.0
 10
27.293091
 20
81.192412
 30
0.0
 10
27.383402
 20
81.013201
 30
0.0
 10
27.561202
 20
80.835400
 30
0.0
 10
27.739003
 20
80.746500
 30
0.0
 10
28.094604
 20
80.746500
 30
0.0
 10
28.272404
 20
80.835400
 30
0.0
 10
28.450205
 20
81.013201
 30
0.0
 10
28.540516
 20
81.192412
 30
0.0
 10
28.628005
 20
81.457702
 30
0.0
 10
28.628005
 20
81.903614
 30
0.0
 10
28.540516
 20
82.168904
 30
0.0
 10
28.450205
 20
82.346704
 30
0.0
 10
28.272404
 20
82.524505
 30
0.0
 10
28.094604
 20
82.614816
 30
0.0
  0
LWPOLYLINE
  5
20a
100
AcDbEntity
  8
text
 62
7
100
AcDbPolyline
 90
2
 70
0
 10
29.248901
 20
82.614816
 30
0.0
 10
29.248901
 20
80.746500
 30
0.0
  0
LWPOLYLINE
  5
20b
100
AcDbEntity
  8
text
 62
7
100
AcDbPolyline
 90
2
 70
0
 10
29.248901
 20
82.614816
 30
0.0
 10
30.406015
 20
82.614816
 30
0.0
  0
LWPOLYLINE
  5
20c
100
AcDbEntity
  8
text
 62
7
100
AcDbPolyline
 90
2
 70
0
 10
29.248901
 20
81.722992
 30
0.0
 10
29.960103
 20
81.722992
 30
0.0
  0
LWPOLYLINE
  5
20d
100
AcDbEntity
  8
text
 62
7
100
AcDbPolyline
 90
2
 70
0
 10
30.849101
 20
82.614816
 30
0.0
 10
30.849101
 20
80.746500
 30
0.0
  0
LWPOLYLINE
  5
20e
100
AcDbEntity
  8
text
 62
7
100
AcDbPolyline
 90
2
 70
0
 10
30.849101
 20
82.614816
 30
0.0
 10
32.006215
 20
82.614816
 30
0.0
  0
LWPOLYLINE
  5
20f
100
AcDbEntity
  8
text
 62
7
100
AcDbPolyline
 90
2
 70
0
 10
30.849101
 20
81.722992
 30
0.0
 10
31.560303
 20
81.722992
 30
0.0
  0
LWPOLYLINE
  5
210
100
AcDbEntity
  8
text
 62
7
100
AcDbPolyline
 90
20
 70
0
 10
33.606415
 20
82.346704
 30
0.0
 10
33.428614
 20
82.524505
 30
0.0
 10
33.160503
 20
82.614816
 30
0.0
 10
32.804902
 20
82.614816
 30
0.0
 10
32.539612
 20
82.524505
 30
0.0
 10
32.361811
 20
82.346704
 30
0.0
 10
32.361811
 20
82.168904
 30
0.0
 10
32.449301
 20
81.991103
 30
0.0
 10
32.539612
 20
81.903614
 30
0.0
 10
32.717412
 20
81.813303
 30
0.0
 10
33.250814
 20
81.635502
 30
0.0
 10
33.428614
 20
81.548013
 30
0.0
 10
33.516104
 20
81.457702
 30
0.0
 10
33.606415
 20
81.279901
 30
0.0
 10
33.606415
 20
81.013201
 30
0.0
 10
33.428614
 20
80.835400
 30
0.0
 10
33.160503
 20
80.746500
 30
0.0
 10
32.804902
 20
80.746500
 30
0.0
 10
32.539612
 20
80.835400
 30
0.0
 10
32.361811
 20
81.013201
 30
0.0
  0
LWPOLYLINE
  5
211
100
AcDbEntity
  8
text
 62
7
100
AcDbPolyline
 90
2
 70
0
 10
34.227311
 20
82.614816
 30
0.0
 10
34.227311
 20
80.746500
 30
0.0
  0
LWPOLYLINE
  5
212
100
AcDbEntity
  8
text
 62
7
100
AcDbPolyline
 90
2
 70
0
 10
34.227311
 20
82.614816
 30
0.0
 10
35.384425
 20
82.614816
 30
0.0
  0
LWPOLYLINE
  5
213
100
AcDbEntity
  8
text
 62
7
100
AcDbPolyline
 90
2
 70
0
 10
34.227311
 20
81.722992
 30
0.0
 10
34.938513
 20
81.722992
 30
0.0
  0
LWPOLYLINE
  5
214
100
AcDbEntity
  8
text
 62
7
100
AcDbPolyline
 90
2
 70
0
 10
34.227311
 20
80.746500
 30
0.0
 10
35.384425
 20
80.746500
 30
0.0
  0
LWPOLYLINE
  5
215
100
AcDbEntity
  8
text
 62
7
100
AcDbPolyline
 90
2
 70
0
 10
36.270602
 20
82.614816
 30
0.0
 10
36.270602
 20
80.746500
 30
0.0
  0
LWPOLYLINE
  5
216
100
AcDbEntity
  8
text
 62
7
100
AcDbPolyline
 90
2
 70
0
 10
35.649711
 20
82.614816
 30
0.0
 10
36.894314
 20
82.614816
 30
0.0
  0
LWPOLYLINE
  5
217
100
AcDbEntity
  8
text
 62
7
100
AcDbPolyline
 90
2
 70
0
 10
1.739503
 20
82.614816
 30
0.0
 10
1.028301
 20
80.746500
 30
0.0
  0
LWPOLYLINE
  5
218
100
AcDbEntity
  8
text
 62
7
100
AcDbPolyline
 90
2
 70
0
 10
1.739503
 20
82.614816
 30
0.0
 10
2.450705
 20
80.746500
 30
0.0
  0
LWPOLYLINE
  5
219
100
AcDbEntity
  8
text
 62
7
100
AcDbPolyline
 90
2
 70
0
 10
1.293591
 20
81.367391
 30
0.0
 10
2.185415
 20
81.367391
 30
0.0
  0
LWPOLYLINE
  5
21a
100
AcDbEntity
  8
text
 62
7
100
AcDbPolyline
 90
2
 70
0
 10
3.249392
 20
82.614816
 30
0.0
 10
3.249392
 20
80.746500
 30
0.0
  0
LWPOLYLINE
  5
21b
100
AcDbEntity
  8
text
 62
7
100
AcDbPolyline
 90
2
 70
0
 10
2.628501
 20
82.614816
 30
0.0
 10
3.873104
 20
82.614816
 30
0.0
  0
LWPOLYLINE
  5
21c
100
AcDbEntity
  8
text
 62
7
100
AcDbPolyline
 90
2
 70
0
 10
4.671802
 20
82.614816
 30
0.0
 10
4.671802
 20
80.746500
 30
0.0
  0
LWPOLYLINE
  5
21d
100
AcDbEntity
  8
text
 62
7
100
AcDbPolyline
 90
2
 70
0
 10
4.050911
 20
82.614816
 30
0.0
 10
5.295514
 20
82.614816
 30
0.0
  0
LWPOLYLINE
  5
21e
100
AcDbEntity
  8
text
 62
7
100
AcDbPolyline
 90
2
 70
0
 10
5.738601
 20
82.614816
 30
0.0
 10
5.738601
 20
80.746500
 30
0.0
  0
LWPOLYLINE
  5
21f
100
AcDbEntity
  8
text
 62
7
100
AcDbPolyline
 90
2
 70
0
 10
5.738601
 20
82.614816
 30
0.0
 10
6.895715
 20
82.614816
 30
0.0
  0
LWPOLYLINE
  5
220
100
AcDbEntity
  8
text
 62
7
100
AcDbPolyline
 90
2
 70
0
 10
5.738601
 20
81.722992
 30
0.0
 10
6.449803
 20
81.722992
 30
0.0
  0
LWPOLYLINE
  5
221
100
AcDbEntity
  8
text
 62
7
100
AcDbPolyline
 90
2
 70
0
 10
5.738601
 20
80.746500
 30
0.0
 10
6.895715
 20
80.746500
 30
0.0
  0
LWPOLYLINE
  5
222
100
AcDbEntity
  8
text
 62
7
100
AcDbPolyline
 90
2
 70
0
 10
7.426301
 20
82.614816
 30
0.0
 10
7.426301
 20
80.746500
 30
0.0
  0
LWPOLYLINE
  5
223
100
AcDbEntity
  8
text
 62
7
100
AcDbPolyline
 90
2
 70
0
 10
7.426301
 20
82.614816
 30
0.0
 10
8.673726
 20
80.746500
 30
0.0
  0
LWPOLYLINE
  5
224
100
AcDbEntity
  8
text
 62
7
100
AcDbPolyline
 90
2
 70
0
 10
8.673726
 20
82.614816
 30
0.0
 10
8.673726
 20
80.746500
 30
0.0
  0
LWPOLYLINE
  5
225
100
AcDbEntity
  8
text
 62
7
100
AcDbPolyline
 90
10
 70
0
 10
9.382101
 20
82.614816
 30
0.0
 10
9.382101
 20
81.279901
 30
0.0
 10
9.472412
 20
81.013201
 30
0.0
 10
9.650212
 20
80.835400
 30
0.0
 10
9.918324
 20
80.746500
 30
0.0
 10
10.093303
 20
80.746500
 30
0.0
 10
10.361414
 20
80.835400
 30
0.0
 10
10.539215
 20
81.013201
 30
0.0
 10
10.629526
 20
81.279901
 30
0.0
 10
10.629526
 20
82.614816
 30
0.0
  0
LWPOLYLINE
  5
226
100
AcDbEntity
  8
text
 62
7
100
AcDbPolyline
 90
2
 70
0
 10
11.783803
 20
82.614816
 30
0.0
 10
11.072601
 20
80.746500
 30
0.0
  0
LWPOLYLINE
  5
227
100
AcDbEntity
  8
text
 62
7
100
AcDbPolyline
 90
2
 70
0
 10
11.783803
 20
82.614816
 30
0.0
 10
12.495005
 20
80.746500
 30
0.0
  0
LWPOLYLINE
  5
228
100
AcDbEntity
  8
text
 62
7
100
AcDbPolyline
 90
2
 70
0
 10
11.337891
 20
81.367391
 30
0.0
 10
12.229715
 20
81.367391
 30
0.0
  0
LWPOLYLINE
  5
229
100
AcDbEntity
  8
text
 62
7
100
AcDbPolyline
 90
2
 70
0
 10
13.293692
 20
82.614816
 30
0.0
 10
13.293692
 20
80.746500
 30
0.0
  0
LWPOLYLINE
  5
22a
100
AcDbEntity
  8
text
 62
7
100
AcDbPolyline
 90
2
 70
0
 10
12.672801
 20
82.614816
 30
0.0
 10
13.917404
 20
82.614816
 30
0.0
  0
LWPOLYLINE
  5
22b
100
AcDbEntity
  8
text
 62
7
100
AcDbPolyline
 90
2
 70
0
 10
14.360491
 20
82.614816
 30
0.0
 10
14.360491
 20
80.746500
 30
0.0
  0
LWPOLYLINE
  5
22c
100
AcDbEntity
  8
text
 62
7
100
AcDbPolyline
 90
2
 70
0
 10
14.360491
 20
82.614816
 30
0.0
 10
15.517605
 20
82.614816
 30
0.0
  0
LWPOLYLINE
  5
22d
100
AcDbEntity
  8
text
 62
7
100
AcDbPolyline
 90
2
 70
0
 10
14.360491
 20
81.722992
 30
0.0
 10
15.071693
 20
81.722992
 30
0.0
  0
LWPOLYLINE
  5
22e
100
AcDbEntity
  8
text
 62
7
100
AcDbPolyline
 90
2
 70
0
 10
14.360491
 20
80.746500
 30
0.0
 10
15.517605
 20
80.746500
 30
0.0
  0
LWPOLYLINE
  5
22f
100
AcDbEntity
  8
text
 62
7
100
AcDbPolyline
 90
20
 70
1
 10
27.739003
 20
46.896116
 30
0.0
 10
27.561202
 20
46.805805
 30
0.0
 10
27.383402
 20
46.628004
 30
0.0
 10
27.293091
 20
46.450204
 30
0.0
 10
27.205601
 20
46.184914
 30
0.0
 10
27.205601
 20
45.739002
 30
0.0
 10
27.293091
 20
45.473712
 30
0.0
 10
27.383402
 20
45.294501
 30
0.0
 10
27.561202
 20
45.116700
 30
0.0
 10
27.739003
 20
45.027800
 30
0.0
 10
28.094604
 20
45.027800
 30
0.0
 10
28.272404
 20
45.116700
 30
0.0
 10
28.450205
 20
45.294501
 30
0.0
 10
28.540516
 20
45.473712
 30
0.0
 10
28.628005
 20
45.739002
 30
0.0
 10
28.628005
 20
46.184914
 30
0.0
 10
28.540516
 20
46.450204
 30
0.0
 10
28.450205
 20
46.628004
 30
0.0
 10
28.272404
 20
46.805805
 30
0.0
 10
28.094604
 20
46.896116
 30
0.0
  0
LWPOLYLINE
  5
230
100
AcDbEntity
  8
text
 62
7
100
AcDbPolyline
 90
2
 70
0
 10
29.248901
 20
46.896116
 30
0.0
 10
29.248901
 20
45.027800
 30
0.0
  0
LWPOLYLINE
  5
231
100
AcDbEntity
  8
text
 62
7
100
AcDbPolyline
 90
2
 70
0
 10
29.248901
 20
46.896116
 30
0.0
 10
30.406015
 20
46.896116
 30
0.0
  0
LWPOLYLINE
  5
232
100
AcDbEntity
  8
text
 62
7
100
AcDbPolyline
 90
2
 70
0
 10
29.248901
 20
46.004292
 30
0.0
 10
29.960103
 20
46.004292
 30
0.0
  0
LWPOLYLINE
  5
233
100
AcDbEntity
  8
text
 62
7
100
AcDbPolyline
 90
2
 70
0
 10
30.849101
 20
46.896116
 30
0.0
 10
30.849101
 20
45.027800
 30
0.0
  0
LWPOLYLINE
  5
234
100
AcDbEntity
  8
text
 62
7
100
AcDbPolyline
 90
2
 70
0
 10
30.849101
 20
46.896116
 30
0.0
 10
32.006215
 20
46.896116
 30
0.0
  0
LWPOLYLINE
  5
235
100
AcDbEntity
  8
text
 62
7
100
AcDbPolyline
 90
2
 70
0
 10
30.849101
 20
46.004292
 30
0.0
 10
31.560303
 20
46.004292
 30
0.0
  0
LWPOLYLINE
  5
236
100
AcDbEntity
  8
text
 62
7
100
AcDbPolyline
 90
20
 70
0
 10
33.606415
 20
46.628004
 30
0.0
 10
33.428614
 20
46.805805
 30
0.0
 10
33.160503
 20
46.896116
 30
0.0
 10
32.804902
 20
46.896116
 30
0.0
 10
32.539612
 20
46.805805
 30
0.0
 10
32.361811
 20
46.628004
 30
0.0
 10
32.361811
 20
46.450204
 30
0.0
 10
32.449301
 20
46.272403
 30
0.0
 10
32.539612
 20
46.184914
 30
0.0
 10
32.717412
 20
46.094603
 30
0.0
 10
33.250814
 20
45.916802
 30
0.0
 10
33.428614
 20
45.829313
 30
0.0
 10
33.516104
 20
45.739002
 30
0.0
 10
33.606415
 20
45.561201
 30
0.0
 10
33.606415
 20
45.294501
 30
0.0
 10
33.428614
 20
45.116700
 30
0.0
 10
33.160503
 20
45.027800
 30
0.0
 10
32.804902
 20
45.027800
 30
0.0
 10
32.539612
 20
45.116700
 30
0.0
 10
32.361811
 20
45.294501
 30
0.0
  0
LWPOLYLINE
  5
237
100
AcDbEntity
  8
text
 62
7
100
AcDbPolyline
 90
2
 70
0
 10
34.227311
 20
46.896116
 30
0.0
 10
34.227311
 20
45.027800
 30
0.0
  0
LWPOLYLINE
  5
238
100
AcDbEntity
  8
text
 62
7
100
AcDbPolyline
 90
2
 70
0
 10
34.227311
 20
46.896116
 30
0.0
 10
35.384425
 20
46.896116
 30
0.0
  0
LWPOLYLINE
  5
239
100
AcDbEntity
  8
text
 62
7
100
AcDbPolyline
 90
2
 70
0
 10
34.227311
 20
46.004292
 30
0.0
 10
34.938513
 20
46.004292
 30
0.0
  0
LWPOLYLINE
  5
23a
100
AcDbEntity
  8
text
 62
7
100
AcDbPolyline
 90
2
 70
0
 10
34.227311
 20
45.027800
 30
0.0
 10
35.384425
 20
45.027800
 30
0.0
  0
LWPOLYLINE
  5
23b
100
AcDbEntity
  8
text
 62
7
100
AcDbPolyline
 90
2
 70
0
 10
36.270602
 20
46.896116
 30
0.0
 10
36.270602
 20
45.027800
 30
0.0
  0
LWPOLYLINE
  5
23c
100
AcDbEntity
  8
text
 62
7
100
AcDbPolyline
 90
2
 70
0
 10
35.649711
 20
46.896116
 30
0.0
 10
36.894314
 20
46.896116
 30
0.0
  0
LWPOLYLINE
  5
23d
100
AcDbEntity
  8
text
 62
7
100
AcDbPolyline
 90
2
 70
0
 10
1.739503
 20
46.896116
 30
0.0
 10
1.028301
 20
45.027800
 30
0.0
  0
LWPOLYLINE
  5
23e
100
AcDbEntity
  8
text
 62
7
100
AcDbPolyline
 90
2
 70
0
 10
1.739503
 20
46.896116
 30
0.0
 10
2.450705
 20
45.027800
 30
0.0
  0
LWPOLYLINE
  5
23f
100
AcDbEntity
  8
text
 62
7
100
AcDbPolyline
 90
2
 70
0
 10
1.293591
 20
45.648691
 30
0.0
 10
2.185415
 20
45.648691
 30
0.0
  0
LWPOLYLINE
  5
240
100
AcDbEntity
  8
text
 62
7
100
AcDbPolyline
 90
2
 70
0
 10
3.249392
 20
46.896116
 30
0.0
 10
3.249392
 20
45.027800
 30
0.0
  0
LWPOLYLINE
  5
241
100
AcDbEntity
  8
text
 62
7
100
AcDbPolyline
 90
2
 70
0
 10
2.628501
 20
46.896116
 30
0.0
 10
3.873104
 20
46.896116
 30
0.0
  0
LWPOLYLINE
  5
242
100
AcDbEntity
  8
text
 62
7
100
AcDbPolyline
 90
2
 70
0
 10
4.671802
 20
46.896116
 30
0.0
 10
4.671802
 20
45.027800
 30
0.0
  0
LWPOLYLINE
  5
243
100
AcDbEntity
  8
text
 62
7
100
AcDbPolyline
 90
2
 70
0
 10
4.050911
 20
46.896116
 30
0.0
 10
5.295514
 20
46.896116
 30
0.0
  0
LWPOLYLINE
  5
244
100
AcDbEntity
  8
text
 62
7
100
AcDbPolyline
 90
2
 70
0
 10
5.738601
 20
46.896116
 30
0.0
 10
5.738601
 20
45.027800
 30
0.0
  0
LWPOLYLINE
  5
245
100
AcDbEntity
  8
text
 62
7
100
AcDbPolyline
 90
2
 70
0
 10
5.738601
 20
46.896116
 30
0.0
 10
6.895715
 20
46.896116
 30
0.0
  0
LWPOLYLINE
  5
246
100
AcDbEntity
  8
text
 62
7
100
AcDbPolyline
 90
2
 70
0
 10
5.738601
 20
46.004292
 30
0.0
 10
6.449803
 20
46.004292
 30
0.0
  0
LWPOLYLINE
  5
247
100
AcDbEntity
  8
text
 62
7
100
AcDbPolyline
 90
2
 70
0
 10
5.738601
 20
45.027800
 30
0.0
 10
6.895715
 20
45.027800
 30
0.0
  0
LWPOLYLINE
  5
248
100
AcDbEntity
  8
text
 62
7
100
AcDbPolyline
 90
2
 70
0
 10
7.426301
 20
46.896116
 30
0.0
 10
7.426301
 20
45.027800
 30
0.0
  0
LWPOLYLINE
  5
249
100
AcDbEntity
  8
text
 62
7
100
AcDbPolyline
 90
2
 70
0
 10
7.426301
 20
46.896116
 30
0.0
 10
8.673726
 20
45.027800
 30
0.0
  0
LWPOLYLINE
  5
24a
100
AcDbEntity
  8
text
 62
7
100
AcDbPolyline
 90
2
 70
0
 10
8.673726
 20
46.896116
 30
0.0
 10
8.673726
 20
45.027800
 30
0.0
  0
LWPOLYLINE
  5
24b
100
AcDbEntity
  8
text
 62
7
100
AcDbPolyline
 90
10
 70
0
 10
9.382101
 20
46.896116
 30
0.0
 10
9.382101
 20
45.561201
 30
0.0
 10
9.472412
 20
45.294501
 30
0.0
 10
9.650212
 20
45.116700
 30
0.0
 10
9.918324
 20
45.027800
 30
0.0
 10
10.093303
 20
45.027800
 30
0.0
 10
10.361414
 20
45.116700
 30
0.0
 10
10.539215
 20
45.294501
 30
0.0
 10
10.629526
 20
45.561201
 30
0.0
 10
10.629526
 20
46.896116
 30
0.0
  0
LWPOLYLINE
  5
24c
100
AcDbEntity
  8
text
 62
7
100
AcDbPolyline
 90
2
 70
0
 10
11.783803
 20
46.896116
 30
0.0
 10
11.072601
 20
45.027800
 30
0.0
  0
LWPOLYLINE
  5
24d
100
AcDbEntity
  8
text
 62
7
100
AcDbPolyline
 90
2
 70
0
 10
11.783803
 20
46.896116
 30
0.0
 10
12.495005
 20
45.027800
 30
0.0
  0
LWPOLYLINE
  5
24e
100
AcDbEntity
  8
text
 62
7
100
AcDbPolyline
 90
2
 70
0
 10
11.337891
 20
45.648691
 30
0.0
 10
12.229715
 20
45.648691
 30
0.0
  0
LWPOLYLINE
  5
24f
100
AcDbEntity
  8
text
 62
7
100
AcDbPolyline
 90
2
 70
0
 10
13.293692
 20
46.896116
 30
0.0
 10
13.293692
 20
45.027800
 30
0.0
  0
LWPOLYLINE
  5
250
100
AcDbEntity
  8
text
 62
7
100
AcDbPolyline
 90
2
 70
0
 10
12.672801
 20
46.896116
 30
0.0
 10
13.917404
 20
46.896116
 30
0.0
  0
LWPOLYLINE
  5
251
100
AcDbEntity
  8
text
 62
7
100
AcDbPolyline
 90
2
 70
0
 10
14.360491
 20
46.896116
 30
0.0
 10
14.360491
 20
45.027800
 30
0.0
  0
LWPOLYLINE
  5
252
100
AcDbEntity
  8
text
 62
7
100
AcDbPolyline
 90
2
 70
0
 10
14.360491
 20
46.896116
 30
0.0
 10
15.517605
 20
46.896116
 30
0.0
  0
LWPOLYLINE
  5
253
100
AcDbEntity
  8
text
 62
7
100
AcDbPolyline
 90
2
 70
0
 10
14.360491
 20
46.004292
 30
0.0
 10
15.071693
 20
46.004292
 30
0.0
  0
LWPOLYLINE
  5
254
100
AcDbEntity
  8
text
 62
7
100
AcDbPolyline
 90
2
 70
0
 10
14.360491
 20
45.027800
 30
0.0
 10
15.517605
 20
45.027800
 30
0.0
  0
LWPOLYLINE
  5
255
100
AcDbEntity
  8
text
 62
7
100
AcDbPolyline
 90
2
 70
0
 10
7.070691
 20
62.652916
 30
0.0
 10
7.070691
 20
60.784600
 30
0.0
  0
LWPOLYLINE
  5
256
100
AcDbEntity
  8
text
 62
7
100
AcDbPolyline
 90
2
 70
0
 10
7.781893
 20
62.652916
 30
0.0
 10
7.781893
 20
60.784600
 30
0.0
  0
LWPOLYLINE
  5
257
100
AcDbEntity
  8
text
 62
7
100
AcDbPolyline
 90
2
 70
0
 10
7.781893
 20
62.652916
 30
0.0
 10
9.029318
 20
60.784600
 30
0.0
  0
LWPOLYLINE
  5
258
100
AcDbEntity
  8
text
 62
7
100
AcDbPolyline
 90
2
 70
0
 10
9.029318
 20
62.652916
 30
0.0
 10
9.029318
 20
60.784600
 30
0.0
  0
LWPOLYLINE
  5
259
100
AcDbEntity
  8
text
 62
7
100
AcDbPolyline
 90
20
 70
1
 10
29.916403
 20
62.652916
 30
0.0
 10
29.738602
 20
62.562605
 30
0.0
 10
29.560802
 20
62.384804
 30
0.0
 10
29.470491
 20
62.207004
 30
0.0
 10
29.383001
 20
61.941714
 30
0.0
 10
29.383001
 20
61.495802
 30
0.0
 10
29.470491
 20
61.230512
 30
0.0
 10
29.560802
 20
61.051301
 30
0.0
 10
29.738602
 20
60.873500
 30
0.0
 10
29.916403
 20
60.784600
 30
0.0
 10
30.272004
 20
60.784600
 30
0.0
 10
30.449804
 20
60.873500
 30
0.0
 10
30.627605
 20
61.051301
 30
0.0
 10
30.717916
 20
61.230512
 30
0.0
 10
30.805405
 20
61.495802
 30
0.0
 10
30.805405
 20
61.941714
 30
0.0
 10
30.717916
 20
62.207004
 30
0.0
 10
30.627605
 20
62.384804
 30
0.0
 10
30.449804
 20
62.562605
 30
0.0
 10
30.272004
 20
62.652916
 30
0.0
  0
LWPOLYLINE
  5
25a
100
AcDbEntity
  8
text
 62
7
100
AcDbPolyline
 90
10
 70
0
 10
31.426301
 20
62.652916
 30
0.0
 10
31.426301
 20
61.318001
 30
0.0
 10
31.516612
 20
61.051301
 30
0.0
 10
31.694412
 20
60.873500
 30
0.0
 10
31.962524
 20
60.784600
 30
0.0
 10
32.137503
 20
60.784600
 30
0.0
 10
32.405614
 20
60.873500
 30
0.0
 10
32.583415
 20
61.051301
 30
0.0
 10
32.673726
 20
61.318001
 30
0.0
 10
32.673726
 20
62.652916
 30
0.0
  0
LWPOLYLINE
  5
25b
100
AcDbEntity
  8
text
 62
7
100
AcDbPolyline
 90
2
 70
0
 10
33.737702
 20
62.652916
 30
0.0
 10
33.737702
 20
60.784600
 30
0.0
  0
LWPOLYLINE
  5
25c
100
AcDbEntity
  8
text
 62
7
100
AcDbPolyline
 90
2
 70
0
 10
33.116811
 20
62.652916
 30
0.0
 10
34.361414
 20
62.652916
 30
0.0
  0
LWPOLYLINE
  5
25d
100
AcDbEntity
  8
text
 62
7
100
AcDbPolyline
 90
2
 70
0
 10
7.070691
 20
26.863316
 30
0.0
 10
7.070691
 20
24.995000
 30
0.0
  0
LWPOLYLINE
  5
25e
100
AcDbEntity
  8
text
 62
7
100
AcDbPolyline
 90
2
 70
0
 10
7.781893
 20
26.863316
 30
0.0
 10
7.781893
 20
24.995000
 30
0.0
  0
LWPOLYLINE
  5
25f
100
AcDbEntity
  8
text
 62
7
100
AcDbPolyline
 90
2
 70
0
 10
7.781893
 20
26.863316
 30
0.0
 10
9.029318
 20
24.995000
 30
0.0
  0
LWPOLYLINE
  5
260
100
AcDbEntity
  8
text
 62
7
100
AcDbPolyline
 90
2
 70
0
 10
9.029318
 20
26.863316
 30
0.0
 10
9.029318
 20
24.995000
 30
0.0
  0
LWPOLYLINE
  5
261
100
AcDbEntity
  8
text
 62
7
100
AcDbPolyline
 90
20
 70
1
 10
29.916403
 20
26.863316
 30
0.0
 10
29.738602
 20
26.773005
 30
0.0
 10
29.560802
 20
26.595204
 30
0.0
 10
29.470491
 20
26.417404
 30
0.0
 10
29.383001
 20
26.152114
 30
0.0
 10
29.383001
 20
25.706202
 30
0.0
 10
29.470491
 20
25.440912
 30
0.0
 10
29.560802
 20
25.261701
 30
0.0
 10
29.738602
 20
25.083900
 30
0.0
 10
29.916403
 20
24.995000
 30
0.0
 10
30.272004
 20
24.995000
 30
0.0
 10
30.449804
 20
25.083900
 30
0.0
 10
30.627605
 20
25.261701
 30
0.0
 10
30.717916
 20
25.440912
 30
0.0
 10
30.805405
 20
25.706202
 30
0.0
 10
30.805405
 20
26.152114
 30
0.0
 10
30.717916
 20
26.417404
 30
0.0
 10
30.627605
 20
26.595204
 30
0.0
 10
30.449804
 20
26.773005
 30
0.0
 10
30.272004
 20
26.863316
 30
0.0
  0
LWPOLYLINE
  5
262
100
AcDbEntity
  8
text
 62
7
100
AcDbPolyline
 90
10
 70
0
 10
31.426301
 20
26.863316
 30
0.0
 10
31.426301
 20
25.528401
 30
0.0
 10
31.516612
 20
25.261701
 30
0.0
 10
31.694412
 20
25.083900
 30
0.0
 10
31.962524
 20
24.995000
 30
0.0
 10
32.137503
 20
24.995000
 30
0.0
 10
32.405614
 20
25.083900
 30
0.0
 10
32.583415
 20
25.261701
 30
0.0
 10
32.673726
 20
25.528401
 30
0.0
 10
32.673726
 20
26.863316
 30
0.0
  0
LWPOLYLINE
  5
263
100
AcDbEntity
  8
text
 62
7
100
AcDbPolyline
 90
2
 70
0
 10
33.737702
 20
26.863316
 30
0.0
 10
33.737702
 20
24.995000
 30
0.0
  0
LWPOLYLINE
  5
264
100
AcDbEntity
  8
text
 62
7
100
AcDbPolyline
 90
2
 70
0
 10
33.116811
 20
26.863316
 30
0.0
 10
34.361414
 20
26.863316
 30
0.0
  0
ENDSEC
  0
SECTION
  2
OBJECTS
  0
DICTIONARY
  5
C
330
0
100
AcDbDictionary
  3
ACAD_GROUP
350
D
  3
ACAD_MLINESTYLE
350
17
  0
DICTIONARY
  5
D
330
C
100
AcDbDictionary
  0
DICTIONARY
  5
1A
330
C
100
AcDbDictionary
  0
DICTIONARY
  5
17
330
C
100
AcDbDictionary
  3
STANDARD
350
18
  0
DICTIONARY
  5
19
330
C
100
AcDbDictionary
  0
ENDSEC
  0
EOF
