  0
SECTION
  2
HEADER
  9
$ACADVER
  1
AC1014
  9
$HANDSEED
  5
FFFF
  9
$MEASUREMENT
 70
     1
  0
ENDSEC
  0
SECTION
  2
TABLES
  0
TABLE
  2
VPORT
  5
8
330
0
100
AcDbSymbolTable
 70
     4
  0
VPORT
  5
2E
330
8
100
AcDbSymbolTableRecord
100
AcDbViewportTableRecord
  2
*ACTIVE
 70
     0
 10
0.0
 20
0.0
 11
1.0
 21
1.0
 12
210.0
 22
148.5
 13
0.0
 23
0.0
 14
10.0
 24
10.0
 15
10.0
 25
10.0
 16
0.0
 26
0.0
 36
1.0
 17
0.0
 27
0.0
 37
0.0
 40
341.0
 41
1.24
 42
50.0
 43
0.0
 44
0.0
 50
0.0
 51
0.0
 71
     0
 72
   100
 73
     1
 74
     3
 75
     0
 76
     0
 77
     0
 78
     0
  0
ENDTAB
  0
TABLE
  2
LTYPE
  5
5
330
0
100
AcDbSymbolTable
 70
     1
  0
LTYPE
  5
14
330
5
100
AcDbSymbolTableRecord
100
AcDbLinetypeTableRecord
  2
BYBLOCK
 70
     0
  3

 72
    65
 73
     0
 40
0.0
  0
LTYPE
  5
15
330
5
100
AcDbSymbolTableRecord
100
AcDbLinetypeTableRecord
  2
BYLAYER
 70
     0
  3

 72
    65
 73
     0
 40
0.0
  0
LTYPE
  5
16
330
5
100
AcDbSymbolTableRecord
100
AcDbLinetypeTableRecord
  2
CONTINUOUS
 70
     0
  3
Solid line
 72
    65
 73
     0
 40
0.0
  0
ENDTAB
  0
TABLE
  2
LAYER
  5
2
100
AcDbSymbolTable
 70
4
  0
LAYER
  5
50
100
AcDbSymbolTableRecord
100
AcDbLayerTableRecord
  2
0
 70
0
  6
CONTINUOUS
  0
LAYER
  5
51
100
AcDbSymbolTableRecord
100
AcDbLayerTableRecord
  2
panel
 70
0
  6
CONTINUOUS
  0
LAYER
  5
52
100
AcDbSymbolTableRecord
100
AcDbLayerTableRecord
  2
Logo
 70
0
  6
CONTINUOUS
  0
LAYER
  5
53
100
AcDbSymbolTableRecord
100
AcDbLayerTableRecord
  2
text
 70
0
  6
CONTINUOUS
  0
ENDTAB
  0
TABLE
  2
STYLE
  5
3
330
0
100
AcDbSymbolTable
 70
     1
  0
STYLE
  5
11
330
3
100
AcDbSymbolTableRecord
100
AcDbTextStyleTableRecord
  2
STANDARD
 70
     0
 40
0.0
 41
1.0
 50
0.0
 71
     0
 42
2.5
  3
txt
  4

  0
ENDTAB
  0
TABLE
  2
VIEW
  5
6
330
0
100
AcDbSymbolTable
 70
     0
  0
ENDTAB
  0
TABLE
  2
UCS
  5
7
330
0
100
AcDbSymbolTable
 70
     0
  0
ENDTAB
  0
TABLE
  2
APPID
  5
9
330
0
100
AcDbSymbolTable
 70
     2
  0
APPID
  5
12
330
9
100
AcDbSymbolTableRecord
100
AcDbRegAppTableRecord
  2
ACAD
 70
     0
  0
ENDTAB
  0
TABLE
  2
DIMSTYLE
  5
A
330
0
100
AcDbSymbolTable
 70
     1
  0
DIMSTYLE
105
27
330
A
100
AcDbSymbolTableRecord
100
AcDbDimStyleTableRecord
  2
ISO-25
 70
     0
  3

  4

  5

  6

  7

 40
1.0
 41
2.5
 42
0.625
 43
3.75
 44
1.25
 45
0.0
 46
0.0
 47
0.0
 48
0.0
140
2.5
141
2.5
142
0.0
143
0.03937007874016
144
1.0
145
0.0
146
1.0
147
0.625
 71
     0
 72
     0
 73
     0
 74
     0
 75
     0
 76
     0
 77
     1
 78
     8
170
     0
171
     3
172
     1
173
     0
174
     0
175
     0
176
     0
177
     0
178
     0
270
     2
271
     2
272
     2
273
     2
274
     3
340
11
275
     0
280
     0
281
     0
282
     0
283
     0
284
     8
285
     0
286
     0
287
     3
288
     0
  0
ENDTAB
  0
TABLE
  2
BLOCK_RECORD
  5
1
330
0
100
AcDbSymbolTable
 70
     1
  0
BLOCK_RECORD
  5
1F
330
1
100
AcDbSymbolTableRecord
100
AcDbBlockTableRecord
  2
*MODEL_SPACE
  0
BLOCK_RECORD
  5
1B
330
1
100
AcDbSymbolTableRecord
100
AcDbBlockTableRecord
  2
*PAPER_SPACE
  0
ENDTAB
  0
ENDSEC
  0
SECTION
  2
BLOCKS
  0
BLOCK
  5
20
330
1F
100
AcDbEntity
  8
0
100
AcDbBlockBegin
  2
*MODEL_SPACE
 70
     0
 10
0.0
 20
0.0
 30
0.0
  3
*MODEL_SPACE
  1

  0
ENDBLK
  5
21
330
1F
100
AcDbEntity
  8
0
100
AcDbBlockEnd
  0
BLOCK
  5
1C
330
1B
100
AcDbEntity
 67
     1
  8
0
100
AcDbBlockBegin
  2
*PAPER_SPACE
  1

  0
ENDBLK
  5
1D
330
1B
100
AcDbEntity
 67
     1
  8
0
100
AcDbBlockEnd
  0
ENDSEC
  0
SECTION
  2
ENTITIES
  0
LINE
  5
100
100
AcDbEntity
  8
panel
 62
7
100
AcDbLine
 10
0.049838
 20
0.050322
 30
0.0
 11
40.049787
 21
0.050322
 31
0.0
  0
LINE
  5
101
100
AcDbEntity
  8
panel
 62
7
100
AcDbLine
 10
0.049838
 20
128.550160
 30
0.0
 11
0.049838
 21
0.050322
 31
0.0
  0
LINE
  5
102
100
AcDbEntity
  8
panel
 62
7
100
AcDbLine
 10
40.049787
 20
0.050322
 30
0.0
 11
40.049787
 21
128.550160
 31
0.0
  0
LINE
  5
103
100
AcDbEntity
  8
panel
 62
7
100
AcDbLine
 10
40.049787
 20
128.550160
 30
0.0
 11
0.049838
 21
128.550160
 31
0.0
  0
SPLINE
  5
104
100
AcDbEntity
  8
panel
 62
7
100
AcDbSpline
 70
8
 71
3
 72
8
 73
4
 74
0
 40
0
 40
0
 40
0
 40
0
 40
1
 40
1
 40
1
 40
1
 10
3.049833
 20
4.600316
 30
0.0
 10
2.194406
 20
4.599450
 30
0.0
 10
1.501404
 20
3.905747
 30
0.0
 10
1.501404
 20
3.050319
 30
0.0
  0
SPLINE
  5
105
100
AcDbEntity
  8
panel
 62
7
100
AcDbSpline
 70
8
 71
3
 72
8
 73
4
 74
0
 40
0
 40
0
 40
0
 40
0
 40
1
 40
1
 40
1
 40
1
 10
1.501404
 20
3.050319
 30
0.0
 10
1.501404
 20
2.194891
 30
0.0
 10
2.194406
 20
1.501187
 30
0.0
 10
3.049833
 20
1.500322
 30
0.0
  0
LINE
  5
106
100
AcDbEntity
  8
panel
 62
7
100
AcDbLine
 10
3.049833
 20
1.500322
 30
0.0
 11
6.149831
 21
1.500322
 31
0.0
  0
SPLINE
  5
107
100
AcDbEntity
  8
panel
 62
7
100
AcDbSpline
 70
8
 71
3
 72
8
 73
4
 74
0
 40
0
 40
0
 40
0
 40
0
 40
1
 40
1
 40
1
 40
1
 10
6.149831
 20
1.500322
 30
0.0
 10
7.005258
 20
1.501187
 30
0.0
 10
7.698260
 20
2.194891
 30
0.0
 10
7.698260
 20
3.050319
 30
0.0
  0
SPLINE
  5
108
100
AcDbEntity
  8
panel
 62
7
100
AcDbSpline
 70
8
 71
3
 72
8
 73
4
 74
0
 40
0
 40
0
 40
0
 40
0
 40
1
 40
1
 40
1
 40
1
 10
7.698260
 20
3.050319
 30
0.0
 10
7.698260
 20
3.905747
 30
0.0
 10
7.005258
 20
4.599450
 30
0.0
 10
6.149831
 20
4.600316
 30
0.0
  0
LINE
  5
109
100
AcDbEntity
  8
panel
 62
7
100
AcDbLine
 10
3.049833
 20
4.600316
 30
0.0
 11
6.149831
 21
4.600316
 31
0.0
  0
SPLINE
  5
10a
100
AcDbEntity
  8
panel
 62
7
100
AcDbSpline
 70
8
 71
3
 72
8
 73
4
 74
0
 40
0
 40
0
 40
0
 40
0
 40
1
 40
1
 40
1
 40
1
 10
11.199823
 20
19.800297
 30
0.0
 10
11.200476
 20
20.926117
 30
0.0
 10
10.600233
 20
21.966697
 30
0.0
 10
9.625353
 20
22.529795
 30
0.0
  0
SPLINE
  5
10b
100
AcDbEntity
  8
panel
 62
7
100
AcDbSpline
 70
8
 71
3
 72
8
 73
4
 74
0
 40
0
 40
0
 40
0
 40
0
 40
1
 40
1
 40
1
 40
1
 10
9.625353
 20
22.529795
 30
0.0
 10
8.650473
 20
23.092894
 30
0.0
 10
7.449182
 20
23.092894
 30
0.0
 10
6.474302
 20
22.529795
 30
0.0
  0
SPLINE
  5
10c
100
AcDbEntity
  8
panel
 62
7
100
AcDbSpline
 70
8
 71
3
 72
8
 73
4
 74
0
 40
0
 40
0
 40
0
 40
0
 40
1
 40
1
 40
1
 40
1
 10
6.474302
 20
22.529795
 30
0.0
 10
5.499422
 20
21.966697
 30
0.0
 10
4.899179
 20
20.926117
 30
0.0
 10
4.899832
 20
19.800297
 30
0.0
  0
SPLINE
  5
10d
100
AcDbEntity
  8
panel
 62
7
100
AcDbSpline
 70
8
 71
3
 72
8
 73
4
 74
0
 40
0
 40
0
 40
0
 40
0
 40
1
 40
1
 40
1
 40
1
 10
4.899832
 20
19.800297
 30
0.0
 10
4.899179
 20
18.674477
 30
0.0
 10
5.499422
 20
17.633898
 30
0.0
 10
6.474302
 20
17.070799
 30
0.0
  0
SPLINE
  5
10e
100
AcDbEntity
  8
panel
 62
7
100
AcDbSpline
 70
8
 71
3
 72
8
 73
4
 74
0
 40
0
 40
0
 40
0
 40
0
 40
1
 40
1
 40
1
 40
1
 10
6.474302
 20
17.070799
 30
0.0
 10
7.449182
 20
16.507701
 30
0.0
 10
8.650473
 20
16.507701
 30
0.0
 10
9.625353
 20
17.070799
 30
0.0
  0
SPLINE
  5
10f
100
AcDbEntity
  8
panel
 62
7
100
AcDbSpline
 70
8
 71
3
 72
8
 73
4
 74
0
 40
0
 40
0
 40
0
 40
0
 40
1
 40
1
 40
1
 40
1
 10
9.625353
 20
17.070799
 30
0.0
 10
10.600233
 20
17.633898
 30
0.0
 10
11.200476
 20
18.674477
 30
0.0
 10
11.199823
 20
19.800297
 30
0.0
  0
LINE
  5
110
100
AcDbEntity
  8
panel
 62
7
100
AcDbLine
 10
11.199823
 20
19.800297
 30
0.0
 11
11.199823
 21
19.800297
 31
0.0
  0
SPLINE
  5
111
100
AcDbEntity
  8
panel
 62
7
100
AcDbSpline
 70
8
 71
3
 72
8
 73
4
 74
0
 40
0
 40
0
 40
0
 40
0
 40
1
 40
1
 40
1
 40
1
 10
11.699824
 20
37.300275
 30
0.0
 10
11.700321
 20
38.604623
 30
0.0
 10
11.004744
 20
39.810104
 30
0.0
 10
9.875228
 20
40.462422
 30
0.0
  0
SPLINE
  5
112
100
AcDbEntity
  8
panel
 62
7
100
AcDbSpline
 70
8
 71
3
 72
8
 73
4
 74
0
 40
0
 40
0
 40
0
 40
0
 40
1
 40
1
 40
1
 40
1
 10
9.875228
 20
40.462422
 30
0.0
 10
8.745711
 20
41.114739
 30
0.0
 10
7.353946
 20
41.114739
 30
0.0
 10
6.224430
 20
40.462422
 30
0.0
  0
SPLINE
  5
113
100
AcDbEntity
  8
panel
 62
7
100
AcDbSpline
 70
8
 71
3
 72
8
 73
4
 74
0
 40
0
 40
0
 40
0
 40
0
 40
1
 40
1
 40
1
 40
1
 10
6.224430
 20
40.462422
 30
0.0
 10
5.094914
 20
39.810104
 30
0.0
 10
4.399337
 20
38.604623
 30
0.0
 10
4.399834
 20
37.300275
 30
0.0
  0
SPLINE
  5
114
100
AcDbEntity
  8
panel
 62
7
100
AcDbSpline
 70
8
 71
3
 72
8
 73
4
 74
0
 40
0
 40
0
 40
0
 40
0
 40
1
 40
1
 40
1
 40
1
 10
4.399834
 20
37.300275
 30
0.0
 10
4.399337
 20
35.995926
 30
0.0
 10
5.094914
 20
34.790446
 30
0.0
 10
6.224430
 20
34.138128
 30
0.0
  0
SPLINE
  5
115
100
AcDbEntity
  8
panel
 62
7
100
AcDbSpline
 70
8
 71
3
 72
8
 73
4
 74
0
 40
0
 40
0
 40
0
 40
0
 40
1
 40
1
 40
1
 40
1
 10
6.224430
 20
34.138128
 30
0.0
 10
7.353946
 20
33.485810
 30
0.0
 10
8.745711
 20
33.485810
 30
0.0
 10
9.875228
 20
34.138128
 30
0.0
  0
SPLINE
  5
116
100
AcDbEntity
  8
panel
 62
7
100
AcDbSpline
 70
8
 71
3
 72
8
 73
4
 74
0
 40
0
 40
0
 40
0
 40
0
 40
1
 40
1
 40
1
 40
1
 10
9.875228
 20
34.138128
 30
0.0
 10
11.004744
 20
34.790446
 30
0.0
 10
11.700321
 20
35.995926
 30
0.0
 10
11.699824
 20
37.300275
 30
0.0
  0
LINE
  5
117
100
AcDbEntity
  8
panel
 62
7
100
AcDbLine
 10
11.699824
 20
37.300275
 30
0.0
 11
11.699824
 21
37.300275
 31
0.0
  0
SPLINE
  5
118
100
AcDbEntity
  8
panel
 62
7
100
AcDbSpline
 70
8
 71
3
 72
8
 73
4
 74
0
 40
0
 40
0
 40
0
 40
0
 40
1
 40
1
 40
1
 40
1
 10
11.199823
 20
55.550252
 30
0.0
 10
11.200476
 20
56.676072
 30
0.0
 10
10.600233
 20
57.716652
 30
0.0
 10
9.625353
 20
58.279750
 30
0.0
  0
SPLINE
  5
119
100
AcDbEntity
  8
panel
 62
7
100
AcDbSpline
 70
8
 71
3
 72
8
 73
4
 74
0
 40
0
 40
0
 40
0
 40
0
 40
1
 40
1
 40
1
 40
1
 10
9.625353
 20
58.279750
 30
0.0
 10
8.650473
 20
58.842849
 30
0.0
 10
7.449182
 20
58.842849
 30
0.0
 10
6.474302
 20
58.279750
 30
0.0
  0
SPLINE
  5
11a
100
AcDbEntity
  8
panel
 62
7
100
AcDbSpline
 70
8
 71
3
 72
8
 73
4
 74
0
 40
0
 40
0
 40
0
 40
0
 40
1
 40
1
 40
1
 40
1
 10
6.474302
 20
58.279750
 30
0.0
 10
5.499422
 20
57.716652
 30
0.0
 10
4.899179
 20
56.676072
 30
0.0
 10
4.899832
 20
55.550252
 30
0.0
  0
SPLINE
  5
11b
100
AcDbEntity
  8
panel
 62
7
100
AcDbSpline
 70
8
 71
3
 72
8
 73
4
 74
0
 40
0
 40
0
 40
0
 40
0
 40
1
 40
1
 40
1
 40
1
 10
4.899832
 20
55.550252
 30
0.0
 10
4.899179
 20
54.424432
 30
0.0
 10
5.499422
 20
53.383853
 30
0.0
 10
6.474302
 20
52.820754
 30
0.0
  0
SPLINE
  5
11c
100
AcDbEntity
  8
panel
 62
7
100
AcDbSpline
 70
8
 71
3
 72
8
 73
4
 74
0
 40
0
 40
0
 40
0
 40
0
 40
1
 40
1
 40
1
 40
1
 10
6.474302
 20
52.820754
 30
0.0
 10
7.449182
 20
52.257656
 30
0.0
 10
8.650473
 20
52.257656
 30
0.0
 10
9.625353
 20
52.820754
 30
0.0
  0
SPLINE
  5
11d
100
AcDbEntity
  8
panel
 62
7
100
AcDbSpline
 70
8
 71
3
 72
8
 73
4
 74
0
 40
0
 40
0
 40
0
 40
0
 40
1
 40
1
 40
1
 40
1
 10
9.625353
 20
52.820754
 30
0.0
 10
10.600233
 20
53.383853
 30
0.0
 10
11.200476
 20
54.424432
 30
0.0
 10
11.199823
 20
55.550252
 30
0.0
  0
LINE
  5
11e
100
AcDbEntity
  8
panel
 62
7
100
AcDbLine
 10
11.199823
 20
55.550252
 30
0.0
 11
11.199823
 21
55.550252
 31
0.0
  0
SPLINE
  5
11f
100
AcDbEntity
  8
panel
 62
7
100
AcDbSpline
 70
8
 71
3
 72
8
 73
4
 74
0
 40
0
 40
0
 40
0
 40
0
 40
1
 40
1
 40
1
 40
1
 10
33.949797
 20
4.600316
 30
0.0
 10
33.094369
 20
4.599450
 30
0.0
 10
32.401367
 20
3.905747
 30
0.0
 10
32.401367
 20
3.050319
 30
0.0
  0
SPLINE
  5
120
100
AcDbEntity
  8
panel
 62
7
100
AcDbSpline
 70
8
 71
3
 72
8
 73
4
 74
0
 40
0
 40
0
 40
0
 40
0
 40
1
 40
1
 40
1
 40
1
 10
32.401367
 20
3.050319
 30
0.0
 10
32.401367
 20
2.194891
 30
0.0
 10
33.094369
 20
1.501187
 30
0.0
 10
33.949797
 20
1.500322
 30
0.0
  0
LINE
  5
121
100
AcDbEntity
  8
panel
 62
7
100
AcDbLine
 10
33.949797
 20
1.500322
 30
0.0
 11
37.049791
 21
1.500322
 31
0.0
  0
SPLINE
  5
122
100
AcDbEntity
  8
panel
 62
7
100
AcDbSpline
 70
8
 71
3
 72
8
 73
4
 74
0
 40
0
 40
0
 40
0
 40
0
 40
1
 40
1
 40
1
 40
1
 10
37.049791
 20
1.500322
 30
0.0
 10
37.905219
 20
1.501187
 30
0.0
 10
38.598221
 20
2.194891
 30
0.0
 10
38.598221
 20
3.050319
 30
0.0
  0
SPLINE
  5
123
100
AcDbEntity
  8
panel
 62
7
100
AcDbSpline
 70
8
 71
3
 72
8
 73
4
 74
0
 40
0
 40
0
 40
0
 40
0
 40
1
 40
1
 40
1
 40
1
 10
38.598221
 20
3.050319
 30
0.0
 10
38.598221
 20
3.905747
 30
0.0
 10
37.905219
 20
4.599450
 30
0.0
 10
37.049791
 20
4.600316
 30
0.0
  0
LINE
  5
124
100
AcDbEntity
  8
panel
 62
7
100
AcDbLine
 10
33.949797
 20
4.600316
 30
0.0
 11
37.049791
 21
4.600316
 31
0.0
  0
SPLINE
  5
125
100
AcDbEntity
  8
panel
 62
7
100
AcDbSpline
 70
8
 71
3
 72
8
 73
4
 74
0
 40
0
 40
0
 40
0
 40
0
 40
1
 40
1
 40
1
 40
1
 10
35.199792
 20
19.800297
 30
0.0
 10
35.200445
 20
20.926117
 30
0.0
 10
34.600202
 20
21.966697
 30
0.0
 10
33.625322
 20
22.529795
 30
0.0
  0
SPLINE
  5
126
100
AcDbEntity
  8
panel
 62
7
100
AcDbSpline
 70
8
 71
3
 72
8
 73
4
 74
0
 40
0
 40
0
 40
0
 40
0
 40
1
 40
1
 40
1
 40
1
 10
33.625322
 20
22.529795
 30
0.0
 10
32.650442
 20
23.092894
 30
0.0
 10
31.449152
 20
23.092894
 30
0.0
 10
30.474272
 20
22.529795
 30
0.0
  0
SPLINE
  5
127
100
AcDbEntity
  8
panel
 62
7
100
AcDbSpline
 70
8
 71
3
 72
8
 73
4
 74
0
 40
0
 40
0
 40
0
 40
0
 40
1
 40
1
 40
1
 40
1
 10
30.474272
 20
22.529795
 30
0.0
 10
29.499392
 20
21.966697
 30
0.0
 10
28.899149
 20
20.926117
 30
0.0
 10
28.899801
 20
19.800297
 30
0.0
  0
SPLINE
  5
128
100
AcDbEntity
  8
panel
 62
7
100
AcDbSpline
 70
8
 71
3
 72
8
 73
4
 74
0
 40
0
 40
0
 40
0
 40
0
 40
1
 40
1
 40
1
 40
1
 10
28.899801
 20
19.800297
 30
0.0
 10
28.899149
 20
18.674477
 30
0.0
 10
29.499392
 20
17.633898
 30
0.0
 10
30.474272
 20
17.070799
 30
0.0
  0
SPLINE
  5
129
100
AcDbEntity
  8
panel
 62
7
100
AcDbSpline
 70
8
 71
3
 72
8
 73
4
 74
0
 40
0
 40
0
 40
0
 40
0
 40
1
 40
1
 40
1
 40
1
 10
30.474272
 20
17.070799
 30
0.0
 10
31.449152
 20
16.507701
 30
0.0
 10
32.650442
 20
16.507701
 30
0.0
 10
33.625322
 20
17.070799
 30
0.0
  0
SPLINE
  5
12a
100
AcDbEntity
  8
panel
 62
7
100
AcDbSpline
 70
8
 71
3
 72
8
 73
4
 74
0
 40
0
 40
0
 40
0
 40
0
 40
1
 40
1
 40
1
 40
1
 10
33.625322
 20
17.070799
 30
0.0
 10
34.600202
 20
17.633898
 30
0.0
 10
35.200445
 20
18.674477
 30
0.0
 10
35.199792
 20
19.800297
 30
0.0
  0
LINE
  5
12b
100
AcDbEntity
  8
panel
 62
7
100
AcDbLine
 10
35.199792
 20
19.800297
 30
0.0
 11
35.199792
 21
19.800297
 31
0.0
  0
SPLINE
  5
12c
100
AcDbEntity
  8
panel
 62
7
100
AcDbSpline
 70
8
 71
3
 72
8
 73
4
 74
0
 40
0
 40
0
 40
0
 40
0
 40
1
 40
1
 40
1
 40
1
 10
35.699794
 20
37.300275
 30
0.0
 10
35.700290
 20
38.604623
 30
0.0
 10
35.004714
 20
39.810104
 30
0.0
 10
33.875197
 20
40.462422
 30
0.0
  0
SPLINE
  5
12d
100
AcDbEntity
  8
panel
 62
7
100
AcDbSpline
 70
8
 71
3
 72
8
 73
4
 74
0
 40
0
 40
0
 40
0
 40
0
 40
1
 40
1
 40
1
 40
1
 10
33.875197
 20
40.462422
 30
0.0
 10
32.745681
 20
41.114739
 30
0.0
 10
31.353916
 20
41.114739
 30
0.0
 10
30.224399
 20
40.462422
 30
0.0
  0
SPLINE
  5
12e
100
AcDbEntity
  8
panel
 62
7
100
AcDbSpline
 70
8
 71
3
 72
8
 73
4
 74
0
 40
0
 40
0
 40
0
 40
0
 40
1
 40
1
 40
1
 40
1
 10
30.224399
 20
40.462422
 30
0.0
 10
29.094883
 20
39.810104
 30
0.0
 10
28.399306
 20
38.604623
 30
0.0
 10
28.399803
 20
37.300275
 30
0.0
  0
SPLINE
  5
12f
100
AcDbEntity
  8
panel
 62
7
100
AcDbSpline
 70
8
 71
3
 72
8
 73
4
 74
0
 40
0
 40
0
 40
0
 40
0
 40
1
 40
1
 40
1
 40
1
 10
28.399803
 20
37.300275
 30
0.0
 10
28.399306
 20
35.995926
 30
0.0
 10
29.094883
 20
34.790446
 30
0.0
 10
30.224399
 20
34.138128
 30
0.0
  0
SPLINE
  5
130
100
AcDbEntity
  8
panel
 62
7
100
AcDbSpline
 70
8
 71
3
 72
8
 73
4
 74
0
 40
0
 40
0
 40
0
 40
0
 40
1
 40
1
 40
1
 40
1
 10
30.224399
 20
34.138128
 30
0.0
 10
31.353916
 20
33.485810
 30
0.0
 10
32.745681
 20
33.485810
 30
0.0
 10
33.875197
 20
34.138128
 30
0.0
  0
SPLINE
  5
131
100
AcDbEntity
  8
panel
 62
7
100
AcDbSpline
 70
8
 71
3
 72
8
 73
4
 74
0
 40
0
 40
0
 40
0
 40
0
 40
1
 40
1
 40
1
 40
1
 10
33.875197
 20
34.138128
 30
0.0
 10
35.004714
 20
34.790446
 30
0.0
 10
35.700290
 20
35.995926
 30
0.0
 10
35.699794
 20
37.300275
 30
0.0
  0
LINE
  5
132
100
AcDbEntity
  8
panel
 62
7
100
AcDbLine
 10
35.699794
 20
37.300275
 30
0.0
 11
35.699794
 21
37.300275
 31
0.0
  0
SPLINE
  5
133
100
AcDbEntity
  8
panel
 62
7
100
AcDbSpline
 70
8
 71
3
 72
8
 73
4
 74
0
 40
0
 40
0
 40
0
 40
0
 40
1
 40
1
 40
1
 40
1
 10
35.199792
 20
55.550252
 30
0.0
 10
35.200445
 20
56.676072
 30
0.0
 10
34.600202
 20
57.716652
 30
0.0
 10
33.625322
 20
58.279750
 30
0.0
  0
SPLINE
  5
134
100
AcDbEntity
  8
panel
 62
7
100
AcDbSpline
 70
8
 71
3
 72
8
 73
4
 74
0
 40
0
 40
0
 40
0
 40
0
 40
1
 40
1
 40
1
 40
1
 10
33.625322
 20
58.279750
 30
0.0
 10
32.650442
 20
58.842849
 30
0.0
 10
31.449152
 20
58.842849
 30
0.0
 10
30.474272
 20
58.279750
 30
0.0
  0
SPLINE
  5
135
100
AcDbEntity
  8
panel
 62
7
100
AcDbSpline
 70
8
 71
3
 72
8
 73
4
 74
0
 40
0
 40
0
 40
0
 40
0
 40
1
 40
1
 40
1
 40
1
 10
30.474272
 20
58.279750
 30
0.0
 10
29.499392
 20
57.716652
 30
0.0
 10
28.899149
 20
56.676072
 30
0.0
 10
28.899801
 20
55.550252
 30
0.0
  0
SPLINE
  5
136
100
AcDbEntity
  8
panel
 62
7
100
AcDbSpline
 70
8
 71
3
 72
8
 73
4
 74
0
 40
0
 40
0
 40
0
 40
0
 40
1
 40
1
 40
1
 40
1
 10
28.899801
 20
55.550252
 30
0.0
 10
28.899149
 20
54.424432
 30
0.0
 10
29.499392
 20
53.383853
 30
0.0
 10
30.474272
 20
52.820754
 30
0.0
  0
SPLINE
  5
137
100
AcDbEntity
  8
panel
 62
7
100
AcDbSpline
 70
8
 71
3
 72
8
 73
4
 74
0
 40
0
 40
0
 40
0
 40
0
 40
1
 40
1
 40
1
 40
1
 10
30.474272
 20
52.820754
 30
0.0
 10
31.449152
 20
52.257656
 30
0.0
 10
32.650442
 20
52.257656
 30
0.0
 10
33.625322
 20
52.820754
 30
0.0
  0
SPLINE
  5
138
100
AcDbEntity
  8
panel
 62
7
100
AcDbSpline
 70
8
 71
3
 72
8
 73
4
 74
0
 40
0
 40
0
 40
0
 40
0
 40
1
 40
1
 40
1
 40
1
 10
33.625322
 20
52.820754
 30
0.0
 10
34.600202
 20
53.383853
 30
0.0
 10
35.200445
 20
54.424432
 30
0.0
 10
35.199792
 20
55.550252
 30
0.0
  0
LINE
  5
139
100
AcDbEntity
  8
panel
 62
7
100
AcDbLine
 10
35.199792
 20
55.550252
 30
0.0
 11
35.199792
 21
55.550252
 31
0.0
  0
SPLINE
  5
13a
100
AcDbEntity
  8
panel
 62
7
100
AcDbSpline
 70
8
 71
3
 72
8
 73
4
 74
0
 40
0
 40
0
 40
0
 40
0
 40
1
 40
1
 40
1
 40
1
 10
11.699824
 20
73.050230
 30
0.0
 10
11.700321
 20
74.354578
 30
0.0
 10
11.004744
 20
75.560059
 30
0.0
 10
9.875228
 20
76.212377
 30
0.0
  0
SPLINE
  5
13b
100
AcDbEntity
  8
panel
 62
7
100
AcDbSpline
 70
8
 71
3
 72
8
 73
4
 74
0
 40
0
 40
0
 40
0
 40
0
 40
1
 40
1
 40
1
 40
1
 10
9.875228
 20
76.212377
 30
0.0
 10
8.745711
 20
76.864694
 30
0.0
 10
7.353946
 20
76.864694
 30
0.0
 10
6.224430
 20
76.212377
 30
0.0
  0
SPLINE
  5
13c
100
AcDbEntity
  8
panel
 62
7
100
AcDbSpline
 70
8
 71
3
 72
8
 73
4
 74
0
 40
0
 40
0
 40
0
 40
0
 40
1
 40
1
 40
1
 40
1
 10
6.224430
 20
76.212377
 30
0.0
 10
5.094914
 20
75.560059
 30
0.0
 10
4.399337
 20
74.354578
 30
0.0
 10
4.399834
 20
73.050230
 30
0.0
  0
SPLINE
  5
13d
100
AcDbEntity
  8
panel
 62
7
100
AcDbSpline
 70
8
 71
3
 72
8
 73
4
 74
0
 40
0
 40
0
 40
0
 40
0
 40
1
 40
1
 40
1
 40
1
 10
4.399834
 20
73.050230
 30
0.0
 10
4.399337
 20
71.745881
 30
0.0
 10
5.094914
 20
70.540400
 30
0.0
 10
6.224430
 20
69.888083
 30
0.0
  0
SPLINE
  5
13e
100
AcDbEntity
  8
panel
 62
7
100
AcDbSpline
 70
8
 71
3
 72
8
 73
4
 74
0
 40
0
 40
0
 40
0
 40
0
 40
1
 40
1
 40
1
 40
1
 10
6.224430
 20
69.888083
 30
0.0
 10
7.353946
 20
69.235765
 30
0.0
 10
8.745711
 20
69.235765
 30
0.0
 10
9.875228
 20
69.888083
 30
0.0
  0
SPLINE
  5
13f
100
AcDbEntity
  8
panel
 62
7
100
AcDbSpline
 70
8
 71
3
 72
8
 73
4
 74
0
 40
0
 40
0
 40
0
 40
0
 40
1
 40
1
 40
1
 40
1
 10
9.875228
 20
69.888083
 30
0.0
 10
11.004744
 20
70.540400
 30
0.0
 10
11.700321
 20
71.745881
 30
0.0
 10
11.699824
 20
73.050230
 30
0.0
  0
LINE
  5
140
100
AcDbEntity
  8
panel
 62
7
100
AcDbLine
 10
11.699824
 20
73.050230
 30
0.0
 11
11.699824
 21
73.050230
 31
0.0
  0
SPLINE
  5
141
100
AcDbEntity
  8
panel
 62
7
100
AcDbSpline
 70
8
 71
3
 72
8
 73
4
 74
0
 40
0
 40
0
 40
0
 40
0
 40
1
 40
1
 40
1
 40
1
 10
11.199823
 20
91.300207
 30
0.0
 10
11.200476
 20
92.426027
 30
0.0
 10
10.600233
 20
93.466607
 30
0.0
 10
9.625353
 20
94.029705
 30
0.0
  0
SPLINE
  5
142
100
AcDbEntity
  8
panel
 62
7
100
AcDbSpline
 70
8
 71
3
 72
8
 73
4
 74
0
 40
0
 40
0
 40
0
 40
0
 40
1
 40
1
 40
1
 40
1
 10
9.625353
 20
94.029705
 30
0.0
 10
8.650473
 20
94.592804
 30
0.0
 10
7.449182
 20
94.592804
 30
0.0
 10
6.474302
 20
94.029705
 30
0.0
  0
SPLINE
  5
143
100
AcDbEntity
  8
panel
 62
7
100
AcDbSpline
 70
8
 71
3
 72
8
 73
4
 74
0
 40
0
 40
0
 40
0
 40
0
 40
1
 40
1
 40
1
 40
1
 10
6.474302
 20
94.029705
 30
0.0
 10
5.499422
 20
93.466607
 30
0.0
 10
4.899179
 20
92.426027
 30
0.0
 10
4.899832
 20
91.300207
 30
0.0
  0
SPLINE
  5
144
100
AcDbEntity
  8
panel
 62
7
100
AcDbSpline
 70
8
 71
3
 72
8
 73
4
 74
0
 40
0
 40
0
 40
0
 40
0
 40
1
 40
1
 40
1
 40
1
 10
4.899832
 20
91.300207
 30
0.0
 10
4.899179
 20
90.174387
 30
0.0
 10
5.499422
 20
89.133807
 30
0.0
 10
6.474302
 20
88.570709
 30
0.0
  0
SPLINE
  5
145
100
AcDbEntity
  8
panel
 62
7
100
AcDbSpline
 70
8
 71
3
 72
8
 73
4
 74
0
 40
0
 40
0
 40
0
 40
0
 40
1
 40
1
 40
1
 40
1
 10
6.474302
 20
88.570709
 30
0.0
 10
7.449182
 20
88.007611
 30
0.0
 10
8.650473
 20
88.007611
 30
0.0
 10
9.625353
 20
88.570709
 30
0.0
  0
SPLINE
  5
146
100
AcDbEntity
  8
panel
 62
7
100
AcDbSpline
 70
8
 71
3
 72
8
 73
4
 74
0
 40
0
 40
0
 40
0
 40
0
 40
1
 40
1
 40
1
 40
1
 10
9.625353
 20
88.570709
 30
0.0
 10
10.600233
 20
89.133807
 30
0.0
 10
11.200476
 20
90.174387
 30
0.0
 10
11.199823
 20
91.300207
 30
0.0
  0
LINE
  5
147
100
AcDbEntity
  8
panel
 62
7
100
AcDbLine
 10
11.199823
 20
91.300207
 30
0.0
 11
11.199823
 21
91.300207
 31
0.0
  0
SPLINE
  5
148
100
AcDbEntity
  8
panel
 62
7
100
AcDbSpline
 70
8
 71
3
 72
8
 73
4
 74
0
 40
0
 40
0
 40
0
 40
0
 40
1
 40
1
 40
1
 40
1
 10
11.699824
 20
108.800184
 30
0.0
 10
11.700321
 20
110.104533
 30
0.0
 10
11.004744
 20
111.310014
 30
0.0
 10
9.875228
 20
111.962331
 30
0.0
  0
SPLINE
  5
149
100
AcDbEntity
  8
panel
 62
7
100
AcDbSpline
 70
8
 71
3
 72
8
 73
4
 74
0
 40
0
 40
0
 40
0
 40
0
 40
1
 40
1
 40
1
 40
1
 10
9.875228
 20
111.962331
 30
0.0
 10
8.745711
 20
112.614649
 30
0.0
 10
7.353946
 20
112.614649
 30
0.0
 10
6.224430
 20
111.962331
 30
0.0
  0
SPLINE
  5
14a
100
AcDbEntity
  8
panel
 62
7
100
AcDbSpline
 70
8
 71
3
 72
8
 73
4
 74
0
 40
0
 40
0
 40
0
 40
0
 40
1
 40
1
 40
1
 40
1
 10
6.224430
 20
111.962331
 30
0.0
 10
5.094914
 20
111.310014
 30
0.0
 10
4.399337
 20
110.104533
 30
0.0
 10
4.399834
 20
108.800184
 30
0.0
  0
SPLINE
  5
14b
100
AcDbEntity
  8
panel
 62
7
100
AcDbSpline
 70
8
 71
3
 72
8
 73
4
 74
0
 40
0
 40
0
 40
0
 40
0
 40
1
 40
1
 40
1
 40
1
 10
4.399834
 20
108.800184
 30
0.0
 10
4.399337
 20
107.495836
 30
0.0
 10
5.094914
 20
106.290355
 30
0.0
 10
6.224430
 20
105.638038
 30
0.0
  0
SPLINE
  5
14c
100
AcDbEntity
  8
panel
 62
7
100
AcDbSpline
 70
8
 71
3
 72
8
 73
4
 74
0
 40
0
 40
0
 40
0
 40
0
 40
1
 40
1
 40
1
 40
1
 10
6.224430
 20
105.638038
 30
0.0
 10
7.353946
 20
104.985720
 30
0.0
 10
8.745711
 20
104.985720
 30
0.0
 10
9.875228
 20
105.638038
 30
0.0
  0
SPLINE
  5
14d
100
AcDbEntity
  8
panel
 62
7
100
AcDbSpline
 70
8
 71
3
 72
8
 73
4
 74
0
 40
0
 40
0
 40
0
 40
0
 40
1
 40
1
 40
1
 40
1
 10
9.875228
 20
105.638038
 30
0.0
 10
11.004744
 20
106.290355
 30
0.0
 10
11.700321
 20
107.495836
 30
0.0
 10
11.699824
 20
108.800184
 30
0.0
  0
LINE
  5
14e
100
AcDbEntity
  8
panel
 62
7
100
AcDbLine
 10
11.699824
 20
108.800184
 30
0.0
 11
11.699824
 21
108.800184
 31
0.0
  0
SPLINE
  5
14f
100
AcDbEntity
  8
panel
 62
7
100
AcDbSpline
 70
8
 71
3
 72
8
 73
4
 74
0
 40
0
 40
0
 40
0
 40
0
 40
1
 40
1
 40
1
 40
1
 10
3.049833
 20
127.100163
 30
0.0
 10
2.496072
 20
127.100163
 30
0.0
 10
1.984376
 20
126.804735
 30
0.0
 10
1.707495
 20
126.325164
 30
0.0
  0
SPLINE
  5
150
100
AcDbEntity
  8
panel
 62
7
100
AcDbSpline
 70
8
 71
3
 72
8
 73
4
 74
0
 40
0
 40
0
 40
0
 40
0
 40
1
 40
1
 40
1
 40
1
 10
1.707495
 20
126.325164
 30
0.0
 10
1.430614
 20
125.845592
 30
0.0
 10
1.430614
 20
125.254736
 30
0.0
 10
1.707495
 20
124.775165
 30
0.0
  0
SPLINE
  5
151
100
AcDbEntity
  8
panel
 62
7
100
AcDbSpline
 70
8
 71
3
 72
8
 73
4
 74
0
 40
0
 40
0
 40
0
 40
0
 40
1
 40
1
 40
1
 40
1
 10
1.707495
 20
124.775165
 30
0.0
 10
1.984376
 20
124.295594
 30
0.0
 10
2.496072
 20
124.000166
 30
0.0
 10
3.049833
 20
124.000166
 30
0.0
  0
LINE
  5
152
100
AcDbEntity
  8
panel
 62
7
100
AcDbLine
 10
3.049833
 20
124.000166
 30
0.0
 11
6.149831
 21
124.000166
 31
0.0
  0
SPLINE
  5
153
100
AcDbEntity
  8
panel
 62
7
100
AcDbSpline
 70
8
 71
3
 72
8
 73
4
 74
0
 40
0
 40
0
 40
0
 40
0
 40
1
 40
1
 40
1
 40
1
 10
6.149831
 20
124.000166
 30
0.0
 10
6.703592
 20
124.000166
 30
0.0
 10
7.215288
 20
124.295594
 30
0.0
 10
7.492169
 20
124.775165
 30
0.0
  0
SPLINE
  5
154
100
AcDbEntity
  8
panel
 62
7
100
AcDbSpline
 70
8
 71
3
 72
8
 73
4
 74
0
 40
0
 40
0
 40
0
 40
0
 40
1
 40
1
 40
1
 40
1
 10
7.492169
 20
124.775165
 30
0.0
 10
7.769049
 20
125.254736
 30
0.0
 10
7.769049
 20
125.845592
 30
0.0
 10
7.492169
 20
126.325164
 30
0.0
  0
SPLINE
  5
155
100
AcDbEntity
  8
panel
 62
7
100
AcDbSpline
 70
8
 71
3
 72
8
 73
4
 74
0
 40
0
 40
0
 40
0
 40
0
 40
1
 40
1
 40
1
 40
1
 10
7.492169
 20
126.325164
 30
0.0
 10
7.215288
 20
126.804735
 30
0.0
 10
6.703592
 20
127.100163
 30
0.0
 10
6.149831
 20
127.100163
 30
0.0
  0
LINE
  5
156
100
AcDbEntity
  8
panel
 62
7
100
AcDbLine
 10
3.049833
 20
127.100163
 30
0.0
 11
6.149831
 21
127.100163
 31
0.0
  0
SPLINE
  5
157
100
AcDbEntity
  8
panel
 62
7
100
AcDbSpline
 70
8
 71
3
 72
8
 73
4
 74
0
 40
0
 40
0
 40
0
 40
0
 40
1
 40
1
 40
1
 40
1
 10
35.699794
 20
73.050230
 30
0.0
 10
35.700290
 20
74.354578
 30
0.0
 10
35.004714
 20
75.560059
 30
0.0
 10
33.875197
 20
76.212377
 30
0.0
  0
SPLINE
  5
158
100
AcDbEntity
  8
panel
 62
7
100
AcDbSpline
 70
8
 71
3
 72
8
 73
4
 74
0
 40
0
 40
0
 40
0
 40
0
 40
1
 40
1
 40
1
 40
1
 10
33.875197
 20
76.212377
 30
0.0
 10
32.745681
 20
76.864694
 30
0.0
 10
31.353916
 20
76.864694
 30
0.0
 10
30.224399
 20
76.212377
 30
0.0
  0
SPLINE
  5
159
100
AcDbEntity
  8
panel
 62
7
100
AcDbSpline
 70
8
 71
3
 72
8
 73
4
 74
0
 40
0
 40
0
 40
0
 40
0
 40
1
 40
1
 40
1
 40
1
 10
30.224399
 20
76.212377
 30
0.0
 10
29.094883
 20
75.560059
 30
0.0
 10
28.399306
 20
74.354578
 30
0.0
 10
28.399803
 20
73.050230
 30
0.0
  0
SPLINE
  5
15a
100
AcDbEntity
  8
panel
 62
7
100
AcDbSpline
 70
8
 71
3
 72
8
 73
4
 74
0
 40
0
 40
0
 40
0
 40
0
 40
1
 40
1
 40
1
 40
1
 10
28.399803
 20
73.050230
 30
0.0
 10
28.399306
 20
71.745881
 30
0.0
 10
29.094883
 20
70.540400
 30
0.0
 10
30.224399
 20
69.888083
 30
0.0
  0
SPLINE
  5
15b
100
AcDbEntity
  8
panel
 62
7
100
AcDbSpline
 70
8
 71
3
 72
8
 73
4
 74
0
 40
0
 40
0
 40
0
 40
0
 40
1
 40
1
 40
1
 40
1
 10
30.224399
 20
69.888083
 30
0.0
 10
31.353916
 20
69.235765
 30
0.0
 10
32.745681
 20
69.235765
 30
0.0
 10
33.875197
 20
69.888083
 30
0.0
  0
SPLINE
  5
15c
100
AcDbEntity
  8
panel
 62
7
100
AcDbSpline
 70
8
 71
3
 72
8
 73
4
 74
0
 40
0
 40
0
 40
0
 40
0
 40
1
 40
1
 40
1
 40
1
 10
33.875197
 20
69.888083
 30
0.0
 10
35.004714
 20
70.540400
 30
0.0
 10
35.700290
 20
71.745881
 30
0.0
 10
35.699794
 20
73.050230
 30
0.0
  0
LINE
  5
15d
100
AcDbEntity
  8
panel
 62
7
100
AcDbLine
 10
35.699794
 20
73.050230
 30
0.0
 11
35.699794
 21
73.050230
 31
0.0
  0
SPLINE
  5
15e
100
AcDbEntity
  8
panel
 62
7
100
AcDbSpline
 70
8
 71
3
 72
8
 73
4
 74
0
 40
0
 40
0
 40
0
 40
0
 40
1
 40
1
 40
1
 40
1
 10
35.199792
 20
91.300207
 30
0.0
 10
35.200445
 20
92.426027
 30
0.0
 10
34.600202
 20
93.466607
 30
0.0
 10
33.625322
 20
94.029705
 30
0.0
  0
SPLINE
  5
15f
100
AcDbEntity
  8
panel
 62
7
100
AcDbSpline
 70
8
 71
3
 72
8
 73
4
 74
0
 40
0
 40
0
 40
0
 40
0
 40
1
 40
1
 40
1
 40
1
 10
33.625322
 20
94.029705
 30
0.0
 10
32.650442
 20
94.592804
 30
0.0
 10
31.449152
 20
94.592804
 30
0.0
 10
30.474272
 20
94.029705
 30
0.0
  0
SPLINE
  5
160
100
AcDbEntity
  8
panel
 62
7
100
AcDbSpline
 70
8
 71
3
 72
8
 73
4
 74
0
 40
0
 40
0
 40
0
 40
0
 40
1
 40
1
 40
1
 40
1
 10
30.474272
 20
94.029705
 30
0.0
 10
29.499392
 20
93.466607
 30
0.0
 10
28.899149
 20
92.426027
 30
0.0
 10
28.899801
 20
91.300207
 30
0.0
  0
SPLINE
  5
161
100
AcDbEntity
  8
panel
 62
7
100
AcDbSpline
 70
8
 71
3
 72
8
 73
4
 74
0
 40
0
 40
0
 40
0
 40
0
 40
1
 40
1
 40
1
 40
1
 10
28.899801
 20
91.300207
 30
0.0
 10
28.899149
 20
90.174387
 30
0.0
 10
29.499392
 20
89.133807
 30
0.0
 10
30.474272
 20
88.570709
 30
0.0
  0
SPLINE
  5
162
100
AcDbEntity
  8
panel
 62
7
100
AcDbSpline
 70
8
 71
3
 72
8
 73
4
 74
0
 40
0
 40
0
 40
0
 40
0
 40
1
 40
1
 40
1
 40
1
 10
30.474272
 20
88.570709
 30
0.0
 10
31.449152
 20
88.007611
 30
0.0
 10
32.650442
 20
88.007611
 30
0.0
 10
33.625322
 20
88.570709
 30
0.0
  0
SPLINE
  5
163
100
AcDbEntity
  8
panel
 62
7
100
AcDbSpline
 70
8
 71
3
 72
8
 73
4
 74
0
 40
0
 40
0
 40
0
 40
0
 40
1
 40
1
 40
1
 40
1
 10
33.625322
 20
88.570709
 30
0.0
 10
34.600202
 20
89.133807
 30
0.0
 10
35.200445
 20
90.174387
 30
0.0
 10
35.199792
 20
91.300207
 30
0.0
  0
LINE
  5
164
100
AcDbEntity
  8
panel
 62
7
100
AcDbLine
 10
35.199792
 20
91.300207
 30
0.0
 11
35.199792
 21
91.300207
 31
0.0
  0
SPLINE
  5
165
100
AcDbEntity
  8
panel
 62
7
100
AcDbSpline
 70
8
 71
3
 72
8
 73
4
 74
0
 40
0
 40
0
 40
0
 40
0
 40
1
 40
1
 40
1
 40
1
 10
35.699794
 20
108.800184
 30
0.0
 10
35.700290
 20
110.104533
 30
0.0
 10
35.004714
 20
111.310014
 30
0.0
 10
33.875197
 20
111.962331
 30
0.0
  0
SPLINE
  5
166
100
AcDbEntity
  8
panel
 62
7
100
AcDbSpline
 70
8
 71
3
 72
8
 73
4
 74
0
 40
0
 40
0
 40
0
 40
0
 40
1
 40
1
 40
1
 40
1
 10
33.875197
 20
111.962331
 30
0.0
 10
32.745681
 20
112.614649
 30
0.0
 10
31.353916
 20
112.614649
 30
0.0
 10
30.224399
 20
111.962331
 30
0.0
  0
SPLINE
  5
167
100
AcDbEntity
  8
panel
 62
7
100
AcDbSpline
 70
8
 71
3
 72
8
 73
4
 74
0
 40
0
 40
0
 40
0
 40
0
 40
1
 40
1
 40
1
 40
1
 10
30.224399
 20
111.962331
 30
0.0
 10
29.094883
 20
111.310014
 30
0.0
 10
28.399306
 20
110.104533
 30
0.0
 10
28.399803
 20
108.800184
 30
0.0
  0
SPLINE
  5
168
100
AcDbEntity
  8
panel
 62
7
100
AcDbSpline
 70
8
 71
3
 72
8
 73
4
 74
0
 40
0
 40
0
 40
0
 40
0
 40
1
 40
1
 40
1
 40
1
 10
28.399803
 20
108.800184
 30
0.0
 10
28.399306
 20
107.495836
 30
0.0
 10
29.094883
 20
106.290355
 30
0.0
 10
30.224399
 20
105.638038
 30
0.0
  0
SPLINE
  5
169
100
AcDbEntity
  8
panel
 62
7
100
AcDbSpline
 70
8
 71
3
 72
8
 73
4
 74
0
 40
0
 40
0
 40
0
 40
0
 40
1
 40
1
 40
1
 40
1
 10
30.224399
 20
105.638038
 30
0.0
 10
31.353916
 20
104.985720
 30
0.0
 10
32.745681
 20
104.985720
 30
0.0
 10
33.875197
 20
105.638038
 30
0.0
  0
SPLINE
  5
16a
100
AcDbEntity
  8
panel
 62
7
100
AcDbSpline
 70
8
 71
3
 72
8
 73
4
 74
0
 40
0
 40
0
 40
0
 40
0
 40
1
 40
1
 40
1
 40
1
 10
33.875197
 20
105.638038
 30
0.0
 10
35.004714
 20
106.290355
 30
0.0
 10
35.700290
 20
107.495836
 30
0.0
 10
35.699794
 20
108.800184
 30
0.0
  0
LINE
  5
16b
100
AcDbEntity
  8
panel
 62
7
100
AcDbLine
 10
35.699794
 20
108.800184
 30
0.0
 11
35.699794
 21
108.800184
 31
0.0
  0
SPLINE
  5
16c
100
AcDbEntity
  8
panel
 62
7
100
AcDbSpline
 70
8
 71
3
 72
8
 73
4
 74
0
 40
0
 40
0
 40
0
 40
0
 40
1
 40
1
 40
1
 40
1
 10
33.949797
 20
127.100163
 30
0.0
 10
33.396035
 20
127.100163
 30
0.0
 10
32.884339
 20
126.804735
 30
0.0
 10
32.607458
 20
126.325164
 30
0.0
  0
SPLINE
  5
16d
100
AcDbEntity
  8
panel
 62
7
100
AcDbSpline
 70
8
 71
3
 72
8
 73
4
 74
0
 40
0
 40
0
 40
0
 40
0
 40
1
 40
1
 40
1
 40
1
 10
32.607458
 20
126.325164
 30
0.0
 10
32.330578
 20
125.845592
 30
0.0
 10
32.330578
 20
125.254736
 30
0.0
 10
32.607458
 20
124.775165
 30
0.0
  0
SPLINE
  5
16e
100
AcDbEntity
  8
panel
 62
7
100
AcDbSpline
 70
8
 71
3
 72
8
 73
4
 74
0
 40
0
 40
0
 40
0
 40
0
 40
1
 40
1
 40
1
 40
1
 10
32.607458
 20
124.775165
 30
0.0
 10
32.884339
 20
124.295594
 30
0.0
 10
33.396035
 20
124.000166
 30
0.0
 10
33.949797
 20
124.000166
 30
0.0
  0
LINE
  5
16f
100
AcDbEntity
  8
panel
 62
7
100
AcDbLine
 10
33.949797
 20
124.000166
 30
0.0
 11
37.049791
 21
124.000166
 31
0.0
  0
SPLINE
  5
170
100
AcDbEntity
  8
panel
 62
7
100
AcDbSpline
 70
8
 71
3
 72
8
 73
4
 74
0
 40
0
 40
0
 40
0
 40
0
 40
1
 40
1
 40
1
 40
1
 10
37.049791
 20
124.000166
 30
0.0
 10
37.603552
 20
124.000166
 30
0.0
 10
38.115249
 20
124.295594
 30
0.0
 10
38.392129
 20
124.775165
 30
0.0
  0
SPLINE
  5
171
100
AcDbEntity
  8
panel
 62
7
100
AcDbSpline
 70
8
 71
3
 72
8
 73
4
 74
0
 40
0
 40
0
 40
0
 40
0
 40
1
 40
1
 40
1
 40
1
 10
38.392129
 20
124.775165
 30
0.0
 10
38.669010
 20
125.254736
 30
0.0
 10
38.669010
 20
125.845592
 30
0.0
 10
38.392129
 20
126.325164
 30
0.0
  0
SPLINE
  5
172
100
AcDbEntity
  8
panel
 62
7
100
AcDbSpline
 70
8
 71
3
 72
8
 73
4
 74
0
 40
0
 40
0
 40
0
 40
0
 40
1
 40
1
 40
1
 40
1
 10
38.392129
 20
126.325164
 30
0.0
 10
38.115249
 20
126.804735
 30
0.0
 10
37.603552
 20
127.100163
 30
0.0
 10
37.049791
 20
127.100163
 30
0.0
  0
LINE
  5
173
100
AcDbEntity
  8
panel
 62
7
100
AcDbLine
 10
33.949797
 20
127.100163
 30
0.0
 11
37.049791
 21
127.100163
 31
0.0
  0
LINE
  5
174
100
AcDbEntity
  8
Logo
 62
7
100
AcDbLine
 10
17.318201
 20
7.802510
 30
0.0
 11
17.539174
 21
7.692026
 31
0.0
  0
LINE
  5
175
100
AcDbEntity
  8
Logo
 62
7
100
AcDbLine
 10
17.539174
 20
7.692026
 30
0.0
 11
17.612831
 21
7.581541
 31
0.0
  0
LINE
  5
176
100
AcDbEntity
  8
Logo
 62
7
100
AcDbLine
 10
17.612831
 20
7.581541
 30
0.0
 11
17.686489
 21
7.360573
 31
0.0
  0
LINE
  5
177
100
AcDbEntity
  8
Logo
 62
7
100
AcDbLine
 10
17.686489
 20
7.360573
 30
0.0
 11
17.686489
 21
7.029120
 31
0.0
  0
LINE
  5
178
100
AcDbEntity
  8
Logo
 62
7
100
AcDbLine
 10
17.686489
 20
7.029120
 30
0.0
 11
17.612831
 21
6.808151
 31
0.0
  0
LINE
  5
179
100
AcDbEntity
  8
Logo
 62
7
100
AcDbLine
 10
17.612831
 20
6.808151
 30
0.0
 11
17.539174
 21
6.697668
 31
0.0
  0
LINE
  5
17a
100
AcDbEntity
  8
Logo
 62
7
100
AcDbLine
 10
17.539174
 20
6.697668
 30
0.0
 11
17.391858
 21
6.587183
 31
0.0
  0
LINE
  5
17b
100
AcDbEntity
  8
Logo
 62
7
100
AcDbLine
 10
17.391858
 20
6.587183
 30
0.0
 11
16.802613
 21
6.587183
 31
0.0
  0
LINE
  5
17c
100
AcDbEntity
  8
Logo
 62
7
100
AcDbLine
 10
16.802613
 20
6.587183
 30
0.0
 11
16.802613
 21
8.907353
 31
0.0
  0
LINE
  5
17d
100
AcDbEntity
  8
Logo
 62
7
100
AcDbLine
 10
16.802613
 20
8.907353
 30
0.0
 11
17.318201
 21
8.907353
 31
0.0
  0
LINE
  5
17e
100
AcDbEntity
  8
Logo
 62
7
100
AcDbLine
 10
17.318201
 20
8.907353
 30
0.0
 11
17.465516
 21
8.796868
 31
0.0
  0
LINE
  5
17f
100
AcDbEntity
  8
Logo
 62
7
100
AcDbLine
 10
17.465516
 20
8.796868
 30
0.0
 11
17.539174
 21
8.686385
 31
0.0
  0
LINE
  5
180
100
AcDbEntity
  8
Logo
 62
7
100
AcDbLine
 10
17.539174
 20
8.686385
 30
0.0
 11
17.612831
 21
8.465416
 31
0.0
  0
LINE
  5
181
100
AcDbEntity
  8
Logo
 62
7
100
AcDbLine
 10
17.612831
 20
8.465416
 30
0.0
 11
17.612831
 21
8.244448
 31
0.0
  0
LINE
  5
182
100
AcDbEntity
  8
Logo
 62
7
100
AcDbLine
 10
17.612831
 20
8.244448
 30
0.0
 11
17.539174
 21
8.023478
 31
0.0
  0
LINE
  5
183
100
AcDbEntity
  8
Logo
 62
7
100
AcDbLine
 10
17.539174
 20
8.023478
 30
0.0
 11
17.465516
 21
7.912995
 31
0.0
  0
LINE
  5
184
100
AcDbEntity
  8
Logo
 62
7
100
AcDbLine
 10
17.465516
 20
7.912995
 30
0.0
 11
17.318201
 21
7.802510
 31
0.0
  0
LINE
  5
185
100
AcDbEntity
  8
Logo
 62
7
100
AcDbLine
 10
17.318201
 20
7.802510
 30
0.0
 11
16.802613
 21
7.802510
 31
0.0
  0
LINE
  5
186
100
AcDbEntity
  8
Logo
 62
7
100
AcDbLine
 10
19.085954
 20
6.587183
 30
0.0
 11
18.349393
 21
6.587183
 31
0.0
  0
LINE
  5
187
100
AcDbEntity
  8
Logo
 62
7
100
AcDbLine
 10
18.349393
 20
6.587183
 30
0.0
 11
18.349393
 21
8.907353
 31
0.0
  0
LINE
  5
188
100
AcDbEntity
  8
Logo
 62
7
100
AcDbLine
 10
19.601557
 20
7.802510
 30
0.0
 11
20.117145
 21
7.802510
 31
0.0
  0
LINE
  5
189
100
AcDbEntity
  8
Logo
 62
7
100
AcDbLine
 10
20.338118
 20
6.587183
 30
0.0
 11
19.601557
 21
6.587183
 31
0.0
  0
LINE
  5
18a
100
AcDbEntity
  8
Logo
 62
7
100
AcDbLine
 10
19.601557
 20
6.587183
 30
0.0
 11
19.601557
 21
8.907353
 31
0.0
  0
LINE
  5
18b
100
AcDbEntity
  8
Logo
 62
7
100
AcDbLine
 10
19.601557
 20
8.907353
 30
0.0
 11
20.338118
 21
8.907353
 31
0.0
  0
LINE
  5
18c
100
AcDbEntity
  8
Logo
 62
7
100
AcDbLine
 10
21.001022
 20
7.802510
 30
0.0
 11
21.516610
 21
7.802510
 31
0.0
  0
LINE
  5
18d
100
AcDbEntity
  8
Logo
 62
7
100
AcDbLine
 10
21.737583
 20
6.587183
 30
0.0
 11
21.001022
 21
6.587183
 31
0.0
  0
LINE
  5
18e
100
AcDbEntity
  8
Logo
 62
7
100
AcDbLine
 10
21.001022
 20
6.587183
 30
0.0
 11
21.001022
 21
8.907353
 31
0.0
  0
LINE
  5
18f
100
AcDbEntity
  8
Logo
 62
7
100
AcDbLine
 10
21.001022
 20
8.907353
 30
0.0
 11
21.737583
 21
8.907353
 31
0.0
  0
LINE
  5
190
100
AcDbEntity
  8
Logo
 62
7
100
AcDbLine
 10
22.400487
 20
6.587183
 30
0.0
 11
22.400487
 21
8.907353
 31
0.0
  0
LINE
  5
191
100
AcDbEntity
  8
Logo
 62
7
100
AcDbLine
 10
22.400487
 20
8.907353
 30
0.0
 11
22.989733
 21
8.907353
 31
0.0
  0
LINE
  5
192
100
AcDbEntity
  8
Logo
 62
7
100
AcDbLine
 10
22.989733
 20
8.907353
 30
0.0
 11
23.137048
 21
8.796868
 31
0.0
  0
LINE
  5
193
100
AcDbEntity
  8
Logo
 62
7
100
AcDbLine
 10
23.137048
 20
8.796868
 30
0.0
 11
23.210705
 21
8.686385
 31
0.0
  0
LINE
  5
194
100
AcDbEntity
  8
Logo
 62
7
100
AcDbLine
 10
23.210705
 20
8.686385
 30
0.0
 11
23.284363
 21
8.465416
 31
0.0
  0
LINE
  5
195
100
AcDbEntity
  8
Logo
 62
7
100
AcDbLine
 10
23.284363
 20
8.465416
 30
0.0
 11
23.284363
 21
8.133963
 31
0.0
  0
LINE
  5
196
100
AcDbEntity
  8
Logo
 62
7
100
AcDbLine
 10
23.284363
 20
8.133963
 30
0.0
 11
23.210705
 21
7.912995
 31
0.0
  0
LINE
  5
197
100
AcDbEntity
  8
Logo
 62
7
100
AcDbLine
 10
23.210705
 20
7.912995
 30
0.0
 11
23.137048
 21
7.802510
 31
0.0
  0
LINE
  5
198
100
AcDbEntity
  8
Logo
 62
7
100
AcDbLine
 10
23.137048
 20
7.802510
 30
0.0
 11
22.989733
 21
7.692026
 31
0.0
  0
LINE
  5
199
100
AcDbEntity
  8
Logo
 62
7
100
AcDbLine
 10
22.989733
 20
7.692026
 30
0.0
 11
22.400487
 21
7.692026
 31
0.0
  0
LINE
  5
19a
100
AcDbEntity
  8
Logo
 62
7
100
AcDbLine
 10
17.097243
 20
4.863628
 30
0.0
 11
17.318201
 21
4.753144
 31
0.0
  0
LINE
  5
19b
100
AcDbEntity
  8
Logo
 62
7
100
AcDbLine
 10
17.318201
 20
4.753144
 30
0.0
 11
17.391858
 21
4.642659
 31
0.0
  0
LINE
  5
19c
100
AcDbEntity
  8
Logo
 62
7
100
AcDbLine
 10
17.391858
 20
4.642659
 30
0.0
 11
17.465516
 21
4.421691
 31
0.0
  0
LINE
  5
19d
100
AcDbEntity
  8
Logo
 62
7
100
AcDbLine
 10
17.465516
 20
4.421691
 30
0.0
 11
17.465516
 21
4.090238
 31
0.0
  0
LINE
  5
19e
100
AcDbEntity
  8
Logo
 62
7
100
AcDbLine
 10
17.465516
 20
4.090238
 30
0.0
 11
17.391858
 21
3.869269
 31
0.0
  0
LINE
  5
19f
100
AcDbEntity
  8
Logo
 62
7
100
AcDbLine
 10
17.391858
 20
3.869269
 30
0.0
 11
17.318201
 21
3.758786
 31
0.0
  0
LINE
  5
1a0
100
AcDbEntity
  8
Logo
 62
7
100
AcDbLine
 10
17.318201
 20
3.758786
 30
0.0
 11
17.170901
 21
3.648301
 31
0.0
  0
LINE
  5
1a1
100
AcDbEntity
  8
Logo
 62
7
100
AcDbLine
 10
17.170901
 20
3.648301
 30
0.0
 11
16.581640
 21
3.648301
 31
0.0
  0
LINE
  5
1a2
100
AcDbEntity
  8
Logo
 62
7
100
AcDbLine
 10
16.581640
 20
3.648301
 30
0.0
 11
16.581640
 21
5.968471
 31
0.0
  0
LINE
  5
1a3
100
AcDbEntity
  8
Logo
 62
7
100
AcDbLine
 10
16.581640
 20
5.968471
 30
0.0
 11
17.097243
 21
5.968471
 31
0.0
  0
LINE
  5
1a4
100
AcDbEntity
  8
Logo
 62
7
100
AcDbLine
 10
17.097243
 20
5.968471
 30
0.0
 11
17.244558
 21
5.857986
 31
0.0
  0
LINE
  5
1a5
100
AcDbEntity
  8
Logo
 62
7
100
AcDbLine
 10
17.244558
 20
5.857986
 30
0.0
 11
17.318201
 21
5.747503
 31
0.0
  0
LINE
  5
1a6
100
AcDbEntity
  8
Logo
 62
7
100
AcDbLine
 10
17.318201
 20
5.747503
 30
0.0
 11
17.391858
 21
5.526534
 31
0.0
  0
LINE
  5
1a7
100
AcDbEntity
  8
Logo
 62
7
100
AcDbLine
 10
17.391858
 20
5.526534
 30
0.0
 11
17.391858
 21
5.305566
 31
0.0
  0
LINE
  5
1a8
100
AcDbEntity
  8
Logo
 62
7
100
AcDbLine
 10
17.391858
 20
5.305566
 30
0.0
 11
17.318201
 21
5.084596
 31
0.0
  0
LINE
  5
1a9
100
AcDbEntity
  8
Logo
 62
7
100
AcDbLine
 10
17.318201
 20
5.084596
 30
0.0
 11
17.244558
 21
4.974113
 31
0.0
  0
LINE
  5
1aa
100
AcDbEntity
  8
Logo
 62
7
100
AcDbLine
 10
17.244558
 20
4.974113
 30
0.0
 11
17.097243
 21
4.863628
 31
0.0
  0
LINE
  5
1ab
100
AcDbEntity
  8
Logo
 62
7
100
AcDbLine
 10
17.097243
 20
4.863628
 30
0.0
 11
16.581640
 21
4.863628
 31
0.0
  0
LINE
  5
1ac
100
AcDbEntity
  8
Logo
 62
7
100
AcDbLine
 10
18.864981
 20
3.648301
 30
0.0
 11
18.128420
 21
3.648301
 31
0.0
  0
LINE
  5
1ad
100
AcDbEntity
  8
Logo
 62
7
100
AcDbLine
 10
18.128420
 20
3.648301
 30
0.0
 11
18.128420
 21
5.968471
 31
0.0
  0
LINE
  5
1ae
100
AcDbEntity
  8
Logo
 62
7
100
AcDbLine
 10
19.675200
 20
5.968471
 30
0.0
 11
19.969830
 21
5.968471
 31
0.0
  0
LINE
  5
1af
100
AcDbEntity
  8
Logo
 62
7
100
AcDbLine
 10
19.969830
 20
5.968471
 30
0.0
 11
20.117145
 21
5.857986
 31
0.0
  0
LINE
  5
1b0
100
AcDbEntity
  8
Logo
 62
7
100
AcDbLine
 10
20.117145
 20
5.857986
 30
0.0
 11
20.264461
 21
5.637018
 31
0.0
  0
LINE
  5
1b1
100
AcDbEntity
  8
Logo
 62
7
100
AcDbLine
 10
20.264461
 20
5.637018
 30
0.0
 11
20.338118
 21
5.195081
 31
0.0
  0
LINE
  5
1b2
100
AcDbEntity
  8
Logo
 62
7
100
AcDbLine
 10
20.338118
 20
5.195081
 30
0.0
 11
20.338118
 21
4.421691
 31
0.0
  0
LINE
  5
1b3
100
AcDbEntity
  8
Logo
 62
7
100
AcDbLine
 10
20.338118
 20
4.421691
 30
0.0
 11
20.264461
 21
3.979754
 31
0.0
  0
LINE
  5
1b4
100
AcDbEntity
  8
Logo
 62
7
100
AcDbLine
 10
20.264461
 20
3.979754
 30
0.0
 11
20.117145
 21
3.758786
 31
0.0
  0
LINE
  5
1b5
100
AcDbEntity
  8
Logo
 62
7
100
AcDbLine
 10
20.117145
 20
3.758786
 30
0.0
 11
19.969830
 21
3.648301
 31
0.0
  0
LINE
  5
1b6
100
AcDbEntity
  8
Logo
 62
7
100
AcDbLine
 10
19.969830
 20
3.648301
 30
0.0
 11
19.675200
 21
3.648301
 31
0.0
  0
LINE
  5
1b7
100
AcDbEntity
  8
Logo
 62
7
100
AcDbLine
 10
19.675200
 20
3.648301
 30
0.0
 11
19.527900
 21
3.758786
 31
0.0
  0
LINE
  5
1b8
100
AcDbEntity
  8
Logo
 62
7
100
AcDbLine
 10
19.527900
 20
3.758786
 30
0.0
 11
19.380584
 21
3.979754
 31
0.0
  0
LINE
  5
1b9
100
AcDbEntity
  8
Logo
 62
7
100
AcDbLine
 10
19.380584
 20
3.979754
 30
0.0
 11
19.306927
 21
4.421691
 31
0.0
  0
LINE
  5
1ba
100
AcDbEntity
  8
Logo
 62
7
100
AcDbLine
 10
19.306927
 20
4.421691
 30
0.0
 11
19.306927
 21
5.195081
 31
0.0
  0
LINE
  5
1bb
100
AcDbEntity
  8
Logo
 62
7
100
AcDbLine
 10
19.306927
 20
5.195081
 30
0.0
 11
19.380584
 21
5.637018
 31
0.0
  0
LINE
  5
1bc
100
AcDbEntity
  8
Logo
 62
7
100
AcDbLine
 10
19.380584
 20
5.637018
 30
0.0
 11
19.527900
 21
5.857986
 31
0.0
  0
LINE
  5
1bd
100
AcDbEntity
  8
Logo
 62
7
100
AcDbLine
 10
19.527900
 20
5.857986
 30
0.0
 11
19.675200
 21
5.968471
 31
0.0
  0
LINE
  5
1be
100
AcDbEntity
  8
Logo
 62
7
100
AcDbLine
 10
21.295637
 20
5.968471
 30
0.0
 11
21.590268
 21
5.968471
 31
0.0
  0
LINE
  5
1bf
100
AcDbEntity
  8
Logo
 62
7
100
AcDbLine
 10
21.590268
 20
5.968471
 30
0.0
 11
21.737583
 21
5.857986
 31
0.0
  0
LINE
  5
1c0
100
AcDbEntity
  8
Logo
 62
7
100
AcDbLine
 10
21.737583
 20
5.857986
 30
0.0
 11
21.884898
 21
5.637018
 31
0.0
  0
LINE
  5
1c1
100
AcDbEntity
  8
Logo
 62
7
100
AcDbLine
 10
21.884898
 20
5.637018
 30
0.0
 11
21.958541
 21
5.195081
 31
0.0
  0
LINE
  5
1c2
100
AcDbEntity
  8
Logo
 62
7
100
AcDbLine
 10
21.958541
 20
5.195081
 30
0.0
 11
21.958541
 21
4.421691
 31
0.0
  0
LINE
  5
1c3
100
AcDbEntity
  8
Logo
 62
7
100
AcDbLine
 10
21.958541
 20
4.421691
 30
0.0
 11
21.884898
 21
3.979754
 31
0.0
  0
LINE
  5
1c4
100
AcDbEntity
  8
Logo
 62
7
100
AcDbLine
 10
21.884898
 20
3.979754
 30
0.0
 11
21.737583
 21
3.758786
 31
0.0
  0
LINE
  5
1c5
100
AcDbEntity
  8
Logo
 62
7
100
AcDbLine
 10
21.737583
 20
3.758786
 30
0.0
 11
21.590268
 21
3.648301
 31
0.0
  0
LINE
  5
1c6
100
AcDbEntity
  8
Logo
 62
7
100
AcDbLine
 10
21.590268
 20
3.648301
 30
0.0
 11
21.295637
 21
3.648301
 31
0.0
  0
LINE
  5
1c7
100
AcDbEntity
  8
Logo
 62
7
100
AcDbLine
 10
21.295637
 20
3.648301
 30
0.0
 11
21.148337
 21
3.758786
 31
0.0
  0
LINE
  5
1c8
100
AcDbEntity
  8
Logo
 62
7
100
AcDbLine
 10
21.148337
 20
3.758786
 30
0.0
 11
21.001022
 21
3.979754
 31
0.0
  0
LINE
  5
1c9
100
AcDbEntity
  8
Logo
 62
7
100
AcDbLine
 10
21.001022
 20
3.979754
 30
0.0
 11
20.927364
 21
4.421691
 31
0.0
  0
LINE
  5
1ca
100
AcDbEntity
  8
Logo
 62
7
100
AcDbLine
 10
20.927364
 20
4.421691
 30
0.0
 11
20.927364
 21
5.195081
 31
0.0
  0
LINE
  5
1cb
100
AcDbEntity
  8
Logo
 62
7
100
AcDbLine
 10
20.927364
 20
5.195081
 30
0.0
 11
21.001022
 21
5.637018
 31
0.0
  0
LINE
  5
1cc
100
AcDbEntity
  8
Logo
 62
7
100
AcDbLine
 10
21.001022
 20
5.637018
 30
0.0
 11
21.148337
 21
5.857986
 31
0.0
  0
LINE
  5
1cd
100
AcDbEntity
  8
Logo
 62
7
100
AcDbLine
 10
21.148337
 20
5.857986
 30
0.0
 11
21.295637
 21
5.968471
 31
0.0
  0
LINE
  5
1ce
100
AcDbEntity
  8
Logo
 62
7
100
AcDbLine
 10
22.621460
 20
3.648301
 30
0.0
 11
22.621460
 21
5.968471
 31
0.0
  0
LINE
  5
1cf
100
AcDbEntity
  8
Logo
 62
7
100
AcDbLine
 10
22.621460
 20
5.968471
 30
0.0
 11
23.210705
 21
5.968471
 31
0.0
  0
LINE
  5
1d0
100
AcDbEntity
  8
Logo
 62
7
100
AcDbLine
 10
23.210705
 20
5.968471
 30
0.0
 11
23.358021
 21
5.857986
 31
0.0
  0
LINE
  5
1d1
100
AcDbEntity
  8
Logo
 62
7
100
AcDbLine
 10
23.358021
 20
5.857986
 30
0.0
 11
23.431678
 21
5.747503
 31
0.0
  0
LINE
  5
1d2
100
AcDbEntity
  8
Logo
 62
7
100
AcDbLine
 10
23.431678
 20
5.747503
 30
0.0
 11
23.505321
 21
5.526534
 31
0.0
  0
LINE
  5
1d3
100
AcDbEntity
  8
Logo
 62
7
100
AcDbLine
 10
23.505321
 20
5.526534
 30
0.0
 11
23.505321
 21
5.195081
 31
0.0
  0
LINE
  5
1d4
100
AcDbEntity
  8
Logo
 62
7
100
AcDbLine
 10
23.505321
 20
5.195081
 30
0.0
 11
23.431678
 21
4.974113
 31
0.0
  0
LINE
  5
1d5
100
AcDbEntity
  8
Logo
 62
7
100
AcDbLine
 10
23.431678
 20
4.974113
 30
0.0
 11
23.358021
 21
4.863628
 31
0.0
  0
LINE
  5
1d6
100
AcDbEntity
  8
Logo
 62
7
100
AcDbLine
 10
23.358021
 20
4.863628
 30
0.0
 11
23.210705
 21
4.753144
 31
0.0
  0
LINE
  5
1d7
100
AcDbEntity
  8
Logo
 62
7
100
AcDbLine
 10
23.210705
 20
4.753144
 30
0.0
 11
22.621460
 21
4.753144
 31
0.0
  0
LINE
  5
1d8
100
AcDbEntity
  8
Logo
 62
7
100
AcDbLine
 10
15.506612
 20
9.132813
 30
0.0
 11
16.023298
 21
9.465329
 31
0.0
  0
LINE
  5
1d9
100
AcDbEntity
  8
Logo
 62
7
100
AcDbLine
 10
15.093003
 20
4.154381
 30
0.0
 11
15.056437
 21
4.671968
 31
0.0
  0
LINE
  5
1da
100
AcDbEntity
  8
Logo
 62
7
100
AcDbLine
 10
15.052477
 20
3.034972
 30
0.0
 11
15.348964
 21
3.672588
 31
0.0
  0
LINE
  5
1db
100
AcDbEntity
  8
Logo
 62
7
100
AcDbLine
 10
24.760826
 20
4.001817
 30
0.0
 11
24.428300
 21
3.485137
 31
0.0
  0
LINE
  5
1dc
100
AcDbEntity
  8
Logo
 62
7
100
AcDbLine
 10
15.056437
 20
7.945983
 30
0.0
 11
15.174101
 21
8.616133
 31
0.0
  0
LINE
  5
1dd
100
AcDbEntity
  8
Logo
 62
7
100
AcDbLine
 10
24.428300
 20
9.132813
 30
0.0
 11
24.760826
 21
8.616133
 31
0.0
  0
LINE
  5
1de
100
AcDbEntity
  8
Logo
 62
7
100
AcDbLine
 10
23.911629
 20
9.465332
 30
0.0
 11
24.428300
 21
9.132813
 31
0.0
  0
LINE
  5
1df
100
AcDbEntity
  8
Logo
 62
7
100
AcDbLine
 10
24.878490
 20
7.945986
 30
0.0
 11
24.878475
 21
4.671968
 31
0.0
  0
LINE
  5
1e0
100
AcDbEntity
  8
Logo
 62
7
100
AcDbLine
 10
15.174101
 20
8.616133
 30
0.0
 11
15.506612
 21
9.132813
 31
0.0
  0
LINE
  5
1e1
100
AcDbEntity
  8
Logo
 62
7
100
AcDbLine
 10
16.181951
 20
3.069808
 30
0.0
 11
15.713911
 21
3.313756
 31
0.0
  0
LINE
  5
1e2
100
AcDbEntity
  8
Logo
 62
7
100
AcDbLine
 10
15.713911
 20
3.313756
 30
0.0
 11
15.052477
 21
3.034972
 31
0.0
  0
LINE
  5
1e3
100
AcDbEntity
  8
Logo
 62
7
100
AcDbLine
 10
16.693441
 20
9.582989
 30
0.0
 11
23.241471
 21
9.582994
 31
0.0
  0
LINE
  5
1e4
100
AcDbEntity
  8
Logo
 62
7
100
AcDbLine
 10
23.241471
 20
9.582994
 30
0.0
 11
23.911629
 21
9.465332
 31
0.0
  0
LINE
  5
1e5
100
AcDbEntity
  8
Logo
 62
7
100
AcDbLine
 10
23.911629
 20
3.152620
 30
0.0
 11
23.241471
 21
3.034959
 31
0.0
  0
LINE
  5
1e6
100
AcDbEntity
  8
Logo
 62
7
100
AcDbLine
 10
24.878475
 20
4.671968
 30
0.0
 11
24.760826
 21
4.001817
 31
0.0
  0
LINE
  5
1e7
100
AcDbEntity
  8
Logo
 62
7
100
AcDbLine
 10
23.241471
 20
3.034959
 30
0.0
 11
16.693441
 21
3.034959
 31
0.0
  0
LINE
  5
1e8
100
AcDbEntity
  8
Logo
 62
7
100
AcDbLine
 10
16.693441
 20
3.034959
 30
0.0
 11
16.181951
 21
3.069808
 31
0.0
  0
LINE
  5
1e9
100
AcDbEntity
  8
Logo
 62
7
100
AcDbLine
 10
24.428300
 20
3.485137
 30
0.0
 11
23.911629
 21
3.152620
 31
0.0
  0
LINE
  5
1ea
100
AcDbEntity
  8
Logo
 62
7
100
AcDbLine
 10
15.348964
 20
3.672588
 30
0.0
 11
15.093003
 21
4.154381
 31
0.0
  0
LINE
  5
1eb
100
AcDbEntity
  8
Logo
 62
7
100
AcDbLine
 10
16.023298
 20
9.465329
 30
0.0
 11
16.693441
 21
9.582989
 31
0.0
  0
LINE
  5
1ec
100
AcDbEntity
  8
Logo
 62
7
100
AcDbLine
 10
24.760826
 20
8.616133
 30
0.0
 11
24.878490
 21
7.945986
 31
0.0
  0
LINE
  5
1ed
100
AcDbEntity
  8
Logo
 62
7
100
AcDbLine
 10
15.056437
 20
4.671968
 30
0.0
 11
15.056437
 21
7.945983
 31
0.0
  0
LINE
  5
1ee
100
AcDbEntity
  8
text
 62
7
100
AcDbLine
 10
5.409481
 20
121.886288
 30
0.0
 11
5.409481
 21
119.987892
 31
0.0
  0
LINE
  5
1ef
100
AcDbEntity
  8
text
 62
7
100
AcDbLine
 10
4.778594
 20
121.886288
 30
0.0
 11
6.043236
 21
121.886288
 31
0.0
  0
LINE
  5
1f0
100
AcDbEntity
  8
text
 62
7
100
AcDbLine
 10
6.493456
 20
121.886288
 30
0.0
 11
6.493456
 21
119.987892
 31
0.0
  0
LINE
  5
1f1
100
AcDbEntity
  8
text
 62
7
100
AcDbLine
 10
6.493456
 20
121.886288
 30
0.0
 11
7.307873
 21
121.886288
 31
0.0
  0
LINE
  5
1f2
100
AcDbEntity
  8
text
 62
7
100
AcDbLine
 10
7.307873
 20
121.886288
 30
0.0
 11
7.577434
 21
121.794522
 31
0.0
  0
LINE
  5
1f3
100
AcDbEntity
  8
text
 62
7
100
AcDbLine
 10
7.577434
 20
121.794522
 30
0.0
 11
7.669199
 21
121.702757
 31
0.0
  0
LINE
  5
1f4
100
AcDbEntity
  8
text
 62
7
100
AcDbLine
 10
7.669199
 20
121.702757
 30
0.0
 11
7.760965
 21
121.524962
 31
0.0
  0
LINE
  5
1f5
100
AcDbEntity
  8
text
 62
7
100
AcDbLine
 10
7.760965
 20
121.524962
 30
0.0
 11
7.760965
 21
121.341431
 31
0.0
  0
LINE
  5
1f6
100
AcDbEntity
  8
text
 62
7
100
AcDbLine
 10
7.760965
 20
121.341431
 30
0.0
 11
7.669199
 21
121.163635
 31
0.0
  0
LINE
  5
1f7
100
AcDbEntity
  8
text
 62
7
100
AcDbLine
 10
7.669199
 20
121.163635
 30
0.0
 11
7.577434
 21
121.071870
 31
0.0
  0
LINE
  5
1f8
100
AcDbEntity
  8
text
 62
7
100
AcDbLine
 10
7.577434
 20
121.071870
 30
0.0
 11
7.307873
 21
120.980105
 31
0.0
  0
LINE
  5
1f9
100
AcDbEntity
  8
text
 62
7
100
AcDbLine
 10
7.307873
 20
120.980105
 30
0.0
 11
6.493456
 21
120.980105
 31
0.0
  0
LINE
  5
1fa
100
AcDbEntity
  8
text
 62
7
100
AcDbLine
 10
7.127210
 20
120.980105
 30
0.0
 11
7.760965
 21
119.987892
 31
0.0
  0
LINE
  5
1fb
100
AcDbEntity
  8
text
 62
7
100
AcDbLine
 10
8.391856
 20
121.886288
 30
0.0
 11
8.391856
 21
119.987892
 31
0.0
  0
LINE
  5
1fc
100
AcDbEntity
  8
text
 62
7
100
AcDbLine
 10
9.114506
 20
121.886288
 30
0.0
 11
9.114506
 21
119.987892
 31
0.0
  0
LINE
  5
1fd
100
AcDbEntity
  8
text
 62
7
100
AcDbLine
 10
9.114506
 20
121.886288
 30
0.0
 11
9.928924
 21
121.886288
 31
0.0
  0
LINE
  5
1fe
100
AcDbEntity
  8
text
 62
7
100
AcDbLine
 10
9.928924
 20
121.886288
 30
0.0
 11
10.198484
 21
121.794522
 31
0.0
  0
LINE
  5
1ff
100
AcDbEntity
  8
text
 62
7
100
AcDbLine
 10
10.198484
 20
121.794522
 30
0.0
 11
10.290250
 21
121.702757
 31
0.0
  0
LINE
  5
200
100
AcDbEntity
  8
text
 62
7
100
AcDbLine
 10
10.290250
 20
121.702757
 30
0.0
 11
10.382015
 21
121.524962
 31
0.0
  0
LINE
  5
201
100
AcDbEntity
  8
text
 62
7
100
AcDbLine
 10
10.382015
 20
121.524962
 30
0.0
 11
10.382015
 21
121.252533
 31
0.0
  0
LINE
  5
202
100
AcDbEntity
  8
text
 62
7
100
AcDbLine
 10
10.382015
 20
121.252533
 30
0.0
 11
10.290250
 21
121.071870
 31
0.0
  0
LINE
  5
203
100
AcDbEntity
  8
text
 62
7
100
AcDbLine
 10
10.290250
 20
121.071870
 30
0.0
 11
10.198484
 21
120.980105
 31
0.0
  0
LINE
  5
204
100
AcDbEntity
  8
text
 62
7
100
AcDbLine
 10
10.198484
 20
120.980105
 30
0.0
 11
9.928924
 21
120.891207
 31
0.0
  0
LINE
  5
205
100
AcDbEntity
  8
text
 62
7
100
AcDbLine
 10
9.928924
 20
120.891207
 30
0.0
 11
9.114506
 21
120.891207
 31
0.0
  0
LINE
  5
206
100
AcDbEntity
  8
text
 62
7
100
AcDbLine
 10
11.012906
 20
121.886288
 30
0.0
 11
11.012906
 21
119.987892
 31
0.0
  0
LINE
  5
207
100
AcDbEntity
  8
text
 62
7
100
AcDbLine
 10
11.012906
 20
119.987892
 30
0.0
 11
12.096884
 21
119.987892
 31
0.0
  0
LINE
  5
208
100
AcDbEntity
  8
text
 62
7
100
AcDbLine
 10
12.549970
 20
121.886288
 30
0.0
 11
12.549970
 21
119.987892
 31
0.0
  0
LINE
  5
209
100
AcDbEntity
  8
text
 62
7
100
AcDbLine
 10
12.549970
 20
121.886288
 30
0.0
 11
13.725714
 21
121.886288
 31
0.0
  0
LINE
  5
20a
100
AcDbEntity
  8
text
 62
7
100
AcDbLine
 10
12.549970
 20
120.980105
 30
0.0
 11
13.272623
 21
120.980105
 31
0.0
  0
LINE
  5
20b
100
AcDbEntity
  8
text
 62
7
100
AcDbLine
 10
12.549970
 20
119.987892
 30
0.0
 11
13.725714
 21
119.987892
 31
0.0
  0
LINE
  5
20c
100
AcDbEntity
  8
text
 62
7
100
AcDbLine
 10
15.801960
 20
121.886288
 30
0.0
 11
15.079308
 21
119.987892
 31
0.0
  0
LINE
  5
20d
100
AcDbEntity
  8
text
 62
7
100
AcDbLine
 10
15.801960
 20
121.886288
 30
0.0
 11
16.524613
 21
119.987892
 31
0.0
  0
LINE
  5
20e
100
AcDbEntity
  8
text
 62
7
100
AcDbLine
 10
15.348869
 20
120.618778
 30
0.0
 11
16.255052
 21
120.618778
 31
0.0
  0
LINE
  5
20f
100
AcDbEntity
  8
text
 62
7
100
AcDbLine
 10
17.336158
 20
121.886288
 30
0.0
 11
17.336158
 21
119.987892
 31
0.0
  0
LINE
  5
210
100
AcDbEntity
  8
text
 62
7
100
AcDbLine
 10
16.705271
 20
121.886288
 30
0.0
 11
17.969913
 21
121.886288
 31
0.0
  0
LINE
  5
211
100
AcDbEntity
  8
text
 62
7
100
AcDbLine
 10
18.781459
 20
121.886288
 30
0.0
 11
18.781459
 21
119.987892
 31
0.0
  0
LINE
  5
212
100
AcDbEntity
  8
text
 62
7
100
AcDbLine
 10
18.150572
 20
121.886288
 30
0.0
 11
19.415213
 21
121.886288
 31
0.0
  0
LINE
  5
213
100
AcDbEntity
  8
text
 62
7
100
AcDbLine
 10
19.865433
 20
121.886288
 30
0.0
 11
19.865433
 21
119.987892
 31
0.0
  0
LINE
  5
214
100
AcDbEntity
  8
text
 62
7
100
AcDbLine
 10
19.865433
 20
121.886288
 30
0.0
 11
21.041177
 21
121.886288
 31
0.0
  0
LINE
  5
215
100
AcDbEntity
  8
text
 62
7
100
AcDbLine
 10
19.865433
 20
120.980105
 30
0.0
 11
20.588085
 21
120.980105
 31
0.0
  0
LINE
  5
216
100
AcDbEntity
  8
text
 62
7
100
AcDbLine
 10
19.865433
 20
119.987892
 30
0.0
 11
21.041177
 21
119.987892
 31
0.0
  0
LINE
  5
217
100
AcDbEntity
  8
text
 62
7
100
AcDbLine
 10
21.580305
 20
121.886288
 30
0.0
 11
21.580305
 21
119.987892
 31
0.0
  0
LINE
  5
218
100
AcDbEntity
  8
text
 62
7
100
AcDbLine
 10
21.580305
 20
121.886288
 30
0.0
 11
22.847814
 21
119.987892
 31
0.0
  0
LINE
  5
219
100
AcDbEntity
  8
text
 62
7
100
AcDbLine
 10
22.847814
 20
121.886288
 30
0.0
 11
22.847814
 21
119.987892
 31
0.0
  0
LINE
  5
21a
100
AcDbEntity
  8
text
 62
7
100
AcDbLine
 10
23.567594
 20
121.886288
 30
0.0
 11
23.567594
 21
120.529881
 31
0.0
  0
LINE
  5
21b
100
AcDbEntity
  8
text
 62
7
100
AcDbLine
 10
23.567594
 20
120.529881
 30
0.0
 11
23.659359
 21
120.258886
 31
0.0
  0
LINE
  5
21c
100
AcDbEntity
  8
text
 62
7
100
AcDbLine
 10
23.659359
 20
120.258886
 30
0.0
 11
23.840022
 21
120.078223
 31
0.0
  0
LINE
  5
21d
100
AcDbEntity
  8
text
 62
7
100
AcDbLine
 10
23.840022
 20
120.078223
 30
0.0
 11
24.112450
 21
119.987892
 31
0.0
  0
LINE
  5
21e
100
AcDbEntity
  8
text
 62
7
100
AcDbLine
 10
24.112450
 20
119.987892
 30
0.0
 11
24.290246
 21
119.987892
 31
0.0
  0
LINE
  5
21f
100
AcDbEntity
  8
text
 62
7
100
AcDbLine
 10
24.290246
 20
119.987892
 30
0.0
 11
24.562674
 21
120.078223
 31
0.0
  0
LINE
  5
220
100
AcDbEntity
  8
text
 62
7
100
AcDbLine
 10
24.562674
 20
120.078223
 30
0.0
 11
24.743337
 21
120.258886
 31
0.0
  0
LINE
  5
221
100
AcDbEntity
  8
text
 62
7
100
AcDbLine
 10
24.743337
 20
120.258886
 30
0.0
 11
24.835103
 21
120.529881
 31
0.0
  0
LINE
  5
222
100
AcDbEntity
  8
text
 62
7
100
AcDbLine
 10
24.835103
 20
120.529881
 30
0.0
 11
24.835103
 21
121.886288
 31
0.0
  0
LINE
  5
223
100
AcDbEntity
  8
text
 62
7
100
AcDbLine
 10
25.285321
 20
121.886288
 30
0.0
 11
26.007973
 21
119.987892
 31
0.0
  0
LINE
  5
224
100
AcDbEntity
  8
text
 62
7
100
AcDbLine
 10
26.730626
 20
121.886288
 30
0.0
 11
26.007973
 21
119.987892
 31
0.0
  0
LINE
  5
225
100
AcDbEntity
  8
text
 62
7
100
AcDbLine
 10
27.180845
 20
121.886288
 30
0.0
 11
27.180845
 21
119.987892
 31
0.0
  0
LINE
  5
226
100
AcDbEntity
  8
text
 62
7
100
AcDbLine
 10
27.180845
 20
121.886288
 30
0.0
 11
28.356589
 21
121.886288
 31
0.0
  0
LINE
  5
227
100
AcDbEntity
  8
text
 62
7
100
AcDbLine
 10
27.180845
 20
120.980105
 30
0.0
 11
27.903497
 21
120.980105
 31
0.0
  0
LINE
  5
228
100
AcDbEntity
  8
text
 62
7
100
AcDbLine
 10
27.180845
 20
119.987892
 30
0.0
 11
28.356589
 21
119.987892
 31
0.0
  0
LINE
  5
229
100
AcDbEntity
  8
text
 62
7
100
AcDbLine
 10
28.895717
 20
121.886288
 30
0.0
 11
28.895717
 21
119.987892
 31
0.0
  0
LINE
  5
22a
100
AcDbEntity
  8
text
 62
7
100
AcDbLine
 10
28.895717
 20
121.886288
 30
0.0
 11
29.710135
 21
121.886288
 31
0.0
  0
LINE
  5
22b
100
AcDbEntity
  8
text
 62
7
100
AcDbLine
 10
29.710135
 20
121.886288
 30
0.0
 11
29.979696
 21
121.794522
 31
0.0
  0
LINE
  5
22c
100
AcDbEntity
  8
text
 62
7
100
AcDbLine
 10
29.979696
 20
121.794522
 30
0.0
 11
30.071461
 21
121.702757
 31
0.0
  0
LINE
  5
22d
100
AcDbEntity
  8
text
 62
7
100
AcDbLine
 10
30.071461
 20
121.702757
 30
0.0
 11
30.163226
 21
121.524962
 31
0.0
  0
LINE
  5
22e
100
AcDbEntity
  8
text
 62
7
100
AcDbLine
 10
30.163226
 20
121.524962
 30
0.0
 11
30.163226
 21
121.341431
 31
0.0
  0
LINE
  5
22f
100
AcDbEntity
  8
text
 62
7
100
AcDbLine
 10
30.163226
 20
121.341431
 30
0.0
 11
30.071461
 21
121.163635
 31
0.0
  0
LINE
  5
230
100
AcDbEntity
  8
text
 62
7
100
AcDbLine
 10
30.071461
 20
121.163635
 30
0.0
 11
29.979696
 21
121.071870
 31
0.0
  0
LINE
  5
231
100
AcDbEntity
  8
text
 62
7
100
AcDbLine
 10
29.979696
 20
121.071870
 30
0.0
 11
29.710135
 21
120.980105
 31
0.0
  0
LINE
  5
232
100
AcDbEntity
  8
text
 62
7
100
AcDbLine
 10
29.710135
 20
120.980105
 30
0.0
 11
28.895717
 21
120.980105
 31
0.0
  0
LINE
  5
233
100
AcDbEntity
  8
text
 62
7
100
AcDbLine
 10
29.529472
 20
120.980105
 30
0.0
 11
30.163226
 21
119.987892
 31
0.0
  0
LINE
  5
234
100
AcDbEntity
  8
text
 62
7
100
AcDbLine
 10
31.155423
 20
121.886288
 30
0.0
 11
31.155423
 21
119.987892
 31
0.0
  0
LINE
  5
235
100
AcDbEntity
  8
text
 62
7
100
AcDbLine
 10
30.524536
 20
121.886288
 30
0.0
 11
31.789177
 21
121.886288
 31
0.0
  0
LINE
  5
236
100
AcDbEntity
  8
text
 62
7
100
AcDbLine
 10
32.239397
 20
121.886288
 30
0.0
 11
32.239397
 21
119.987892
 31
0.0
  0
LINE
  5
237
100
AcDbEntity
  8
text
 62
7
100
AcDbLine
 10
32.239397
 20
121.886288
 30
0.0
 11
33.415141
 21
121.886288
 31
0.0
  0
LINE
  5
238
100
AcDbEntity
  8
text
 62
7
100
AcDbLine
 10
32.239397
 20
120.980105
 30
0.0
 11
32.962050
 21
120.980105
 31
0.0
  0
LINE
  5
239
100
AcDbEntity
  8
text
 62
7
100
AcDbLine
 10
32.239397
 20
119.987892
 30
0.0
 11
33.415141
 21
119.987892
 31
0.0
  0
LINE
  5
23a
100
AcDbEntity
  8
text
 62
7
100
AcDbLine
 10
33.954269
 20
121.886288
 30
0.0
 11
33.954269
 21
119.987892
 31
0.0
  0
LINE
  5
23b
100
AcDbEntity
  8
text
 62
7
100
AcDbLine
 10
33.954269
 20
121.886288
 30
0.0
 11
34.768687
 21
121.886288
 31
0.0
  0
LINE
  5
23c
100
AcDbEntity
  8
text
 62
7
100
AcDbLine
 10
34.768687
 20
121.886288
 30
0.0
 11
35.038248
 21
121.794522
 31
0.0
  0
LINE
  5
23d
100
AcDbEntity
  8
text
 62
7
100
AcDbLine
 10
35.038248
 20
121.794522
 30
0.0
 11
35.130013
 21
121.702757
 31
0.0
  0
LINE
  5
23e
100
AcDbEntity
  8
text
 62
7
100
AcDbLine
 10
35.130013
 20
121.702757
 30
0.0
 11
35.221779
 21
121.524962
 31
0.0
  0
LINE
  5
23f
100
AcDbEntity
  8
text
 62
7
100
AcDbLine
 10
35.221779
 20
121.524962
 30
0.0
 11
35.221779
 21
121.341431
 31
0.0
  0
LINE
  5
240
100
AcDbEntity
  8
text
 62
7
100
AcDbLine
 10
35.221779
 20
121.341431
 30
0.0
 11
35.130013
 21
121.163635
 31
0.0
  0
LINE
  5
241
100
AcDbEntity
  8
text
 62
7
100
AcDbLine
 10
35.130013
 20
121.163635
 30
0.0
 11
35.038248
 21
121.071870
 31
0.0
  0
LINE
  5
242
100
AcDbEntity
  8
text
 62
7
100
AcDbLine
 10
35.038248
 20
121.071870
 30
0.0
 11
34.768687
 21
120.980105
 31
0.0
  0
LINE
  5
243
100
AcDbEntity
  8
text
 62
7
100
AcDbLine
 10
34.768687
 20
120.980105
 30
0.0
 11
33.954269
 21
120.980105
 31
0.0
  0
LINE
  5
244
100
AcDbEntity
  8
text
 62
7
100
AcDbLine
 10
34.588024
 20
120.980105
 30
0.0
 11
35.221779
 21
119.987892
 31
0.0
  0
LINE
  5
245
100
AcDbEntity
  8
text
 62
7
100
AcDbLine
 10
10.336985
 20
125.395793
 30
0.0
 11
10.336985
 21
123.301803
 31
0.0
  0
LINE
  5
246
100
AcDbEntity
  8
text
 62
7
100
AcDbLine
 10
10.336985
 20
125.395793
 30
0.0
 11
11.235313
 21
125.395793
 31
0.0
  0
LINE
  5
247
100
AcDbEntity
  8
text
 62
7
100
AcDbLine
 10
11.235313
 20
125.395793
 30
0.0
 11
11.532647
 21
125.294573
 31
0.0
  0
LINE
  5
248
100
AcDbEntity
  8
text
 62
7
100
AcDbLine
 10
11.532647
 20
125.294573
 30
0.0
 11
11.633867
 21
125.193353
 31
0.0
  0
LINE
  5
249
100
AcDbEntity
  8
text
 62
7
100
AcDbLine
 10
11.633867
 20
125.193353
 30
0.0
 11
11.735087
 21
124.997239
 31
0.0
  0
LINE
  5
24a
100
AcDbEntity
  8
text
 62
7
100
AcDbLine
 10
11.735087
 20
124.997239
 30
0.0
 11
11.735087
 21
124.794799
 31
0.0
  0
LINE
  5
24b
100
AcDbEntity
  8
text
 62
7
100
AcDbLine
 10
11.735087
 20
124.794799
 30
0.0
 11
11.633867
 21
124.598685
 31
0.0
  0
LINE
  5
24c
100
AcDbEntity
  8
text
 62
7
100
AcDbLine
 10
11.633867
 20
124.598685
 30
0.0
 11
11.532647
 21
124.497465
 31
0.0
  0
LINE
  5
24d
100
AcDbEntity
  8
text
 62
7
100
AcDbLine
 10
11.532647
 20
124.497465
 30
0.0
 11
11.235313
 21
124.396245
 31
0.0
  0
LINE
  5
24e
100
AcDbEntity
  8
text
 62
7
100
AcDbLine
 10
11.235313
 20
124.396245
 30
0.0
 11
10.336985
 21
124.396245
 31
0.0
  0
LINE
  5
24f
100
AcDbEntity
  8
text
 62
7
100
AcDbLine
 10
11.036036
 20
124.396245
 30
0.0
 11
11.735087
 21
123.301803
 31
0.0
  0
LINE
  5
250
100
AcDbEntity
  8
text
 62
7
100
AcDbLine
 10
12.829533
 20
124.696742
 30
0.0
 11
12.633419
 21
124.598685
 31
0.0
  0
LINE
  5
251
100
AcDbEntity
  8
text
 62
7
100
AcDbLine
 10
12.633419
 20
124.598685
 30
0.0
 11
12.430979
 21
124.396245
 31
0.0
  0
LINE
  5
252
100
AcDbEntity
  8
text
 62
7
100
AcDbLine
 10
12.430979
 20
124.396245
 30
0.0
 11
12.332922
 21
124.098911
 31
0.0
  0
LINE
  5
253
100
AcDbEntity
  8
text
 62
7
100
AcDbLine
 10
12.332922
 20
124.098911
 30
0.0
 11
12.332922
 21
123.899634
 31
0.0
  0
LINE
  5
254
100
AcDbEntity
  8
text
 62
7
100
AcDbLine
 10
12.332922
 20
123.899634
 30
0.0
 11
12.430979
 21
123.600718
 31
0.0
  0
LINE
  5
255
100
AcDbEntity
  8
text
 62
7
100
AcDbLine
 10
12.430979
 20
123.600718
 30
0.0
 11
12.633419
 21
123.401441
 31
0.0
  0
LINE
  5
256
100
AcDbEntity
  8
text
 62
7
100
AcDbLine
 10
12.633419
 20
123.401441
 30
0.0
 11
12.829533
 21
123.301803
 31
0.0
  0
LINE
  5
257
100
AcDbEntity
  8
text
 62
7
100
AcDbLine
 10
12.829533
 20
123.301803
 30
0.0
 11
13.130030
 21
123.301803
 31
0.0
  0
LINE
  5
258
100
AcDbEntity
  8
text
 62
7
100
AcDbLine
 10
13.130030
 20
123.301803
 30
0.0
 11
13.329307
 21
123.401441
 31
0.0
  0
LINE
  5
259
100
AcDbEntity
  8
text
 62
7
100
AcDbLine
 10
13.329307
 20
123.401441
 30
0.0
 11
13.528584
 21
123.600718
 31
0.0
  0
LINE
  5
25a
100
AcDbEntity
  8
text
 62
7
100
AcDbLine
 10
13.528584
 20
123.600718
 30
0.0
 11
13.626641
 21
123.899634
 31
0.0
  0
LINE
  5
25b
100
AcDbEntity
  8
text
 62
7
100
AcDbLine
 10
13.626641
 20
123.899634
 30
0.0
 11
13.626641
 21
124.098911
 31
0.0
  0
LINE
  5
25c
100
AcDbEntity
  8
text
 62
7
100
AcDbLine
 10
13.626641
 20
124.098911
 30
0.0
 11
13.528584
 21
124.396245
 31
0.0
  0
LINE
  5
25d
100
AcDbEntity
  8
text
 62
7
100
AcDbLine
 10
13.528584
 20
124.396245
 30
0.0
 11
13.329307
 21
124.598685
 31
0.0
  0
LINE
  5
25e
100
AcDbEntity
  8
text
 62
7
100
AcDbLine
 10
13.329307
 20
124.598685
 30
0.0
 11
13.130030
 21
124.696742
 31
0.0
  0
LINE
  5
25f
100
AcDbEntity
  8
text
 62
7
100
AcDbLine
 10
13.130030
 20
124.696742
 30
0.0
 11
12.829533
 21
124.696742
 31
0.0
  0
LINE
  5
260
100
AcDbEntity
  8
text
 62
7
100
AcDbLine
 10
14.322525
 20
125.395793
 30
0.0
 11
14.322525
 21
123.301803
 31
0.0
  0
LINE
  5
261
100
AcDbEntity
  8
text
 62
7
100
AcDbLine
 10
14.322525
 20
124.396245
 30
0.0
 11
14.524965
 21
124.598685
 31
0.0
  0
LINE
  5
262
100
AcDbEntity
  8
text
 62
7
100
AcDbLine
 10
14.524965
 20
124.598685
 30
0.0
 11
14.721079
 21
124.696742
 31
0.0
  0
LINE
  5
263
100
AcDbEntity
  8
text
 62
7
100
AcDbLine
 10
14.721079
 20
124.696742
 30
0.0
 11
15.021576
 21
124.696742
 31
0.0
  0
LINE
  5
264
100
AcDbEntity
  8
text
 62
7
100
AcDbLine
 10
15.021576
 20
124.696742
 30
0.0
 11
15.220853
 21
124.598685
 31
0.0
  0
LINE
  5
265
100
AcDbEntity
  8
text
 62
7
100
AcDbLine
 10
15.220853
 20
124.598685
 30
0.0
 11
15.420130
 21
124.396245
 31
0.0
  0
LINE
  5
266
100
AcDbEntity
  8
text
 62
7
100
AcDbLine
 10
15.420130
 20
124.396245
 30
0.0
 11
15.518187
 21
124.098911
 31
0.0
  0
LINE
  5
267
100
AcDbEntity
  8
text
 62
7
100
AcDbLine
 10
15.518187
 20
124.098911
 30
0.0
 11
15.518187
 21
123.899634
 31
0.0
  0
LINE
  5
268
100
AcDbEntity
  8
text
 62
7
100
AcDbLine
 10
15.518187
 20
123.899634
 30
0.0
 11
15.420130
 21
123.600718
 31
0.0
  0
LINE
  5
269
100
AcDbEntity
  8
text
 62
7
100
AcDbLine
 10
15.420130
 20
123.600718
 30
0.0
 11
15.220853
 21
123.401441
 31
0.0
  0
LINE
  5
26a
100
AcDbEntity
  8
text
 62
7
100
AcDbLine
 10
15.220853
 20
123.401441
 30
0.0
 11
15.021576
 21
123.301803
 31
0.0
  0
LINE
  5
26b
100
AcDbEntity
  8
text
 62
7
100
AcDbLine
 10
15.021576
 20
123.301803
 30
0.0
 11
14.721079
 21
123.301803
 31
0.0
  0
LINE
  5
26c
100
AcDbEntity
  8
text
 62
7
100
AcDbLine
 10
14.721079
 20
123.301803
 30
0.0
 11
14.524965
 21
123.401441
 31
0.0
  0
LINE
  5
26d
100
AcDbEntity
  8
text
 62
7
100
AcDbLine
 10
14.524965
 20
123.401441
 30
0.0
 11
14.322525
 21
123.600718
 31
0.0
  0
LINE
  5
26e
100
AcDbEntity
  8
text
 62
7
100
AcDbLine
 10
16.612625
 20
124.696742
 30
0.0
 11
16.416511
 21
124.598685
 31
0.0
  0
LINE
  5
26f
100
AcDbEntity
  8
text
 62
7
100
AcDbLine
 10
16.416511
 20
124.598685
 30
0.0
 11
16.214071
 21
124.396245
 31
0.0
  0
LINE
  5
270
100
AcDbEntity
  8
text
 62
7
100
AcDbLine
 10
16.214071
 20
124.396245
 30
0.0
 11
16.116014
 21
124.098911
 31
0.0
  0
LINE
  5
271
100
AcDbEntity
  8
text
 62
7
100
AcDbLine
 10
16.116014
 20
124.098911
 30
0.0
 11
16.116014
 21
123.899634
 31
0.0
  0
LINE
  5
272
100
AcDbEntity
  8
text
 62
7
100
AcDbLine
 10
16.116014
 20
123.899634
 30
0.0
 11
16.214071
 21
123.600718
 31
0.0
  0
LINE
  5
273
100
AcDbEntity
  8
text
 62
7
100
AcDbLine
 10
16.214071
 20
123.600718
 30
0.0
 11
16.416511
 21
123.401441
 31
0.0
  0
LINE
  5
274
100
AcDbEntity
  8
text
 62
7
100
AcDbLine
 10
16.416511
 20
123.401441
 30
0.0
 11
16.612625
 21
123.301803
 31
0.0
  0
LINE
  5
275
100
AcDbEntity
  8
text
 62
7
100
AcDbLine
 10
16.612625
 20
123.301803
 30
0.0
 11
16.913122
 21
123.301803
 31
0.0
  0
LINE
  5
276
100
AcDbEntity
  8
text
 62
7
100
AcDbLine
 10
16.913122
 20
123.301803
 30
0.0
 11
17.112399
 21
123.401441
 31
0.0
  0
LINE
  5
277
100
AcDbEntity
  8
text
 62
7
100
AcDbLine
 10
17.112399
 20
123.401441
 30
0.0
 11
17.311676
 21
123.600718
 31
0.0
  0
LINE
  5
278
100
AcDbEntity
  8
text
 62
7
100
AcDbLine
 10
17.311676
 20
123.600718
 30
0.0
 11
17.409733
 21
123.899634
 31
0.0
  0
LINE
  5
279
100
AcDbEntity
  8
text
 62
7
100
AcDbLine
 10
17.409733
 20
123.899634
 30
0.0
 11
17.409733
 21
124.098911
 31
0.0
  0
LINE
  5
27a
100
AcDbEntity
  8
text
 62
7
100
AcDbLine
 10
17.409733
 20
124.098911
 30
0.0
 11
17.311676
 21
124.396245
 31
0.0
  0
LINE
  5
27b
100
AcDbEntity
  8
text
 62
7
100
AcDbLine
 10
17.311676
 20
124.396245
 30
0.0
 11
17.112399
 21
124.598685
 31
0.0
  0
LINE
  5
27c
100
AcDbEntity
  8
text
 62
7
100
AcDbLine
 10
17.112399
 20
124.598685
 30
0.0
 11
16.913122
 21
124.696742
 31
0.0
  0
LINE
  5
27d
100
AcDbEntity
  8
text
 62
7
100
AcDbLine
 10
16.913122
 20
124.696742
 30
0.0
 11
16.612625
 21
124.696742
 31
0.0
  0
LINE
  5
27e
100
AcDbEntity
  8
text
 62
7
100
AcDbLine
 10
18.206849
 20
125.395793
 30
0.0
 11
18.206849
 21
123.700357
 31
0.0
  0
LINE
  5
27f
100
AcDbEntity
  8
text
 62
7
100
AcDbLine
 10
18.206849
 20
123.700357
 30
0.0
 11
18.308069
 21
123.401441
 31
0.0
  0
LINE
  5
280
100
AcDbEntity
  8
text
 62
7
100
AcDbLine
 10
18.308069
 20
123.401441
 30
0.0
 11
18.504183
 21
123.301803
 31
0.0
  0
LINE
  5
281
100
AcDbEntity
  8
text
 62
7
100
AcDbLine
 10
18.504183
 20
123.301803
 30
0.0
 11
18.706623
 21
123.301803
 31
0.0
  0
LINE
  5
282
100
AcDbEntity
  8
text
 62
7
100
AcDbLine
 10
17.909515
 20
124.696742
 30
0.0
 11
18.605403
 21
124.696742
 31
0.0
  0
LINE
  5
283
100
AcDbEntity
  8
text
 62
7
100
AcDbLine
 10
19.301287
 20
125.395793
 30
0.0
 11
19.301287
 21
123.301803
 31
0.0
  0
LINE
  5
284
100
AcDbEntity
  8
text
 62
7
100
AcDbLine
 10
19.301287
 20
125.395793
 30
0.0
 11
20.000338
 21
125.395793
 31
0.0
  0
LINE
  5
285
100
AcDbEntity
  8
text
 62
7
100
AcDbLine
 10
20.000338
 20
125.395793
 30
0.0
 11
20.300835
 21
125.294573
 31
0.0
  0
LINE
  5
286
100
AcDbEntity
  8
text
 62
7
100
AcDbLine
 10
20.300835
 20
125.294573
 30
0.0
 11
20.496949
 21
125.095296
 31
0.0
  0
LINE
  5
287
100
AcDbEntity
  8
text
 62
7
100
AcDbLine
 10
20.496949
 20
125.095296
 30
0.0
 11
20.598169
 21
124.896019
 31
0.0
  0
LINE
  5
288
100
AcDbEntity
  8
text
 62
7
100
AcDbLine
 10
20.598169
 20
124.896019
 30
0.0
 11
20.699389
 21
124.598685
 31
0.0
  0
LINE
  5
289
100
AcDbEntity
  8
text
 62
7
100
AcDbLine
 10
20.699389
 20
124.598685
 30
0.0
 11
20.699389
 21
124.098911
 31
0.0
  0
LINE
  5
28a
100
AcDbEntity
  8
text
 62
7
100
AcDbLine
 10
20.699389
 20
124.098911
 30
0.0
 11
20.598169
 21
123.801577
 31
0.0
  0
LINE
  5
28b
100
AcDbEntity
  8
text
 62
7
100
AcDbLine
 10
20.598169
 20
123.801577
 30
0.0
 11
20.496949
 21
123.600718
 31
0.0
  0
LINE
  5
28c
100
AcDbEntity
  8
text
 62
7
100
AcDbLine
 10
20.496949
 20
123.600718
 30
0.0
 11
20.300835
 21
123.401441
 31
0.0
  0
LINE
  5
28d
100
AcDbEntity
  8
text
 62
7
100
AcDbLine
 10
20.300835
 20
123.401441
 30
0.0
 11
20.000338
 21
123.301803
 31
0.0
  0
LINE
  5
28e
100
AcDbEntity
  8
text
 62
7
100
AcDbLine
 10
20.000338
 20
123.301803
 30
0.0
 11
19.301287
 21
123.301803
 31
0.0
  0
LINE
  5
28f
100
AcDbEntity
  8
text
 62
7
100
AcDbLine
 10
21.297225
 20
125.395793
 30
0.0
 11
21.395282
 21
125.294573
 31
0.0
  0
LINE
  5
290
100
AcDbEntity
  8
text
 62
7
100
AcDbLine
 10
21.395282
 20
125.294573
 30
0.0
 11
21.496502
 21
125.395793
 31
0.0
  0
LINE
  5
291
100
AcDbEntity
  8
text
 62
7
100
AcDbLine
 10
21.496502
 20
125.395793
 30
0.0
 11
21.395282
 21
125.493850
 31
0.0
  0
LINE
  5
292
100
AcDbEntity
  8
text
 62
7
100
AcDbLine
 10
21.395282
 20
125.493850
 30
0.0
 11
21.297225
 21
125.395793
 31
0.0
  0
LINE
  5
293
100
AcDbEntity
  8
text
 62
7
100
AcDbLine
 10
21.395282
 20
124.696742
 30
0.0
 11
21.395282
 21
123.301803
 31
0.0
  0
LINE
  5
294
100
AcDbEntity
  8
text
 62
7
100
AcDbLine
 10
23.289970
 20
124.696742
 30
0.0
 11
23.289970
 21
123.301803
 31
0.0
  0
LINE
  5
295
100
AcDbEntity
  8
text
 62
7
100
AcDbLine
 10
23.289970
 20
124.396245
 30
0.0
 11
23.090693
 21
124.598685
 31
0.0
  0
LINE
  5
296
100
AcDbEntity
  8
text
 62
7
100
AcDbLine
 10
23.090693
 20
124.598685
 30
0.0
 11
22.891416
 21
124.696742
 31
0.0
  0
LINE
  5
297
100
AcDbEntity
  8
text
 62
7
100
AcDbLine
 10
22.891416
 20
124.696742
 30
0.0
 11
22.590919
 21
124.696742
 31
0.0
  0
LINE
  5
298
100
AcDbEntity
  8
text
 62
7
100
AcDbLine
 10
22.590919
 20
124.696742
 30
0.0
 11
22.394805
 21
124.598685
 31
0.0
  0
LINE
  5
299
100
AcDbEntity
  8
text
 62
7
100
AcDbLine
 10
22.394805
 20
124.598685
 30
0.0
 11
22.192365
 21
124.396245
 31
0.0
  0
LINE
  5
29a
100
AcDbEntity
  8
text
 62
7
100
AcDbLine
 10
22.192365
 20
124.396245
 30
0.0
 11
22.094308
 21
124.098911
 31
0.0
  0
LINE
  5
29b
100
AcDbEntity
  8
text
 62
7
100
AcDbLine
 10
22.094308
 20
124.098911
 30
0.0
 11
22.094308
 21
123.899634
 31
0.0
  0
LINE
  5
29c
100
AcDbEntity
  8
text
 62
7
100
AcDbLine
 10
22.094308
 20
123.899634
 30
0.0
 11
22.192365
 21
123.600718
 31
0.0
  0
LINE
  5
29d
100
AcDbEntity
  8
text
 62
7
100
AcDbLine
 10
22.192365
 20
123.600718
 30
0.0
 11
22.394805
 21
123.401441
 31
0.0
  0
LINE
  5
29e
100
AcDbEntity
  8
text
 62
7
100
AcDbLine
 10
22.394805
 20
123.401441
 30
0.0
 11
22.590919
 21
123.301803
 31
0.0
  0
LINE
  5
29f
100
AcDbEntity
  8
text
 62
7
100
AcDbLine
 10
22.590919
 20
123.301803
 30
0.0
 11
22.891416
 21
123.301803
 31
0.0
  0
LINE
  5
2a0
100
AcDbEntity
  8
text
 62
7
100
AcDbLine
 10
22.891416
 20
123.301803
 30
0.0
 11
23.090693
 21
123.401441
 31
0.0
  0
LINE
  5
2a1
100
AcDbEntity
  8
text
 62
7
100
AcDbLine
 10
23.090693
 20
123.401441
 30
0.0
 11
23.289970
 21
123.600718
 31
0.0
  0
LINE
  5
2a2
100
AcDbEntity
  8
text
 62
7
100
AcDbLine
 10
24.083922
 20
125.395793
 30
0.0
 11
24.083922
 21
123.301803
 31
0.0
  0
LINE
  5
2a3
100
AcDbEntity
  8
text
 62
7
100
AcDbLine
 10
25.279582
 20
124.696742
 30
0.0
 11
25.083468
 21
124.598685
 31
0.0
  0
LINE
  5
2a4
100
AcDbEntity
  8
text
 62
7
100
AcDbLine
 10
25.083468
 20
124.598685
 30
0.0
 11
24.881028
 21
124.396245
 31
0.0
  0
LINE
  5
2a5
100
AcDbEntity
  8
text
 62
7
100
AcDbLine
 10
24.881028
 20
124.396245
 30
0.0
 11
24.782971
 21
124.098911
 31
0.0
  0
LINE
  5
2a6
100
AcDbEntity
  8
text
 62
7
100
AcDbLine
 10
24.782971
 20
124.098911
 30
0.0
 11
24.782971
 21
123.899634
 31
0.0
  0
LINE
  5
2a7
100
AcDbEntity
  8
text
 62
7
100
AcDbLine
 10
24.782971
 20
123.899634
 30
0.0
 11
24.881028
 21
123.600718
 31
0.0
  0
LINE
  5
2a8
100
AcDbEntity
  8
text
 62
7
100
AcDbLine
 10
24.881028
 20
123.600718
 30
0.0
 11
25.083468
 21
123.401441
 31
0.0
  0
LINE
  5
2a9
100
AcDbEntity
  8
text
 62
7
100
AcDbLine
 10
25.083468
 20
123.401441
 30
0.0
 11
25.279582
 21
123.301803
 31
0.0
  0
LINE
  5
2aa
100
AcDbEntity
  8
text
 62
7
100
AcDbLine
 10
25.279582
 20
123.301803
 30
0.0
 11
25.580079
 21
123.301803
 31
0.0
  0
LINE
  5
2ab
100
AcDbEntity
  8
text
 62
7
100
AcDbLine
 10
25.580079
 20
123.301803
 30
0.0
 11
25.779356
 21
123.401441
 31
0.0
  0
LINE
  5
2ac
100
AcDbEntity
  8
text
 62
7
100
AcDbLine
 10
25.779356
 20
123.401441
 30
0.0
 11
25.978633
 21
123.600718
 31
0.0
  0
LINE
  5
2ad
100
AcDbEntity
  8
text
 62
7
100
AcDbLine
 10
25.978633
 20
123.600718
 30
0.0
 11
26.076690
 21
123.899634
 31
0.0
  0
LINE
  5
2ae
100
AcDbEntity
  8
text
 62
7
100
AcDbLine
 10
26.076690
 20
123.899634
 30
0.0
 11
26.076690
 21
124.098911
 31
0.0
  0
LINE
  5
2af
100
AcDbEntity
  8
text
 62
7
100
AcDbLine
 10
26.076690
 20
124.098911
 30
0.0
 11
25.978633
 21
124.396245
 31
0.0
  0
LINE
  5
2b0
100
AcDbEntity
  8
text
 62
7
100
AcDbLine
 10
25.978633
 20
124.396245
 30
0.0
 11
25.779356
 21
124.598685
 31
0.0
  0
LINE
  5
2b1
100
AcDbEntity
  8
text
 62
7
100
AcDbLine
 10
25.779356
 20
124.598685
 30
0.0
 11
25.580079
 21
124.696742
 31
0.0
  0
LINE
  5
2b2
100
AcDbEntity
  8
text
 62
7
100
AcDbLine
 10
25.580079
 20
124.696742
 30
0.0
 11
25.279582
 21
124.696742
 31
0.0
  0
LINE
  5
2b3
100
AcDbEntity
  8
text
 62
7
100
AcDbLine
 10
27.870191
 20
124.696742
 30
0.0
 11
27.870191
 21
123.102526
 31
0.0
  0
LINE
  5
2b4
100
AcDbEntity
  8
text
 62
7
100
AcDbLine
 10
27.870191
 20
123.102526
 30
0.0
 11
27.772134
 21
122.802029
 31
0.0
  0
LINE
  5
2b5
100
AcDbEntity
  8
text
 62
7
100
AcDbLine
 10
27.772134
 20
122.802029
 30
0.0
 11
27.670914
 21
122.703972
 31
0.0
  0
LINE
  5
2b6
100
AcDbEntity
  8
text
 62
7
100
AcDbLine
 10
27.670914
 20
122.703972
 30
0.0
 11
27.471637
 21
122.605915
 31
0.0
  0
LINE
  5
2b7
100
AcDbEntity
  8
text
 62
7
100
AcDbLine
 10
27.471637
 20
122.605915
 30
0.0
 11
27.171140
 21
122.605915
 31
0.0
  0
LINE
  5
2b8
100
AcDbEntity
  8
text
 62
7
100
AcDbLine
 10
27.171140
 20
122.605915
 30
0.0
 11
26.975026
 21
122.703972
 31
0.0
  0
LINE
  5
2b9
100
AcDbEntity
  8
text
 62
7
100
AcDbLine
 10
27.870191
 20
124.396245
 30
0.0
 11
27.670914
 21
124.598685
 31
0.0
  0
LINE
  5
2ba
100
AcDbEntity
  8
text
 62
7
100
AcDbLine
 10
27.670914
 20
124.598685
 30
0.0
 11
27.471637
 21
124.696742
 31
0.0
  0
LINE
  5
2bb
100
AcDbEntity
  8
text
 62
7
100
AcDbLine
 10
27.471637
 20
124.696742
 30
0.0
 11
27.171140
 21
124.696742
 31
0.0
  0
LINE
  5
2bc
100
AcDbEntity
  8
text
 62
7
100
AcDbLine
 10
27.171140
 20
124.696742
 30
0.0
 11
26.975026
 21
124.598685
 31
0.0
  0
LINE
  5
2bd
100
AcDbEntity
  8
text
 62
7
100
AcDbLine
 10
26.975026
 20
124.598685
 30
0.0
 11
26.772586
 21
124.396245
 31
0.0
  0
LINE
  5
2be
100
AcDbEntity
  8
text
 62
7
100
AcDbLine
 10
26.772586
 20
124.396245
 30
0.0
 11
26.674529
 21
124.098911
 31
0.0
  0
LINE
  5
2bf
100
AcDbEntity
  8
text
 62
7
100
AcDbLine
 10
26.674529
 20
124.098911
 30
0.0
 11
26.674529
 21
123.899634
 31
0.0
  0
LINE
  5
2c0
100
AcDbEntity
  8
text
 62
7
100
AcDbLine
 10
26.674529
 20
123.899634
 30
0.0
 11
26.772586
 21
123.600718
 31
0.0
  0
LINE
  5
2c1
100
AcDbEntity
  8
text
 62
7
100
AcDbLine
 10
26.772586
 20
123.600718
 30
0.0
 11
26.975026
 21
123.401441
 31
0.0
  0
LINE
  5
2c2
100
AcDbEntity
  8
text
 62
7
100
AcDbLine
 10
26.975026
 20
123.401441
 30
0.0
 11
27.171140
 21
123.301803
 31
0.0
  0
LINE
  5
2c3
100
AcDbEntity
  8
text
 62
7
100
AcDbLine
 10
27.171140
 20
123.301803
 30
0.0
 11
27.471637
 21
123.301803
 31
0.0
  0
LINE
  5
2c4
100
AcDbEntity
  8
text
 62
7
100
AcDbLine
 10
27.471637
 20
123.301803
 30
0.0
 11
27.670914
 21
123.401441
 31
0.0
  0
LINE
  5
2c5
100
AcDbEntity
  8
text
 62
7
100
AcDbLine
 10
27.670914
 20
123.401441
 30
0.0
 11
27.870191
 21
123.600718
 31
0.0
  0
LINE
  5
2c6
100
AcDbEntity
  8
text
 62
7
100
AcDbLine
 10
29.663691
 20
124.396245
 30
0.0
 11
29.562471
 21
124.598685
 31
0.0
  0
LINE
  5
2c7
100
AcDbEntity
  8
text
 62
7
100
AcDbLine
 10
29.562471
 20
124.598685
 30
0.0
 11
29.265137
 21
124.696742
 31
0.0
  0
LINE
  5
2c8
100
AcDbEntity
  8
text
 62
7
100
AcDbLine
 10
29.265137
 20
124.696742
 30
0.0
 11
28.964640
 21
124.696742
 31
0.0
  0
LINE
  5
2c9
100
AcDbEntity
  8
text
 62
7
100
AcDbLine
 10
28.964640
 20
124.696742
 30
0.0
 11
28.664143
 21
124.598685
 31
0.0
  0
LINE
  5
2ca
100
AcDbEntity
  8
text
 62
7
100
AcDbLine
 10
28.664143
 20
124.598685
 30
0.0
 11
28.566086
 21
124.396245
 31
0.0
  0
LINE
  5
2cb
100
AcDbEntity
  8
text
 62
7
100
AcDbLine
 10
28.566086
 20
124.396245
 30
0.0
 11
28.664143
 21
124.200131
 31
0.0
  0
LINE
  5
2cc
100
AcDbEntity
  8
text
 62
7
100
AcDbLine
 10
28.664143
 20
124.200131
 30
0.0
 11
28.866583
 21
124.098911
 31
0.0
  0
LINE
  5
2cd
100
AcDbEntity
  8
text
 62
7
100
AcDbLine
 10
28.866583
 20
124.098911
 30
0.0
 11
29.363194
 21
123.997691
 31
0.0
  0
LINE
  5
2ce
100
AcDbEntity
  8
text
 62
7
100
AcDbLine
 10
29.363194
 20
123.997691
 30
0.0
 11
29.562471
 21
123.899634
 31
0.0
  0
LINE
  5
2cf
100
AcDbEntity
  8
text
 62
7
100
AcDbLine
 10
29.562471
 20
123.899634
 30
0.0
 11
29.663691
 21
123.700357
 31
0.0
  0
LINE
  5
2d0
100
AcDbEntity
  8
text
 62
7
100
AcDbLine
 10
29.663691
 20
123.700357
 30
0.0
 11
29.663691
 21
123.600718
 31
0.0
  0
LINE
  5
2d1
100
AcDbEntity
  8
text
 62
7
100
AcDbLine
 10
29.663691
 20
123.600718
 30
0.0
 11
29.562471
 21
123.401441
 31
0.0
  0
LINE
  5
2d2
100
AcDbEntity
  8
text
 62
7
100
AcDbLine
 10
29.562471
 20
123.401441
 30
0.0
 11
29.265137
 21
123.301803
 31
0.0
  0
LINE
  5
2d3
100
AcDbEntity
  8
text
 62
7
100
AcDbLine
 10
29.265137
 20
123.301803
 30
0.0
 11
28.964640
 21
123.301803
 31
0.0
  0
LINE
  5
2d4
100
AcDbEntity
  8
text
 62
7
100
AcDbLine
 10
28.964640
 20
123.301803
 30
0.0
 11
28.664143
 21
123.401441
 31
0.0
  0
LINE
  5
2d5
100
AcDbEntity
  8
text
 62
7
100
AcDbLine
 10
28.664143
 20
123.401441
 30
0.0
 11
28.566086
 21
123.600718
 31
0.0
  0
LINE
  5
2d6
100
AcDbEntity
  8
text
 62
7
100
AcDbLine
 10
27.739003
 20
118.380816
 30
0.0
 11
27.561202
 21
118.290505
 31
0.0
  0
LINE
  5
2d7
100
AcDbEntity
  8
text
 62
7
100
AcDbLine
 10
27.561202
 20
118.290505
 30
0.0
 11
27.383402
 21
118.112704
 31
0.0
  0
LINE
  5
2d8
100
AcDbEntity
  8
text
 62
7
100
AcDbLine
 10
27.383402
 20
118.112704
 30
0.0
 11
27.293091
 21
117.934904
 31
0.0
  0
LINE
  5
2d9
100
AcDbEntity
  8
text
 62
7
100
AcDbLine
 10
27.293091
 20
117.934904
 30
0.0
 11
27.205601
 21
117.669614
 31
0.0
  0
LINE
  5
2da
100
AcDbEntity
  8
text
 62
7
100
AcDbLine
 10
27.205601
 20
117.669614
 30
0.0
 11
27.205601
 21
117.223702
 31
0.0
  0
LINE
  5
2db
100
AcDbEntity
  8
text
 62
7
100
AcDbLine
 10
27.205601
 20
117.223702
 30
0.0
 11
27.293091
 21
116.958412
 31
0.0
  0
LINE
  5
2dc
100
AcDbEntity
  8
text
 62
7
100
AcDbLine
 10
27.293091
 20
116.958412
 30
0.0
 11
27.383402
 21
116.779201
 31
0.0
  0
LINE
  5
2dd
100
AcDbEntity
  8
text
 62
7
100
AcDbLine
 10
27.383402
 20
116.779201
 30
0.0
 11
27.561202
 21
116.601400
 31
0.0
  0
LINE
  5
2de
100
AcDbEntity
  8
text
 62
7
100
AcDbLine
 10
27.561202
 20
116.601400
 30
0.0
 11
27.739003
 21
116.512500
 31
0.0
  0
LINE
  5
2df
100
AcDbEntity
  8
text
 62
7
100
AcDbLine
 10
27.739003
 20
116.512500
 30
0.0
 11
28.094604
 21
116.512500
 31
0.0
  0
LINE
  5
2e0
100
AcDbEntity
  8
text
 62
7
100
AcDbLine
 10
28.094604
 20
116.512500
 30
0.0
 11
28.272404
 21
116.601400
 31
0.0
  0
LINE
  5
2e1
100
AcDbEntity
  8
text
 62
7
100
AcDbLine
 10
28.272404
 20
116.601400
 30
0.0
 11
28.450205
 21
116.779201
 31
0.0
  0
LINE
  5
2e2
100
AcDbEntity
  8
text
 62
7
100
AcDbLine
 10
28.450205
 20
116.779201
 30
0.0
 11
28.540516
 21
116.958412
 31
0.0
  0
LINE
  5
2e3
100
AcDbEntity
  8
text
 62
7
100
AcDbLine
 10
28.540516
 20
116.958412
 30
0.0
 11
28.628005
 21
117.223702
 31
0.0
  0
LINE
  5
2e4
100
AcDbEntity
  8
text
 62
7
100
AcDbLine
 10
28.628005
 20
117.223702
 30
0.0
 11
28.628005
 21
117.669614
 31
0.0
  0
LINE
  5
2e5
100
AcDbEntity
  8
text
 62
7
100
AcDbLine
 10
28.628005
 20
117.669614
 30
0.0
 11
28.540516
 21
117.934904
 31
0.0
  0
LINE
  5
2e6
100
AcDbEntity
  8
text
 62
7
100
AcDbLine
 10
28.540516
 20
117.934904
 30
0.0
 11
28.450205
 21
118.112704
 31
0.0
  0
LINE
  5
2e7
100
AcDbEntity
  8
text
 62
7
100
AcDbLine
 10
28.450205
 20
118.112704
 30
0.0
 11
28.272404
 21
118.290505
 31
0.0
  0
LINE
  5
2e8
100
AcDbEntity
  8
text
 62
7
100
AcDbLine
 10
28.272404
 20
118.290505
 30
0.0
 11
28.094604
 21
118.380816
 31
0.0
  0
LINE
  5
2e9
100
AcDbEntity
  8
text
 62
7
100
AcDbLine
 10
28.094604
 20
118.380816
 30
0.0
 11
27.739003
 21
118.380816
 31
0.0
  0
LINE
  5
2ea
100
AcDbEntity
  8
text
 62
7
100
AcDbLine
 10
29.248901
 20
118.380816
 30
0.0
 11
29.248901
 21
116.512500
 31
0.0
  0
LINE
  5
2eb
100
AcDbEntity
  8
text
 62
7
100
AcDbLine
 10
29.248901
 20
118.380816
 30
0.0
 11
30.406015
 21
118.380816
 31
0.0
  0
LINE
  5
2ec
100
AcDbEntity
  8
text
 62
7
100
AcDbLine
 10
29.248901
 20
117.488992
 30
0.0
 11
29.960103
 21
117.488992
 31
0.0
  0
LINE
  5
2ed
100
AcDbEntity
  8
text
 62
7
100
AcDbLine
 10
30.849101
 20
118.380816
 30
0.0
 11
30.849101
 21
116.512500
 31
0.0
  0
LINE
  5
2ee
100
AcDbEntity
  8
text
 62
7
100
AcDbLine
 10
30.849101
 20
118.380816
 30
0.0
 11
32.006215
 21
118.380816
 31
0.0
  0
LINE
  5
2ef
100
AcDbEntity
  8
text
 62
7
100
AcDbLine
 10
30.849101
 20
117.488992
 30
0.0
 11
31.560303
 21
117.488992
 31
0.0
  0
LINE
  5
2f0
100
AcDbEntity
  8
text
 62
7
100
AcDbLine
 10
33.606415
 20
118.112704
 30
0.0
 11
33.428614
 21
118.290505
 31
0.0
  0
LINE
  5
2f1
100
AcDbEntity
  8
text
 62
7
100
AcDbLine
 10
33.428614
 20
118.290505
 30
0.0
 11
33.160503
 21
118.380816
 31
0.0
  0
LINE
  5
2f2
100
AcDbEntity
  8
text
 62
7
100
AcDbLine
 10
33.160503
 20
118.380816
 30
0.0
 11
32.804902
 21
118.380816
 31
0.0
  0
LINE
  5
2f3
100
AcDbEntity
  8
text
 62
7
100
AcDbLine
 10
32.804902
 20
118.380816
 30
0.0
 11
32.539612
 21
118.290505
 31
0.0
  0
LINE
  5
2f4
100
AcDbEntity
  8
text
 62
7
100
AcDbLine
 10
32.539612
 20
118.290505
 30
0.0
 11
32.361811
 21
118.112704
 31
0.0
  0
LINE
  5
2f5
100
AcDbEntity
  8
text
 62
7
100
AcDbLine
 10
32.361811
 20
118.112704
 30
0.0
 11
32.361811
 21
117.934904
 31
0.0
  0
LINE
  5
2f6
100
AcDbEntity
  8
text
 62
7
100
AcDbLine
 10
32.361811
 20
117.934904
 30
0.0
 11
32.449301
 21
117.757103
 31
0.0
  0
LINE
  5
2f7
100
AcDbEntity
  8
text
 62
7
100
AcDbLine
 10
32.449301
 20
117.757103
 30
0.0
 11
32.539612
 21
117.669614
 31
0.0
  0
LINE
  5
2f8
100
AcDbEntity
  8
text
 62
7
100
AcDbLine
 10
32.539612
 20
117.669614
 30
0.0
 11
32.717412
 21
117.579303
 31
0.0
  0
LINE
  5
2f9
100
AcDbEntity
  8
text
 62
7
100
AcDbLine
 10
32.717412
 20
117.579303
 30
0.0
 11
33.250814
 21
117.401502
 31
0.0
  0
LINE
  5
2fa
100
AcDbEntity
  8
text
 62
7
100
AcDbLine
 10
33.250814
 20
117.401502
 30
0.0
 11
33.428614
 21
117.314013
 31
0.0
  0
LINE
  5
2fb
100
AcDbEntity
  8
text
 62
7
100
AcDbLine
 10
33.428614
 20
117.314013
 30
0.0
 11
33.516104
 21
117.223702
 31
0.0
  0
LINE
  5
2fc
100
AcDbEntity
  8
text
 62
7
100
AcDbLine
 10
33.516104
 20
117.223702
 30
0.0
 11
33.606415
 21
117.045901
 31
0.0
  0
LINE
  5
2fd
100
AcDbEntity
  8
text
 62
7
100
AcDbLine
 10
33.606415
 20
117.045901
 30
0.0
 11
33.606415
 21
116.779201
 31
0.0
  0
LINE
  5
2fe
100
AcDbEntity
  8
text
 62
7
100
AcDbLine
 10
33.606415
 20
116.779201
 30
0.0
 11
33.428614
 21
116.601400
 31
0.0
  0
LINE
  5
2ff
100
AcDbEntity
  8
text
 62
7
100
AcDbLine
 10
33.428614
 20
116.601400
 30
0.0
 11
33.160503
 21
116.512500
 31
0.0
  0
LINE
  5
300
100
AcDbEntity
  8
text
 62
7
100
AcDbLine
 10
33.160503
 20
116.512500
 30
0.0
 11
32.804902
 21
116.512500
 31
0.0
  0
LINE
  5
301
100
AcDbEntity
  8
text
 62
7
100
AcDbLine
 10
32.804902
 20
116.512500
 30
0.0
 11
32.539612
 21
116.601400
 31
0.0
  0
LINE
  5
302
100
AcDbEntity
  8
text
 62
7
100
AcDbLine
 10
32.539612
 20
116.601400
 30
0.0
 11
32.361811
 21
116.779201
 31
0.0
  0
LINE
  5
303
100
AcDbEntity
  8
text
 62
7
100
AcDbLine
 10
34.227311
 20
118.380816
 30
0.0
 11
34.227311
 21
116.512500
 31
0.0
  0
LINE
  5
304
100
AcDbEntity
  8
text
 62
7
100
AcDbLine
 10
34.227311
 20
118.380816
 30
0.0
 11
35.384425
 21
118.380816
 31
0.0
  0
LINE
  5
305
100
AcDbEntity
  8
text
 62
7
100
AcDbLine
 10
34.227311
 20
117.488992
 30
0.0
 11
34.938513
 21
117.488992
 31
0.0
  0
LINE
  5
306
100
AcDbEntity
  8
text
 62
7
100
AcDbLine
 10
34.227311
 20
116.512500
 30
0.0
 11
35.384425
 21
116.512500
 31
0.0
  0
LINE
  5
307
100
AcDbEntity
  8
text
 62
7
100
AcDbLine
 10
36.270602
 20
118.380816
 30
0.0
 11
36.270602
 21
116.512500
 31
0.0
  0
LINE
  5
308
100
AcDbEntity
  8
text
 62
7
100
AcDbLine
 10
35.649711
 20
118.380816
 30
0.0
 11
36.894314
 21
118.380816
 31
0.0
  0
LINE
  5
309
100
AcDbEntity
  8
text
 62
7
100
AcDbLine
 10
1.739503
 20
118.380816
 30
0.0
 11
1.028301
 21
116.512500
 31
0.0
  0
LINE
  5
30a
100
AcDbEntity
  8
text
 62
7
100
AcDbLine
 10
1.739503
 20
118.380816
 30
0.0
 11
2.450705
 21
116.512500
 31
0.0
  0
LINE
  5
30b
100
AcDbEntity
  8
text
 62
7
100
AcDbLine
 10
1.293591
 20
117.133391
 30
0.0
 11
2.185415
 21
117.133391
 31
0.0
  0
LINE
  5
30c
100
AcDbEntity
  8
text
 62
7
100
AcDbLine
 10
3.249392
 20
118.380816
 30
0.0
 11
3.249392
 21
116.512500
 31
0.0
  0
LINE
  5
30d
100
AcDbEntity
  8
text
 62
7
100
AcDbLine
 10
2.628501
 20
118.380816
 30
0.0
 11
3.873104
 21
118.380816
 31
0.0
  0
LINE
  5
30e
100
AcDbEntity
  8
text
 62
7
100
AcDbLine
 10
4.671802
 20
118.380816
 30
0.0
 11
4.671802
 21
116.512500
 31
0.0
  0
LINE
  5
30f
100
AcDbEntity
  8
text
 62
7
100
AcDbLine
 10
4.050911
 20
118.380816
 30
0.0
 11
5.295514
 21
118.380816
 31
0.0
  0
LINE
  5
310
100
AcDbEntity
  8
text
 62
7
100
AcDbLine
 10
5.738601
 20
118.380816
 30
0.0
 11
5.738601
 21
116.512500
 31
0.0
  0
LINE
  5
311
100
AcDbEntity
  8
text
 62
7
100
AcDbLine
 10
5.738601
 20
118.380816
 30
0.0
 11
6.895715
 21
118.380816
 31
0.0
  0
LINE
  5
312
100
AcDbEntity
  8
text
 62
7
100
AcDbLine
 10
5.738601
 20
117.488992
 30
0.0
 11
6.449803
 21
117.488992
 31
0.0
  0
LINE
  5
313
100
AcDbEntity
  8
text
 62
7
100
AcDbLine
 10
5.738601
 20
116.512500
 30
0.0
 11
6.895715
 21
116.512500
 31
0.0
  0
LINE
  5
314
100
AcDbEntity
  8
text
 62
7
100
AcDbLine
 10
7.426301
 20
118.380816
 30
0.0
 11
7.426301
 21
116.512500
 31
0.0
  0
LINE
  5
315
100
AcDbEntity
  8
text
 62
7
100
AcDbLine
 10
7.426301
 20
118.380816
 30
0.0
 11
8.673726
 21
116.512500
 31
0.0
  0
LINE
  5
316
100
AcDbEntity
  8
text
 62
7
100
AcDbLine
 10
8.673726
 20
118.380816
 30
0.0
 11
8.673726
 21
116.512500
 31
0.0
  0
LINE
  5
317
100
AcDbEntity
  8
text
 62
7
100
AcDbLine
 10
9.382101
 20
118.380816
 30
0.0
 11
9.382101
 21
117.045901
 31
0.0
  0
LINE
  5
318
100
AcDbEntity
  8
text
 62
7
100
AcDbLine
 10
9.382101
 20
117.045901
 30
0.0
 11
9.472412
 21
116.779201
 31
0.0
  0
LINE
  5
319
100
AcDbEntity
  8
text
 62
7
100
AcDbLine
 10
9.472412
 20
116.779201
 30
0.0
 11
9.650212
 21
116.601400
 31
0.0
  0
LINE
  5
31a
100
AcDbEntity
  8
text
 62
7
100
AcDbLine
 10
9.650212
 20
116.601400
 30
0.0
 11
9.918324
 21
116.512500
 31
0.0
  0
LINE
  5
31b
100
AcDbEntity
  8
text
 62
7
100
AcDbLine
 10
9.918324
 20
116.512500
 30
0.0
 11
10.093303
 21
116.512500
 31
0.0
  0
LINE
  5
31c
100
AcDbEntity
  8
text
 62
7
100
AcDbLine
 10
10.093303
 20
116.512500
 30
0.0
 11
10.361414
 21
116.601400
 31
0.0
  0
LINE
  5
31d
100
AcDbEntity
  8
text
 62
7
100
AcDbLine
 10
10.361414
 20
116.601400
 30
0.0
 11
10.539215
 21
116.779201
 31
0.0
  0
LINE
  5
31e
100
AcDbEntity
  8
text
 62
7
100
AcDbLine
 10
10.539215
 20
116.779201
 30
0.0
 11
10.629526
 21
117.045901
 31
0.0
  0
LINE
  5
31f
100
AcDbEntity
  8
text
 62
7
100
AcDbLine
 10
10.629526
 20
117.045901
 30
0.0
 11
10.629526
 21
118.380816
 31
0.0
  0
LINE
  5
320
100
AcDbEntity
  8
text
 62
7
100
AcDbLine
 10
11.783803
 20
118.380816
 30
0.0
 11
11.072601
 21
116.512500
 31
0.0
  0
LINE
  5
321
100
AcDbEntity
  8
text
 62
7
100
AcDbLine
 10
11.783803
 20
118.380816
 30
0.0
 11
12.495005
 21
116.512500
 31
0.0
  0
LINE
  5
322
100
AcDbEntity
  8
text
 62
7
100
AcDbLine
 10
11.337891
 20
117.133391
 30
0.0
 11
12.229715
 21
117.133391
 31
0.0
  0
LINE
  5
323
100
AcDbEntity
  8
text
 62
7
100
AcDbLine
 10
13.293692
 20
118.380816
 30
0.0
 11
13.293692
 21
116.512500
 31
0.0
  0
LINE
  5
324
100
AcDbEntity
  8
text
 62
7
100
AcDbLine
 10
12.672801
 20
118.380816
 30
0.0
 11
13.917404
 21
118.380816
 31
0.0
  0
LINE
  5
325
100
AcDbEntity
  8
text
 62
7
100
AcDbLine
 10
14.360491
 20
118.380816
 30
0.0
 11
14.360491
 21
116.512500
 31
0.0
  0
LINE
  5
326
100
AcDbEntity
  8
text
 62
7
100
AcDbLine
 10
14.360491
 20
118.380816
 30
0.0
 11
15.517605
 21
118.380816
 31
0.0
  0
LINE
  5
327
100
AcDbEntity
  8
text
 62
7
100
AcDbLine
 10
14.360491
 20
117.488992
 30
0.0
 11
15.071693
 21
117.488992
 31
0.0
  0
LINE
  5
328
100
AcDbEntity
  8
text
 62
7
100
AcDbLine
 10
14.360491
 20
116.512500
 30
0.0
 11
15.517605
 21
116.512500
 31
0.0
  0
LINE
  5
329
100
AcDbEntity
  8
text
 62
7
100
AcDbLine
 10
7.070691
 20
98.395316
 30
0.0
 11
7.070691
 21
96.527000
 31
0.0
  0
LINE
  5
32a
100
AcDbEntity
  8
text
 62
7
100
AcDbLine
 10
7.781893
 20
98.395316
 30
0.0
 11
7.781893
 21
96.527000
 31
0.0
  0
LINE
  5
32b
100
AcDbEntity
  8
text
 62
7
100
AcDbLine
 10
7.781893
 20
98.395316
 30
0.0
 11
9.029318
 21
96.527000
 31
0.0
  0
LINE
  5
32c
100
AcDbEntity
  8
text
 62
7
100
AcDbLine
 10
9.029318
 20
98.395316
 30
0.0
 11
9.029318
 21
96.527000
 31
0.0
  0
LINE
  5
32d
100
AcDbEntity
  8
text
 62
7
100
AcDbLine
 10
29.916403
 20
98.395316
 30
0.0
 11
29.738602
 21
98.305005
 31
0.0
  0
LINE
  5
32e
100
AcDbEntity
  8
text
 62
7
100
AcDbLine
 10
29.738602
 20
98.305005
 30
0.0
 11
29.560802
 21
98.127204
 31
0.0
  0
LINE
  5
32f
100
AcDbEntity
  8
text
 62
7
100
AcDbLine
 10
29.560802
 20
98.127204
 30
0.0
 11
29.470491
 21
97.949404
 31
0.0
  0
LINE
  5
330
100
AcDbEntity
  8
text
 62
7
100
AcDbLine
 10
29.470491
 20
97.949404
 30
0.0
 11
29.383001
 21
97.684114
 31
0.0
  0
LINE
  5
331
100
AcDbEntity
  8
text
 62
7
100
AcDbLine
 10
29.383001
 20
97.684114
 30
0.0
 11
29.383001
 21
97.238202
 31
0.0
  0
LINE
  5
332
100
AcDbEntity
  8
text
 62
7
100
AcDbLine
 10
29.383001
 20
97.238202
 30
0.0
 11
29.470491
 21
96.972912
 31
0.0
  0
LINE
  5
333
100
AcDbEntity
  8
text
 62
7
100
AcDbLine
 10
29.470491
 20
96.972912
 30
0.0
 11
29.560802
 21
96.793701
 31
0.0
  0
LINE
  5
334
100
AcDbEntity
  8
text
 62
7
100
AcDbLine
 10
29.560802
 20
96.793701
 30
0.0
 11
29.738602
 21
96.615900
 31
0.0
  0
LINE
  5
335
100
AcDbEntity
  8
text
 62
7
100
AcDbLine
 10
29.738602
 20
96.615900
 30
0.0
 11
29.916403
 21
96.527000
 31
0.0
  0
LINE
  5
336
100
AcDbEntity
  8
text
 62
7
100
AcDbLine
 10
29.916403
 20
96.527000
 30
0.0
 11
30.272004
 21
96.527000
 31
0.0
  0
LINE
  5
337
100
AcDbEntity
  8
text
 62
7
100
AcDbLine
 10
30.272004
 20
96.527000
 30
0.0
 11
30.449804
 21
96.615900
 31
0.0
  0
LINE
  5
338
100
AcDbEntity
  8
text
 62
7
100
AcDbLine
 10
30.449804
 20
96.615900
 30
0.0
 11
30.627605
 21
96.793701
 31
0.0
  0
LINE
  5
339
100
AcDbEntity
  8
text
 62
7
100
AcDbLine
 10
30.627605
 20
96.793701
 30
0.0
 11
30.717916
 21
96.972912
 31
0.0
  0
LINE
  5
33a
100
AcDbEntity
  8
text
 62
7
100
AcDbLine
 10
30.717916
 20
96.972912
 30
0.0
 11
30.805405
 21
97.238202
 31
0.0
  0
LINE
  5
33b
100
AcDbEntity
  8
text
 62
7
100
AcDbLine
 10
30.805405
 20
97.238202
 30
0.0
 11
30.805405
 21
97.684114
 31
0.0
  0
LINE
  5
33c
100
AcDbEntity
  8
text
 62
7
100
AcDbLine
 10
30.805405
 20
97.684114
 30
0.0
 11
30.717916
 21
97.949404
 31
0.0
  0
LINE
  5
33d
100
AcDbEntity
  8
text
 62
7
100
AcDbLine
 10
30.717916
 20
97.949404
 30
0.0
 11
30.627605
 21
98.127204
 31
0.0
  0
LINE
  5
33e
100
AcDbEntity
  8
text
 62
7
100
AcDbLine
 10
30.627605
 20
98.127204
 30
0.0
 11
30.449804
 21
98.305005
 31
0.0
  0
LINE
  5
33f
100
AcDbEntity
  8
text
 62
7
100
AcDbLine
 10
30.449804
 20
98.305005
 30
0.0
 11
30.272004
 21
98.395316
 31
0.0
  0
LINE
  5
340
100
AcDbEntity
  8
text
 62
7
100
AcDbLine
 10
30.272004
 20
98.395316
 30
0.0
 11
29.916403
 21
98.395316
 31
0.0
  0
LINE
  5
341
100
AcDbEntity
  8
text
 62
7
100
AcDbLine
 10
31.426301
 20
98.395316
 30
0.0
 11
31.426301
 21
97.060401
 31
0.0
  0
LINE
  5
342
100
AcDbEntity
  8
text
 62
7
100
AcDbLine
 10
31.426301
 20
97.060401
 30
0.0
 11
31.516612
 21
96.793701
 31
0.0
  0
LINE
  5
343
100
AcDbEntity
  8
text
 62
7
100
AcDbLine
 10
31.516612
 20
96.793701
 30
0.0
 11
31.694412
 21
96.615900
 31
0.0
  0
LINE
  5
344
100
AcDbEntity
  8
text
 62
7
100
AcDbLine
 10
31.694412
 20
96.615900
 30
0.0
 11
31.962524
 21
96.527000
 31
0.0
  0
LINE
  5
345
100
AcDbEntity
  8
text
 62
7
100
AcDbLine
 10
31.962524
 20
96.527000
 30
0.0
 11
32.137503
 21
96.527000
 31
0.0
  0
LINE
  5
346
100
AcDbEntity
  8
text
 62
7
100
AcDbLine
 10
32.137503
 20
96.527000
 30
0.0
 11
32.405614
 21
96.615900
 31
0.0
  0
LINE
  5
347
100
AcDbEntity
  8
text
 62
7
100
AcDbLine
 10
32.405614
 20
96.615900
 30
0.0
 11
32.583415
 21
96.793701
 31
0.0
  0
LINE
  5
348
100
AcDbEntity
  8
text
 62
7
100
AcDbLine
 10
32.583415
 20
96.793701
 30
0.0
 11
32.673726
 21
97.060401
 31
0.0
  0
LINE
  5
349
100
AcDbEntity
  8
text
 62
7
100
AcDbLine
 10
32.673726
 20
97.060401
 30
0.0
 11
32.673726
 21
98.395316
 31
0.0
  0
LINE
  5
34a
100
AcDbEntity
  8
text
 62
7
100
AcDbLine
 10
33.737702
 20
98.395316
 30
0.0
 11
33.737702
 21
96.527000
 31
0.0
  0
LINE
  5
34b
100
AcDbEntity
  8
text
 62
7
100
AcDbLine
 10
33.116811
 20
98.395316
 30
0.0
 11
34.361414
 21
98.395316
 31
0.0
  0
LINE
  5
34c
100
AcDbEntity
  8
text
 62
7
100
AcDbLine
 10
16.768572
 20
90.472480
 30
0.0
 11
18.048735
 21
90.472480
 31
0.0
  0
LINE
  5
34d
100
AcDbEntity
  8
text
 62
7
100
AcDbLine
 10
17.409218
 20
92.180494
 30
0.0
 11
17.409218
 21
90.899201
 31
0.0
  0
LINE
  5
34e
100
AcDbEntity
  8
text
 62
7
100
AcDbLine
 10
16.768572
 20
91.539848
 30
0.0
 11
18.048735
 21
91.539848
 31
0.0
  0
LINE
  5
34f
100
AcDbEntity
  8
text
 62
7
100
AcDbLine
 10
18.698973
 20
91.878515
 30
0.0
 11
18.873952
 21
91.966004
 31
0.0
  0
LINE
  5
350
100
AcDbEntity
  8
text
 62
7
100
AcDbLine
 10
18.873952
 20
91.966004
 30
0.0
 11
19.142063
 21
92.234116
 31
0.0
  0
LINE
  5
351
100
AcDbEntity
  8
text
 62
7
100
AcDbLine
 10
19.142063
 20
92.234116
 30
0.0
 11
19.142063
 21
90.365800
 31
0.0
  0
LINE
  5
352
100
AcDbEntity
  8
text
 62
7
100
AcDbLine
 10
20.742273
 20
92.234116
 30
0.0
 11
20.476983
 21
92.143805
 31
0.0
  0
LINE
  5
353
100
AcDbEntity
  8
text
 62
7
100
AcDbLine
 10
20.476983
 20
92.143805
 30
0.0
 11
20.296361
 21
91.878515
 31
0.0
  0
LINE
  5
354
100
AcDbEntity
  8
text
 62
7
100
AcDbLine
 10
20.296361
 20
91.878515
 30
0.0
 11
20.208871
 21
91.432603
 31
0.0
  0
LINE
  5
355
100
AcDbEntity
  8
text
 62
7
100
AcDbLine
 10
20.208871
 20
91.432603
 30
0.0
 11
20.208871
 21
91.167313
 31
0.0
  0
LINE
  5
356
100
AcDbEntity
  8
text
 62
7
100
AcDbLine
 10
20.208871
 20
91.167313
 30
0.0
 11
20.296361
 21
90.721401
 31
0.0
  0
LINE
  5
357
100
AcDbEntity
  8
text
 62
7
100
AcDbLine
 10
20.296361
 20
90.721401
 30
0.0
 11
20.476983
 21
90.454700
 31
0.0
  0
LINE
  5
358
100
AcDbEntity
  8
text
 62
7
100
AcDbLine
 10
20.476983
 20
90.454700
 30
0.0
 11
20.742273
 21
90.365800
 31
0.0
  0
LINE
  5
359
100
AcDbEntity
  8
text
 62
7
100
AcDbLine
 10
20.742273
 20
90.365800
 30
0.0
 11
20.920073
 21
90.365800
 31
0.0
  0
LINE
  5
35a
100
AcDbEntity
  8
text
 62
7
100
AcDbLine
 10
20.920073
 20
90.365800
 30
0.0
 11
21.188185
 21
90.454700
 31
0.0
  0
LINE
  5
35b
100
AcDbEntity
  8
text
 62
7
100
AcDbLine
 10
21.188185
 20
90.454700
 30
0.0
 11
21.363164
 21
90.721401
 31
0.0
  0
LINE
  5
35c
100
AcDbEntity
  8
text
 62
7
100
AcDbLine
 10
21.363164
 20
90.721401
 30
0.0
 11
21.453475
 21
91.167313
 31
0.0
  0
LINE
  5
35d
100
AcDbEntity
  8
text
 62
7
100
AcDbLine
 10
21.453475
 20
91.167313
 30
0.0
 11
21.453475
 21
91.432603
 31
0.0
  0
LINE
  5
35e
100
AcDbEntity
  8
text
 62
7
100
AcDbLine
 10
21.453475
 20
91.432603
 30
0.0
 11
21.363164
 21
91.878515
 31
0.0
  0
LINE
  5
35f
100
AcDbEntity
  8
text
 62
7
100
AcDbLine
 10
21.363164
 20
91.878515
 30
0.0
 11
21.188185
 21
92.143805
 31
0.0
  0
LINE
  5
360
100
AcDbEntity
  8
text
 62
7
100
AcDbLine
 10
21.188185
 20
92.143805
 30
0.0
 11
20.920073
 21
92.234116
 31
0.0
  0
LINE
  5
361
100
AcDbEntity
  8
text
 62
7
100
AcDbLine
 10
20.920073
 20
92.234116
 30
0.0
 11
20.742273
 21
92.234116
 31
0.0
  0
LINE
  5
362
100
AcDbEntity
  8
text
 62
7
100
AcDbLine
 10
21.809071
 20
92.234116
 30
0.0
 11
22.520273
 21
90.365800
 31
0.0
  0
LINE
  5
363
100
AcDbEntity
  8
text
 62
7
100
AcDbLine
 10
23.231475
 20
92.234116
 30
0.0
 11
22.520273
 21
90.365800
 31
0.0
  0
LINE
  5
364
100
AcDbEntity
  8
text
 62
7
100
AcDbLine
 10
16.768572
 20
18.972480
 30
0.0
 11
18.048735
 21
18.972480
 31
0.0
  0
LINE
  5
365
100
AcDbEntity
  8
text
 62
7
100
AcDbLine
 10
17.409218
 20
20.680494
 30
0.0
 11
17.409218
 21
19.399201
 31
0.0
  0
LINE
  5
366
100
AcDbEntity
  8
text
 62
7
100
AcDbLine
 10
16.768572
 20
20.039848
 30
0.0
 11
18.048735
 21
20.039848
 31
0.0
  0
LINE
  5
367
100
AcDbEntity
  8
text
 62
7
100
AcDbLine
 10
18.698973
 20
20.378515
 30
0.0
 11
18.873952
 21
20.466004
 31
0.0
  0
LINE
  5
368
100
AcDbEntity
  8
text
 62
7
100
AcDbLine
 10
18.873952
 20
20.466004
 30
0.0
 11
19.142063
 21
20.734116
 31
0.0
  0
LINE
  5
369
100
AcDbEntity
  8
text
 62
7
100
AcDbLine
 10
19.142063
 20
20.734116
 30
0.0
 11
19.142063
 21
18.865800
 31
0.0
  0
LINE
  5
36a
100
AcDbEntity
  8
text
 62
7
100
AcDbLine
 10
20.742273
 20
20.734116
 30
0.0
 11
20.476983
 21
20.643805
 31
0.0
  0
LINE
  5
36b
100
AcDbEntity
  8
text
 62
7
100
AcDbLine
 10
20.476983
 20
20.643805
 30
0.0
 11
20.296361
 21
20.378515
 31
0.0
  0
LINE
  5
36c
100
AcDbEntity
  8
text
 62
7
100
AcDbLine
 10
20.296361
 20
20.378515
 30
0.0
 11
20.208871
 21
19.932603
 31
0.0
  0
LINE
  5
36d
100
AcDbEntity
  8
text
 62
7
100
AcDbLine
 10
20.208871
 20
19.932603
 30
0.0
 11
20.208871
 21
19.667313
 31
0.0
  0
LINE
  5
36e
100
AcDbEntity
  8
text
 62
7
100
AcDbLine
 10
20.208871
 20
19.667313
 30
0.0
 11
20.296361
 21
19.221401
 31
0.0
  0
LINE
  5
36f
100
AcDbEntity
  8
text
 62
7
100
AcDbLine
 10
20.296361
 20
19.221401
 30
0.0
 11
20.476983
 21
18.954700
 31
0.0
  0
LINE
  5
370
100
AcDbEntity
  8
text
 62
7
100
AcDbLine
 10
20.476983
 20
18.954700
 30
0.0
 11
20.742273
 21
18.865800
 31
0.0
  0
LINE
  5
371
100
AcDbEntity
  8
text
 62
7
100
AcDbLine
 10
20.742273
 20
18.865800
 30
0.0
 11
20.920073
 21
18.865800
 31
0.0
  0
LINE
  5
372
100
AcDbEntity
  8
text
 62
7
100
AcDbLine
 10
20.920073
 20
18.865800
 30
0.0
 11
21.188185
 21
18.954700
 31
0.0
  0
LINE
  5
373
100
AcDbEntity
  8
text
 62
7
100
AcDbLine
 10
21.188185
 20
18.954700
 30
0.0
 11
21.363164
 21
19.221401
 31
0.0
  0
LINE
  5
374
100
AcDbEntity
  8
text
 62
7
100
AcDbLine
 10
21.363164
 20
19.221401
 30
0.0
 11
21.453475
 21
19.667313
 31
0.0
  0
LINE
  5
375
100
AcDbEntity
  8
text
 62
7
100
AcDbLine
 10
21.453475
 20
19.667313
 30
0.0
 11
21.453475
 21
19.932603
 31
0.0
  0
LINE
  5
376
100
AcDbEntity
  8
text
 62
7
100
AcDbLine
 10
21.453475
 20
19.932603
 30
0.0
 11
21.363164
 21
20.378515
 31
0.0
  0
LINE
  5
377
100
AcDbEntity
  8
text
 62
7
100
AcDbLine
 10
21.363164
 20
20.378515
 30
0.0
 11
21.188185
 21
20.643805
 31
0.0
  0
LINE
  5
378
100
AcDbEntity
  8
text
 62
7
100
AcDbLine
 10
21.188185
 20
20.643805
 30
0.0
 11
20.920073
 21
20.734116
 31
0.0
  0
LINE
  5
379
100
AcDbEntity
  8
text
 62
7
100
AcDbLine
 10
20.920073
 20
20.734116
 30
0.0
 11
20.742273
 21
20.734116
 31
0.0
  0
LINE
  5
37a
100
AcDbEntity
  8
text
 62
7
100
AcDbLine
 10
21.809071
 20
20.734116
 30
0.0
 11
22.520273
 21
18.865800
 31
0.0
  0
LINE
  5
37b
100
AcDbEntity
  8
text
 62
7
100
AcDbLine
 10
23.231475
 20
20.734116
 30
0.0
 11
22.520273
 21
18.865800
 31
0.0
  0
LINE
  5
37c
100
AcDbEntity
  8
text
 62
7
100
AcDbLine
 10
16.768572
 20
54.722480
 30
0.0
 11
18.048735
 21
54.722480
 31
0.0
  0
LINE
  5
37d
100
AcDbEntity
  8
text
 62
7
100
AcDbLine
 10
17.409218
 20
56.430494
 30
0.0
 11
17.409218
 21
55.149201
 31
0.0
  0
LINE
  5
37e
100
AcDbEntity
  8
text
 62
7
100
AcDbLine
 10
16.768572
 20
55.789848
 30
0.0
 11
18.048735
 21
55.789848
 31
0.0
  0
LINE
  5
37f
100
AcDbEntity
  8
text
 62
7
100
AcDbLine
 10
18.698973
 20
56.128515
 30
0.0
 11
18.873952
 21
56.216004
 31
0.0
  0
LINE
  5
380
100
AcDbEntity
  8
text
 62
7
100
AcDbLine
 10
18.873952
 20
56.216004
 30
0.0
 11
19.142063
 21
56.484116
 31
0.0
  0
LINE
  5
381
100
AcDbEntity
  8
text
 62
7
100
AcDbLine
 10
19.142063
 20
56.484116
 30
0.0
 11
19.142063
 21
54.615800
 31
0.0
  0
LINE
  5
382
100
AcDbEntity
  8
text
 62
7
100
AcDbLine
 10
20.742273
 20
56.484116
 30
0.0
 11
20.476983
 21
56.393805
 31
0.0
  0
LINE
  5
383
100
AcDbEntity
  8
text
 62
7
100
AcDbLine
 10
20.476983
 20
56.393805
 30
0.0
 11
20.296361
 21
56.128515
 31
0.0
  0
LINE
  5
384
100
AcDbEntity
  8
text
 62
7
100
AcDbLine
 10
20.296361
 20
56.128515
 30
0.0
 11
20.208871
 21
55.682603
 31
0.0
  0
LINE
  5
385
100
AcDbEntity
  8
text
 62
7
100
AcDbLine
 10
20.208871
 20
55.682603
 30
0.0
 11
20.208871
 21
55.417313
 31
0.0
  0
LINE
  5
386
100
AcDbEntity
  8
text
 62
7
100
AcDbLine
 10
20.208871
 20
55.417313
 30
0.0
 11
20.296361
 21
54.971401
 31
0.0
  0
LINE
  5
387
100
AcDbEntity
  8
text
 62
7
100
AcDbLine
 10
20.296361
 20
54.971401
 30
0.0
 11
20.476983
 21
54.704700
 31
0.0
  0
LINE
  5
388
100
AcDbEntity
  8
text
 62
7
100
AcDbLine
 10
20.476983
 20
54.704700
 30
0.0
 11
20.742273
 21
54.615800
 31
0.0
  0
LINE
  5
389
100
AcDbEntity
  8
text
 62
7
100
AcDbLine
 10
20.742273
 20
54.615800
 30
0.0
 11
20.920073
 21
54.615800
 31
0.0
  0
LINE
  5
38a
100
AcDbEntity
  8
text
 62
7
100
AcDbLine
 10
20.920073
 20
54.615800
 30
0.0
 11
21.188185
 21
54.704700
 31
0.0
  0
LINE
  5
38b
100
AcDbEntity
  8
text
 62
7
100
AcDbLine
 10
21.188185
 20
54.704700
 30
0.0
 11
21.363164
 21
54.971401
 31
0.0
  0
LINE
  5
38c
100
AcDbEntity
  8
text
 62
7
100
AcDbLine
 10
21.363164
 20
54.971401
 30
0.0
 11
21.453475
 21
55.417313
 31
0.0
  0
LINE
  5
38d
100
AcDbEntity
  8
text
 62
7
100
AcDbLine
 10
21.453475
 20
55.417313
 30
0.0
 11
21.453475
 21
55.682603
 31
0.0
  0
LINE
  5
38e
100
AcDbEntity
  8
text
 62
7
100
AcDbLine
 10
21.453475
 20
55.682603
 30
0.0
 11
21.363164
 21
56.128515
 31
0.0
  0
LINE
  5
38f
100
AcDbEntity
  8
text
 62
7
100
AcDbLine
 10
21.363164
 20
56.128515
 30
0.0
 11
21.188185
 21
56.393805
 31
0.0
  0
LINE
  5
390
100
AcDbEntity
  8
text
 62
7
100
AcDbLine
 10
21.188185
 20
56.393805
 30
0.0
 11
20.920073
 21
56.484116
 31
0.0
  0
LINE
  5
391
100
AcDbEntity
  8
text
 62
7
100
AcDbLine
 10
20.920073
 20
56.484116
 30
0.0
 11
20.742273
 21
56.484116
 31
0.0
  0
LINE
  5
392
100
AcDbEntity
  8
text
 62
7
100
AcDbLine
 10
21.809071
 20
56.484116
 30
0.0
 11
22.520273
 21
54.615800
 31
0.0
  0
LINE
  5
393
100
AcDbEntity
  8
text
 62
7
100
AcDbLine
 10
23.231475
 20
56.484116
 30
0.0
 11
22.520273
 21
54.615800
 31
0.0
  0
LINE
  5
394
100
AcDbEntity
  8
text
 62
7
100
AcDbLine
 10
27.739003
 20
82.614816
 30
0.0
 11
27.561202
 21
82.524505
 31
0.0
  0
LINE
  5
395
100
AcDbEntity
  8
text
 62
7
100
AcDbLine
 10
27.561202
 20
82.524505
 30
0.0
 11
27.383402
 21
82.346704
 31
0.0
  0
LINE
  5
396
100
AcDbEntity
  8
text
 62
7
100
AcDbLine
 10
27.383402
 20
82.346704
 30
0.0
 11
27.293091
 21
82.168904
 31
0.0
  0
LINE
  5
397
100
AcDbEntity
  8
text
 62
7
100
AcDbLine
 10
27.293091
 20
82.168904
 30
0.0
 11
27.205601
 21
81.903614
 31
0.0
  0
LINE
  5
398
100
AcDbEntity
  8
text
 62
7
100
AcDbLine
 10
27.205601
 20
81.903614
 30
0.0
 11
27.205601
 21
81.457702
 31
0.0
  0
LINE
  5
399
100
AcDbEntity
  8
text
 62
7
100
AcDbLine
 10
27.205601
 20
81.457702
 30
0.0
 11
27.293091
 21
81.192412
 31
0.0
  0
LINE
  5
39a
100
AcDbEntity
  8
text
 62
7
100
AcDbLine
 10
27.293091
 20
81.192412
 30
0.0
 11
27.383402
 21
81.013201
 31
0.0
  0
LINE
  5
39b
100
AcDbEntity
  8
text
 62
7
100
AcDbLine
 10
27.383402
 20
81.013201
 30
0.0
 11
27.561202
 21
80.835400
 31
0.0
  0
LINE
  5
39c
100
AcDbEntity
  8
text
 62
7
100
AcDbLine
 10
27.561202
 20
80.835400
 30
0.0
 11
27.739003
 21
80.746500
 31
0.0
  0
LINE
  5
39d
100
AcDbEntity
  8
text
 62
7
100
AcDbLine
 10
27.739003
 20
80.746500
 30
0.0
 11
28.094604
 21
80.746500
 31
0.0
  0
LINE
  5
39e
100
AcDbEntity
  8
text
 62
7
100
AcDbLine
 10
28.094604
 20
80.746500
 30
0.0
 11
28.272404
 21
80.835400
 31
0.0
  0
LINE
  5
39f
100
AcDbEntity
  8
text
 62
7
100
AcDbLine
 10
28.272404
 20
80.835400
 30
0.0
 11
28.450205
 21
81.013201
 31
0.0
  0
LINE
  5
3a0
100
AcDbEntity
  8
text
 62
7
100
AcDbLine
 10
28.450205
 20
81.013201
 30
0.0
 11
28.540516
 21
81.192412
 31
0.0
  0
LINE
  5
3a1
100
AcDbEntity
  8
text
 62
7
100
AcDbLine
 10
28.540516
 20
81.192412
 30
0.0
 11
28.628005
 21
81.457702
 31
0.0
  0
LINE
  5
3a2
100
AcDbEntity
  8
text
 62
7
100
AcDbLine
 10
28.628005
 20
81.457702
 30
0.0
 11
28.628005
 21
81.903614
 31
0.0
  0
LINE
  5
3a3
100
AcDbEntity
  8
text
 62
7
100
AcDbLine
 10
28.628005
 20
81.903614
 30
0.0
 11
28.540516
 21
82.168904
 31
0.0
  0
LINE
  5
3a4
100
AcDbEntity
  8
text
 62
7
100
AcDbLine
 10
28.540516
 20
82.168904
 30
0.0
 11
28.450205
 21
82.346704
 31
0.0
  0
LINE
  5
3a5
100
AcDbEntity
  8
text
 62
7
100
AcDbLine
 10
28.450205
 20
82.346704
 30
0.0
 11
28.272404
 21
82.524505
 31
0.0
  0
LINE
  5
3a6
100
AcDbEntity
  8
text
 62
7
100
AcDbLine
 10
28.272404
 20
82.524505
 30
0.0
 11
28.094604
 21
82.614816
 31
0.0
  0
LINE
  5
3a7
100
AcDbEntity
  8
text
 62
7
100
AcDbLine
 10
28.094604
 20
82.614816
 30
0.0
 11
27.739003
 21
82.614816
 31
0.0
  0
LINE
  5
3a8
100
AcDbEntity
  8
text
 62
7
100
AcDbLine
 10
29.248901
 20
82.614816
 30
0.0
 11
29.248901
 21
80.746500
 31
0.0
  0
LINE
  5
3a9
100
AcDbEntity
  8
text
 62
7
100
AcDbLine
 10
29.248901
 20
82.614816
 30
0.0
 11
30.406015
 21
82.614816
 31
0.0
  0
LINE
  5
3aa
100
AcDbEntity
  8
text
 62
7
100
AcDbLine
 10
29.248901
 20
81.722992
 30
0.0
 11
29.960103
 21
81.722992
 31
0.0
  0
LINE
  5
3ab
100
AcDbEntity
  8
text
 62
7
100
AcDbLine
 10
30.849101
 20
82.614816
 30
0.0
 11
30.849101
 21
80.746500
 31
0.0
  0
LINE
  5
3ac
100
AcDbEntity
  8
text
 62
7
100
AcDbLine
 10
30.849101
 20
82.614816
 30
0.0
 11
32.006215
 21
82.614816
 31
0.0
  0
LINE
  5
3ad
100
AcDbEntity
  8
text
 62
7
100
AcDbLine
 10
30.849101
 20
81.722992
 30
0.0
 11
31.560303
 21
81.722992
 31
0.0
  0
LINE
  5
3ae
100
AcDbEntity
  8
text
 62
7
100
AcDbLine
 10
33.606415
 20
82.346704
 30
0.0
 11
33.428614
 21
82.524505
 31
0.0
  0
LINE
  5
3af
100
AcDbEntity
  8
text
 62
7
100
AcDbLine
 10
33.428614
 20
82.524505
 30
0.0
 11
33.160503
 21
82.614816
 31
0.0
  0
LINE
  5
3b0
100
AcDbEntity
  8
text
 62
7
100
AcDbLine
 10
33.160503
 20
82.614816
 30
0.0
 11
32.804902
 21
82.614816
 31
0.0
  0
LINE
  5
3b1
100
AcDbEntity
  8
text
 62
7
100
AcDbLine
 10
32.804902
 20
82.614816
 30
0.0
 11
32.539612
 21
82.524505
 31
0.0
  0
LINE
  5
3b2
100
AcDbEntity
  8
text
 62
7
100
AcDbLine
 10
32.539612
 20
82.524505
 30
0.0
 11
32.361811
 21
82.346704
 31
0.0
  0
LINE
  5
3b3
100
AcDbEntity
  8
text
 62
7
100
AcDbLine
 10
32.361811
 20
82.346704
 30
0.0
 11
32.361811
 21
82.168904
 31
0.0
  0
LINE
  5
3b4
100
AcDbEntity
  8
text
 62
7
100
AcDbLine
 10
32.361811
 20
82.168904
 30
0.0
 11
32.449301
 21
81.991103
 31
0.0
  0
LINE
  5
3b5
100
AcDbEntity
  8
text
 62
7
100
AcDbLine
 10
32.449301
 20
81.991103
 30
0.0
 11
32.539612
 21
81.903614
 31
0.0
  0
LINE
  5
3b6
100
AcDbEntity
  8
text
 62
7
100
AcDbLine
 10
32.539612
 20
81.903614
 30
0.0
 11
32.717412
 21
81.813303
 31
0.0
  0
LINE
  5
3b7
100
AcDbEntity
  8
text
 62
7
100
AcDbLine
 10
32.717412
 20
81.813303
 30
0.0
 11
33.250814
 21
81.635502
 31
0.0
  0
LINE
  5
3b8
100
AcDbEntity
  8
text
 62
7
100
AcDbLine
 10
33.250814
 20
81.635502
 30
0.0
 11
33.428614
 21
81.548013
 31
0.0
  0
LINE
  5
3b9
100
AcDbEntity
  8
text
 62
7
100
AcDbLine
 10
33.428614
 20
81.548013
 30
0.0
 11
33.516104
 21
81.457702
 31
0.0
  0
LINE
  5
3ba
100
AcDbEntity
  8
text
 62
7
100
AcDbLine
 10
33.516104
 20
81.457702
 30
0.0
 11
33.606415
 21
81.279901
 31
0.0
  0
LINE
  5
3bb
100
AcDbEntity
  8
text
 62
7
100
AcDbLine
 10
33.606415
 20
81.279901
 30
0.0
 11
33.606415
 21
81.013201
 31
0.0
  0
LINE
  5
3bc
100
AcDbEntity
  8
text
 62
7
100
AcDbLine
 10
33.606415
 20
81.013201
 30
0.0
 11
33.428614
 21
80.835400
 31
0.0
  0
LINE
  5
3bd
100
AcDbEntity
  8
text
 62
7
100
AcDbLine
 10
33.428614
 20
80.835400
 30
0.0
 11
33.160503
 21
80.746500
 31
0.0
  0
LINE
  5
3be
100
AcDbEntity
  8
text
 62
7
100
AcDbLine
 10
33.160503
 20
80.746500
 30
0.0
 11
32.804902
 21
80.746500
 31
0.0
  0
LINE
  5
3bf
100
AcDbEntity
  8
text
 62
7
100
AcDbLine
 10
32.804902
 20
80.746500
 30
0.0
 11
32.539612
 21
80.835400
 31
0.0
  0
LINE
  5
3c0
100
AcDbEntity
  8
text
 62
7
100
AcDbLine
 10
32.539612
 20
80.835400
 30
0.0
 11
32.361811
 21
81.013201
 31
0.0
  0
LINE
  5
3c1
100
AcDbEntity
  8
text
 62
7
100
AcDbLine
 10
34.227311
 20
82.614816
 30
0.0
 11
34.227311
 21
80.746500
 31
0.0
  0
LINE
  5
3c2
100
AcDbEntity
  8
text
 62
7
100
AcDbLine
 10
34.227311
 20
82.614816
 30
0.0
 11
35.384425
 21
82.614816
 31
0.0
  0
LINE
  5
3c3
100
AcDbEntity
  8
text
 62
7
100
AcDbLine
 10
34.227311
 20
81.722992
 30
0.0
 11
34.938513
 21
81.722992
 31
0.0
  0
LINE
  5
3c4
100
AcDbEntity
  8
text
 62
7
100
AcDbLine
 10
34.227311
 20
80.746500
 30
0.0
 11
35.384425
 21
80.746500
 31
0.0
  0
LINE
  5
3c5
100
AcDbEntity
  8
text
 62
7
100
AcDbLine
 10
36.270602
 20
82.614816
 30
0.0
 11
36.270602
 21
80.746500
 31
0.0
  0
LINE
  5
3c6
100
AcDbEntity
  8
text
 62
7
100
AcDbLine
 10
35.649711
 20
82.614816
 30
0.0
 11
36.894314
 21
82.614816
 31
0.0
  0
LINE
  5
3c7
100
AcDbEntity
  8
text
 62
7
100
AcDbLine
 10
1.739503
 20
82.614816
 30
0.0
 11
1.028301
 21
80.746500
 31
0.0
  0
LINE
  5
3c8
100
AcDbEntity
  8
text
 62
7
100
AcDbLine
 10
1.739503
 20
82.614816
 30
0.0
 11
2.450705
 21
80.746500
 31
0.0
  0
LINE
  5
3c9
100
AcDbEntity
  8
text
 62
7
100
AcDbLine
 10
1.293591
 20
81.367391
 30
0.0
 11
2.185415
 21
81.367391
 31
0.0
  0
LINE
  5
3ca
100
AcDbEntity
  8
text
 62
7
100
AcDbLine
 10
3.249392
 20
82.614816
 30
0.0
 11
3.249392
 21
80.746500
 31
0.0
  0
LINE
  5
3cb
100
AcDbEntity
  8
text
 62
7
100
AcDbLine
 10
2.628501
 20
82.614816
 30
0.0
 11
3.873104
 21
82.614816
 31
0.0
  0
LINE
  5
3cc
100
AcDbEntity
  8
text
 62
7
100
AcDbLine
 10
4.671802
 20
82.614816
 30
0.0
 11
4.671802
 21
80.746500
 31
0.0
  0
LINE
  5
3cd
100
AcDbEntity
  8
text
 62
7
100
AcDbLine
 10
4.050911
 20
82.614816
 30
0.0
 11
5.295514
 21
82.614816
 31
0.0
  0
LINE
  5
3ce
100
AcDbEntity
  8
text
 62
7
100
AcDbLine
 10
5.738601
 20
82.614816
 30
0.0
 11
5.738601
 21
80.746500
 31
0.0
  0
LINE
  5
3cf
100
AcDbEntity
  8
text
 62
7
100
AcDbLine
 10
5.738601
 20
82.614816
 30
0.0
 11
6.895715
 21
82.614816
 31
0.0
  0
LINE
  5
3d0
100
AcDbEntity
  8
text
 62
7
100
AcDbLine
 10
5.738601
 20
81.722992
 30
0.0
 11
6.449803
 21
81.722992
 31
0.0
  0
LINE
  5
3d1
100
AcDbEntity
  8
text
 62
7
100
AcDbLine
 10
5.738601
 20
80.746500
 30
0.0
 11
6.895715
 21
80.746500
 31
0.0
  0
LINE
  5
3d2
100
AcDbEntity
  8
text
 62
7
100
AcDbLine
 10
7.426301
 20
82.614816
 30
0.0
 11
7.426301
 21
80.746500
 31
0.0
  0
LINE
  5
3d3
100
AcDbEntity
  8
text
 62
7
100
AcDbLine
 10
7.426301
 20
82.614816
 30
0.0
 11
8.673726
 21
80.746500
 31
0.0
  0
LINE
  5
3d4
100
AcDbEntity
  8
text
 62
7
100
AcDbLine
 10
8.673726
 20
82.614816
 30
0.0
 11
8.673726
 21
80.746500
 31
0.0
  0
LINE
  5
3d5
100
AcDbEntity
  8
text
 62
7
100
AcDbLine
 10
9.382101
 20
82.614816
 30
0.0
 11
9.382101
 21
81.279901
 31
0.0
  0
LINE
  5
3d6
100
AcDbEntity
  8
text
 62
7
100
AcDbLine
 10
9.382101
 20
81.279901
 30
0.0
 11
9.472412
 21
81.013201
 31
0.0
  0
LINE
  5
3d7
100
AcDbEntity
  8
text
 62
7
100
AcDbLine
 10
9.472412
 20
81.013201
 30
0.0
 11
9.650212
 21
80.835400
 31
0.0
  0
LINE
  5
3d8
100
AcDbEntity
  8
text
 62
7
100
AcDbLine
 10
9.650212
 20
80.835400
 30
0.0
 11
9.918324
 21
80.746500
 31
0.0
  0
LINE
  5
3d9
100
AcDbEntity
  8
text
 62
7
100
AcDbLine
 10
9.918324
 20
80.746500
 30
0.0
 11
10.093303
 21
80.746500
 31
0.0
  0
LINE
  5
3da
100
AcDbEntity
  8
text
 62
7
100
AcDbLine
 10
10.093303
 20
80.746500
 30
0.0
 11
10.361414
 21
80.835400
 31
0.0
  0
LINE
  5
3db
100
AcDbEntity
  8
text
 62
7
100
AcDbLine
 10
10.361414
 20
80.835400
 30
0.0
 11
10.539215
 21
81.013201
 31
0.0
  0
LINE
  5
3dc
100
AcDbEntity
  8
text
 62
7
100
AcDbLine
 10
10.539215
 20
81.013201
 30
0.0
 11
10.629526
 21
81.279901
 31
0.0
  0
LINE
  5
3dd
100
AcDbEntity
  8
text
 62
7
100
AcDbLine
 10
10.629526
 20
81.279901
 30
0.0
 11
10.629526
 21
82.614816
 31
0.0
  0
LINE
  5
3de
100
AcDbEntity
  8
text
 62
7
100
AcDbLine
 10
11.783803
 20
82.614816
 30
0.0
 11
11.072601
 21
80.746500
 31
0.0
  0
LINE
  5
3df
100
AcDbEntity
  8
text
 62
7
100
AcDbLine
 10
11.783803
 20
82.614816
 30
0.0
 11
12.495005
 21
80.746500
 31
0.0
  0
LINE
  5
3e0
100
AcDbEntity
  8
text
 62
7
100
AcDbLine
 10
11.337891
 20
81.367391
 30
0.0
 11
12.229715
 21
81.367391
 31
0.0
  0
LINE
  5
3e1
100
AcDbEntity
  8
text
 62
7
100
AcDbLine
 10
13.293692
 20
82.614816
 30
0.0
 11
13.293692
 21
80.746500
 31
0.0
  0
LINE
  5
3e2
100
AcDbEntity
  8
text
 62
7
100
AcDbLine
 10
12.672801
 20
82.614816
 30
0.0
 11
13.917404
 21
82.614816
 31
0.0
  0
LINE
  5
3e3
100
AcDbEntity
  8
text
 62
7
100
AcDbLine
 10
14.360491
 20
82.614816
 30
0.0
 11
14.360491
 21
80.746500
 31
0.0
  0
LINE
  5
3e4
100
AcDbEntity
  8
text
 62
7
100
AcDbLine
 10
14.360491
 20
82.614816
 30
0.0
 11
15.517605
 21
82.614816
 31
0.0
  0
LINE
  5
3e5
100
AcDbEntity
  8
text
 62
7
100
AcDbLine
 10
14.360491
 20
81.722992
 30
0.0
 11
15.071693
 21
81.722992
 31
0.0
  0
LINE
  5
3e6
100
AcDbEntity
  8
text
 62
7
100
AcDbLine
 10
14.360491
 20
80.746500
 30
0.0
 11
15.517605
 21
80.746500
 31
0.0
  0
LINE
  5
3e7
100
AcDbEntity
  8
text
 62
7
100
AcDbLine
 10
27.739003
 20
46.896116
 30
0.0
 11
27.561202
 21
46.805805
 31
0.0
  0
LINE
  5
3e8
100
AcDbEntity
  8
text
 62
7
100
AcDbLine
 10
27.561202
 20
46.805805
 30
0.0
 11
27.383402
 21
46.628004
 31
0.0
  0
LINE
  5
3e9
100
AcDbEntity
  8
text
 62
7
100
AcDbLine
 10
27.383402
 20
46.628004
 30
0.0
 11
27.293091
 21
46.450204
 31
0.0
  0
LINE
  5
3ea
100
AcDbEntity
  8
text
 62
7
100
AcDbLine
 10
27.293091
 20
46.450204
 30
0.0
 11
27.205601
 21
46.184914
 31
0.0
  0
LINE
  5
3eb
100
AcDbEntity
  8
text
 62
7
100
AcDbLine
 10
27.205601
 20
46.184914
 30
0.0
 11
27.205601
 21
45.739002
 31
0.0
  0
LINE
  5
3ec
100
AcDbEntity
  8
text
 62
7
100
AcDbLine
 10
27.205601
 20
45.739002
 30
0.0
 11
27.293091
 21
45.473712
 31
0.0
  0
LINE
  5
3ed
100
AcDbEntity
  8
text
 62
7
100
AcDbLine
 10
27.293091
 20
45.473712
 30
0.0
 11
27.383402
 21
45.294501
 31
0.0
  0
LINE
  5
3ee
100
AcDbEntity
  8
text
 62
7
100
AcDbLine
 10
27.383402
 20
45.294501
 30
0.0
 11
27.561202
 21
45.116700
 31
0.0
  0
LINE
  5
3ef
100
AcDbEntity
  8
text
 62
7
100
AcDbLine
 10
27.561202
 20
45.116700
 30
0.0
 11
27.739003
 21
45.027800
 31
0.0
  0
LINE
  5
3f0
100
AcDbEntity
  8
text
 62
7
100
AcDbLine
 10
27.739003
 20
45.027800
 30
0.0
 11
28.094604
 21
45.027800
 31
0.0
  0
LINE
  5
3f1
100
AcDbEntity
  8
text
 62
7
100
AcDbLine
 10
28.094604
 20
45.027800
 30
0.0
 11
28.272404
 21
45.116700
 31
0.0
  0
LINE
  5
3f2
100
AcDbEntity
  8
text
 62
7
100
AcDbLine
 10
28.272404
 20
45.116700
 30
0.0
 11
28.450205
 21
45.294501
 31
0.0
  0
LINE
  5
3f3
100
AcDbEntity
  8
text
 62
7
100
AcDbLine
 10
28.450205
 20
45.294501
 30
0.0
 11
28.540516
 21
45.473712
 31
0.0
  0
LINE
  5
3f4
100
AcDbEntity
  8
text
 62
7
100
AcDbLine
 10
28.540516
 20
45.473712
 30
0.0
 11
28.628005
 21
45.739002
 31
0.0
  0
LINE
  5
3f5
100
AcDbEntity
  8
text
 62
7
100
AcDbLine
 10
28.628005
 20
45.739002
 30
0.0
 11
28.628005
 21
46.184914
 31
0.0
  0
LINE
  5
3f6
100
AcDbEntity
  8
text
 62
7
100
AcDbLine
 10
28.628005
 20
46.184914
 30
0.0
 11
28.540516
 21
46.450204
 31
0.0
  0
LINE
  5
3f7
100
AcDbEntity
  8
text
 62
7
100
AcDbLine
 10
28.540516
 20
46.450204
 30
0.0
 11
28.450205
 21
46.628004
 31
0.0
  0
LINE
  5
3f8
100
AcDbEntity
  8
text
 62
7
100
AcDbLine
 10
28.450205
 20
46.628004
 30
0.0
 11
28.272404
 21
46.805805
 31
0.0
  0
LINE
  5
3f9
100
AcDbEntity
  8
text
 62
7
100
AcDbLine
 10
28.272404
 20
46.805805
 30
0.0
 11
28.094604
 21
46.896116
 31
0.0
  0
LINE
  5
3fa
100
AcDbEntity
  8
text
 62
7
100
AcDbLine
 10
28.094604
 20
46.896116
 30
0.0
 11
27.739003
 21
46.896116
 31
0.0
  0
LINE
  5
3fb
100
AcDbEntity
  8
text
 62
7
100
AcDbLine
 10
29.248901
 20
46.896116
 30
0.0
 11
29.248901
 21
45.027800
 31
0.0
  0
LINE
  5
3fc
100
AcDbEntity
  8
text
 62
7
100
AcDbLine
 10
29.248901
 20
46.896116
 30
0.0
 11
30.406015
 21
46.896116
 31
0.0
  0
LINE
  5
3fd
100
AcDbEntity
  8
text
 62
7
100
AcDbLine
 10
29.248901
 20
46.004292
 30
0.0
 11
29.960103
 21
46.004292
 31
0.0
  0
LINE
  5
3fe
100
AcDbEntity
  8
text
 62
7
100
AcDbLine
 10
30.849101
 20
46.896116
 30
0.0
 11
30.849101
 21
45.027800
 31
0.0
  0
LINE
  5
3ff
100
AcDbEntity
  8
text
 62
7
100
AcDbLine
 10
30.849101
 20
46.896116
 30
0.0
 11
32.006215
 21
46.896116
 31
0.0
  0
LINE
  5
400
100
AcDbEntity
  8
text
 62
7
100
AcDbLine
 10
30.849101
 20
46.004292
 30
0.0
 11
31.560303
 21
46.004292
 31
0.0
  0
LINE
  5
401
100
AcDbEntity
  8
text
 62
7
100
AcDbLine
 10
33.606415
 20
46.628004
 30
0.0
 11
33.428614
 21
46.805805
 31
0.0
  0
LINE
  5
402
100
AcDbEntity
  8
text
 62
7
100
AcDbLine
 10
33.428614
 20
46.805805
 30
0.0
 11
33.160503
 21
46.896116
 31
0.0
  0
LINE
  5
403
100
AcDbEntity
  8
text
 62
7
100
AcDbLine
 10
33.160503
 20
46.896116
 30
0.0
 11
32.804902
 21
46.896116
 31
0.0
  0
LINE
  5
404
100
AcDbEntity
  8
text
 62
7
100
AcDbLine
 10
32.804902
 20
46.896116
 30
0.0
 11
32.539612
 21
46.805805
 31
0.0
  0
LINE
  5
405
100
AcDbEntity
  8
text
 62
7
100
AcDbLine
 10
32.539612
 20
46.805805
 30
0.0
 11
32.361811
 21
46.628004
 31
0.0
  0
LINE
  5
406
100
AcDbEntity
  8
text
 62
7
100
AcDbLine
 10
32.361811
 20
46.628004
 30
0.0
 11
32.361811
 21
46.450204
 31
0.0
  0
LINE
  5
407
100
AcDbEntity
  8
text
 62
7
100
AcDbLine
 10
32.361811
 20
46.450204
 30
0.0
 11
32.449301
 21
46.272403
 31
0.0
  0
LINE
  5
408
100
AcDbEntity
  8
text
 62
7
100
AcDbLine
 10
32.449301
 20
46.272403
 30
0.0
 11
32.539612
 21
46.184914
 31
0.0
  0
LINE
  5
409
100
AcDbEntity
  8
text
 62
7
100
AcDbLine
 10
32.539612
 20
46.184914
 30
0.0
 11
32.717412
 21
46.094603
 31
0.0
  0
LINE
  5
40a
100
AcDbEntity
  8
text
 62
7
100
AcDbLine
 10
32.717412
 20
46.094603
 30
0.0
 11
33.250814
 21
45.916802
 31
0.0
  0
LINE
  5
40b
100
AcDbEntity
  8
text
 62
7
100
AcDbLine
 10
33.250814
 20
45.916802
 30
0.0
 11
33.428614
 21
45.829313
 31
0.0
  0
LINE
  5
40c
100
AcDbEntity
  8
text
 62
7
100
AcDbLine
 10
33.428614
 20
45.829313
 30
0.0
 11
33.516104
 21
45.739002
 31
0.0
  0
LINE
  5
40d
100
AcDbEntity
  8
text
 62
7
100
AcDbLine
 10
33.516104
 20
45.739002
 30
0.0
 11
33.606415
 21
45.561201
 31
0.0
  0
LINE
  5
40e
100
AcDbEntity
  8
text
 62
7
100
AcDbLine
 10
33.606415
 20
45.561201
 30
0.0
 11
33.606415
 21
45.294501
 31
0.0
  0
LINE
  5
40f
100
AcDbEntity
  8
text
 62
7
100
AcDbLine
 10
33.606415
 20
45.294501
 30
0.0
 11
33.428614
 21
45.116700
 31
0.0
  0
LINE
  5
410
100
AcDbEntity
  8
text
 62
7
100
AcDbLine
 10
33.428614
 20
45.116700
 30
0.0
 11
33.160503
 21
45.027800
 31
0.0
  0
LINE
  5
411
100
AcDbEntity
  8
text
 62
7
100
AcDbLine
 10
33.160503
 20
45.027800
 30
0.0
 11
32.804902
 21
45.027800
 31
0.0
  0
LINE
  5
412
100
AcDbEntity
  8
text
 62
7
100
AcDbLine
 10
32.804902
 20
45.027800
 30
0.0
 11
32.539612
 21
45.116700
 31
0.0
  0
LINE
  5
413
100
AcDbEntity
  8
text
 62
7
100
AcDbLine
 10
32.539612
 20
45.116700
 30
0.0
 11
32.361811
 21
45.294501
 31
0.0
  0
LINE
  5
414
100
AcDbEntity
  8
text
 62
7
100
AcDbLine
 10
34.227311
 20
46.896116
 30
0.0
 11
34.227311
 21
45.027800
 31
0.0
  0
LINE
  5
415
100
AcDbEntity
  8
text
 62
7
100
AcDbLine
 10
34.227311
 20
46.896116
 30
0.0
 11
35.384425
 21
46.896116
 31
0.0
  0
LINE
  5
416
100
AcDbEntity
  8
text
 62
7
100
AcDbLine
 10
34.227311
 20
46.004292
 30
0.0
 11
34.938513
 21
46.004292
 31
0.0
  0
LINE
  5
417
100
AcDbEntity
  8
text
 62
7
100
AcDbLine
 10
34.227311
 20
45.027800
 30
0.0
 11
35.384425
 21
45.027800
 31
0.0
  0
LINE
  5
418
100
AcDbEntity
  8
text
 62
7
100
AcDbLine
 10
36.270602
 20
46.896116
 30
0.0
 11
36.270602
 21
45.027800
 31
0.0
  0
LINE
  5
419
100
AcDbEntity
  8
text
 62
7
100
AcDbLine
 10
35.649711
 20
46.896116
 30
0.0
 11
36.894314
 21
46.896116
 31
0.0
  0
LINE
  5
41a
100
AcDbEntity
  8
text
 62
7
100
AcDbLine
 10
1.739503
 20
46.896116
 30
0.0
 11
1.028301
 21
45.027800
 31
0.0
  0
LINE
  5
41b
100
AcDbEntity
  8
text
 62
7
100
AcDbLine
 10
1.739503
 20
46.896116
 30
0.0
 11
2.450705
 21
45.027800
 31
0.0
  0
LINE
  5
41c
100
AcDbEntity
  8
text
 62
7
100
AcDbLine
 10
1.293591
 20
45.648691
 30
0.0
 11
2.185415
 21
45.648691
 31
0.0
  0
LINE
  5
41d
100
AcDbEntity
  8
text
 62
7
100
AcDbLine
 10
3.249392
 20
46.896116
 30
0.0
 11
3.249392
 21
45.027800
 31
0.0
  0
LINE
  5
41e
100
AcDbEntity
  8
text
 62
7
100
AcDbLine
 10
2.628501
 20
46.896116
 30
0.0
 11
3.873104
 21
46.896116
 31
0.0
  0
LINE
  5
41f
100
AcDbEntity
  8
text
 62
7
100
AcDbLine
 10
4.671802
 20
46.896116
 30
0.0
 11
4.671802
 21
45.027800
 31
0.0
  0
LINE
  5
420
100
AcDbEntity
  8
text
 62
7
100
AcDbLine
 10
4.050911
 20
46.896116
 30
0.0
 11
5.295514
 21
46.896116
 31
0.0
  0
LINE
  5
421
100
AcDbEntity
  8
text
 62
7
100
AcDbLine
 10
5.738601
 20
46.896116
 30
0.0
 11
5.738601
 21
45.027800
 31
0.0
  0
LINE
  5
422
100
AcDbEntity
  8
text
 62
7
100
AcDbLine
 10
5.738601
 20
46.896116
 30
0.0
 11
6.895715
 21
46.896116
 31
0.0
  0
LINE
  5
423
100
AcDbEntity
  8
text
 62
7
100
AcDbLine
 10
5.738601
 20
46.004292
 30
0.0
 11
6.449803
 21
46.004292
 31
0.0
  0
LINE
  5
424
100
AcDbEntity
  8
text
 62
7
100
AcDbLine
 10
5.738601
 20
45.027800
 30
0.0
 11
6.895715
 21
45.027800
 31
0.0
  0
LINE
  5
425
100
AcDbEntity
  8
text
 62
7
100
AcDbLine
 10
7.426301
 20
46.896116
 30
0.0
 11
7.426301
 21
45.027800
 31
0.0
  0
LINE
  5
426
100
AcDbEntity
  8
text
 62
7
100
AcDbLine
 10
7.426301
 20
46.896116
 30
0.0
 11
8.673726
 21
45.027800
 31
0.0
  0
LINE
  5
427
100
AcDbEntity
  8
text
 62
7
100
AcDbLine
 10
8.673726
 20
46.896116
 30
0.0
 11
8.673726
 21
45.027800
 31
0.0
  0
LINE
  5
428
100
AcDbEntity
  8
text
 62
7
100
AcDbLine
 10
9.382101
 20
46.896116
 30
0.0
 11
9.382101
 21
45.561201
 31
0.0
  0
LINE
  5
429
100
AcDbEntity
  8
text
 62
7
100
AcDbLine
 10
9.382101
 20
45.561201
 30
0.0
 11
9.472412
 21
45.294501
 31
0.0
  0
LINE
  5
42a
100
AcDbEntity
  8
text
 62
7
100
AcDbLine
 10
9.472412
 20
45.294501
 30
0.0
 11
9.650212
 21
45.116700
 31
0.0
  0
LINE
  5
42b
100
AcDbEntity
  8
text
 62
7
100
AcDbLine
 10
9.650212
 20
45.116700
 30
0.0
 11
9.918324
 21
45.027800
 31
0.0
  0
LINE
  5
42c
100
AcDbEntity
  8
text
 62
7
100
AcDbLine
 10
9.918324
 20
45.027800
 30
0.0
 11
10.093303
 21
45.027800
 31
0.0
  0
LINE
  5
42d
100
AcDbEntity
  8
text
 62
7
100
AcDbLine
 10
10.093303
 20
45.027800
 30
0.0
 11
10.361414
 21
45.116700
 31
0.0
  0
LINE
  5
42e
100
AcDbEntity
  8
text
 62
7
100
AcDbLine
 10
10.361414
 20
45.116700
 30
0.0
 11
10.539215
 21
45.294501
 31
0.0
  0
LINE
  5
42f
100
AcDbEntity
  8
text
 62
7
100
AcDbLine
 10
10.539215
 20
45.294501
 30
0.0
 11
10.629526
 21
45.561201
 31
0.0
  0
LINE
  5
430
100
AcDbEntity
  8
text
 62
7
100
AcDbLine
 10
10.629526
 20
45.561201
 30
0.0
 11
10.629526
 21
46.896116
 31
0.0
  0
LINE
  5
431
100
AcDbEntity
  8
text
 62
7
100
AcDbLine
 10
11.783803
 20
46.896116
 30
0.0
 11
11.072601
 21
45.027800
 31
0.0
  0
LINE
  5
432
100
AcDbEntity
  8
text
 62
7
100
AcDbLine
 10
11.783803
 20
46.896116
 30
0.0
 11
12.495005
 21
45.027800
 31
0.0
  0
LINE
  5
433
100
AcDbEntity
  8
text
 62
7
100
AcDbLine
 10
11.337891
 20
45.648691
 30
0.0
 11
12.229715
 21
45.648691
 31
0.0
  0
LINE
  5
434
100
AcDbEntity
  8
text
 62
7
100
AcDbLine
 10
13.293692
 20
46.896116
 30
0.0
 11
13.293692
 21
45.027800
 31
0.0
  0
LINE
  5
435
100
AcDbEntity
  8
text
 62
7
100
AcDbLine
 10
12.672801
 20
46.896116
 30
0.0
 11
13.917404
 21
46.896116
 31
0.0
  0
LINE
  5
436
100
AcDbEntity
  8
text
 62
7
100
AcDbLine
 10
14.360491
 20
46.896116
 30
0.0
 11
14.360491
 21
45.027800
 31
0.0
  0
LINE
  5
437
100
AcDbEntity
  8
text
 62
7
100
AcDbLine
 10
14.360491
 20
46.896116
 30
0.0
 11
15.517605
 21
46.896116
 31
0.0
  0
LINE
  5
438
100
AcDbEntity
  8
text
 62
7
100
AcDbLine
 10
14.360491
 20
46.004292
 30
0.0
 11
15.071693
 21
46.004292
 31
0.0
  0
LINE
  5
439
100
AcDbEntity
  8
text
 62
7
100
AcDbLine
 10
14.360491
 20
45.027800
 30
0.0
 11
15.517605
 21
45.027800
 31
0.0
  0
LINE
  5
43a
100
AcDbEntity
  8
text
 62
7
100
AcDbLine
 10
7.070691
 20
62.652916
 30
0.0
 11
7.070691
 21
60.784600
 31
0.0
  0
LINE
  5
43b
100
AcDbEntity
  8
text
 62
7
100
AcDbLine
 10
7.781893
 20
62.652916
 30
0.0
 11
7.781893
 21
60.784600
 31
0.0
  0
LINE
  5
43c
100
AcDbEntity
  8
text
 62
7
100
AcDbLine
 10
7.781893
 20
62.652916
 30
0.0
 11
9.029318
 21
60.784600
 31
0.0
  0
LINE
  5
43d
100
AcDbEntity
  8
text
 62
7
100
AcDbLine
 10
9.029318
 20
62.652916
 30
0.0
 11
9.029318
 21
60.784600
 31
0.0
  0
LINE
  5
43e
100
AcDbEntity
  8
text
 62
7
100
AcDbLine
 10
29.916403
 20
62.652916
 30
0.0
 11
29.738602
 21
62.562605
 31
0.0
  0
LINE
  5
43f
100
AcDbEntity
  8
text
 62
7
100
AcDbLine
 10
29.738602
 20
62.562605
 30
0.0
 11
29.560802
 21
62.384804
 31
0.0
  0
LINE
  5
440
100
AcDbEntity
  8
text
 62
7
100
AcDbLine
 10
29.560802
 20
62.384804
 30
0.0
 11
29.470491
 21
62.207004
 31
0.0
  0
LINE
  5
441
100
AcDbEntity
  8
text
 62
7
100
AcDbLine
 10
29.470491
 20
62.207004
 30
0.0
 11
29.383001
 21
61.941714
 31
0.0
  0
LINE
  5
442
100
AcDbEntity
  8
text
 62
7
100
AcDbLine
 10
29.383001
 20
61.941714
 30
0.0
 11
29.383001
 21
61.495802
 31
0.0
  0
LINE
  5
443
100
AcDbEntity
  8
text
 62
7
100
AcDbLine
 10
29.383001
 20
61.495802
 30
0.0
 11
29.470491
 21
61.230512
 31
0.0
  0
LINE
  5
444
100
AcDbEntity
  8
text
 62
7
100
AcDbLine
 10
29.470491
 20
61.230512
 30
0.0
 11
29.560802
 21
61.051301
 31
0.0
  0
LINE
  5
445
100
AcDbEntity
  8
text
 62
7
100
AcDbLine
 10
29.560802
 20
61.051301
 30
0.0
 11
29.738602
 21
60.873500
 31
0.0
  0
LINE
  5
446
100
AcDbEntity
  8
text
 62
7
100
AcDbLine
 10
29.738602
 20
60.873500
 30
0.0
 11
29.916403
 21
60.784600
 31
0.0
  0
LINE
  5
447
100
AcDbEntity
  8
text
 62
7
100
AcDbLine
 10
29.916403
 20
60.784600
 30
0.0
 11
30.272004
 21
60.784600
 31
0.0
  0
LINE
  5
448
100
AcDbEntity
  8
text
 62
7
100
AcDbLine
 10
30.272004
 20
60.784600
 30
0.0
 11
30.449804
 21
60.873500
 31
0.0
  0
LINE
  5
449
100
AcDbEntity
  8
text
 62
7
100
AcDbLine
 10
30.449804
 20
60.873500
 30
0.0
 11
30.627605
 21
61.051301
 31
0.0
  0
LINE
  5
44a
100
AcDbEntity
  8
text
 62
7
100
AcDbLine
 10
30.627605
 20
61.051301
 30
0.0
 11
30.717916
 21
61.230512
 31
0.0
  0
LINE
  5
44b
100
AcDbEntity
  8
text
 62
7
100
AcDbLine
 10
30.717916
 20
61.230512
 30
0.0
 11
30.805405
 21
61.495802
 31
0.0
  0
LINE
  5
44c
100
AcDbEntity
  8
text
 62
7
100
AcDbLine
 10
30.805405
 20
61.495802
 30
0.0
 11
30.805405
 21
61.941714
 31
0.0
  0
LINE
  5
44d
100
AcDbEntity
  8
text
 62
7
100
AcDbLine
 10
30.805405
 20
61.941714
 30
0.0
 11
30.717916
 21
62.207004
 31
0.0
  0
LINE
  5
44e
100
AcDbEntity
  8
text
 62
7
100
AcDbLine
 10
30.717916
 20
62.207004
 30
0.0
 11
30.627605
 21
62.384804
 31
0.0
  0
LINE
  5
44f
100
AcDbEntity
  8
text
 62
7
100
AcDbLine
 10
30.627605
 20
62.384804
 30
0.0
 11
30.449804
 21
62.562605
 31
0.0
  0
LINE
  5
450
100
AcDbEntity
  8
text
 62
7
100
AcDbLine
 10
30.449804
 20
62.562605
 30
0.0
 11
30.272004
 21
62.652916
 31
0.0
  0
LINE
  5
451
100
AcDbEntity
  8
text
 62
7
100
AcDbLine
 10
30.272004
 20
62.652916
 30
0.0
 11
29.916403
 21
62.652916
 31
0.0
  0
LINE
  5
452
100
AcDbEntity
  8
text
 62
7
100
AcDbLine
 10
31.426301
 20
62.652916
 30
0.0
 11
31.426301
 21
61.318001
 31
0.0
  0
LINE
  5
453
100
AcDbEntity
  8
text
 62
7
100
AcDbLine
 10
31.426301
 20
61.318001
 30
0.0
 11
31.516612
 21
61.051301
 31
0.0
  0
LINE
  5
454
100
AcDbEntity
  8
text
 62
7
100
AcDbLine
 10
31.516612
 20
61.051301
 30
0.0
 11
31.694412
 21
60.873500
 31
0.0
  0
LINE
  5
455
100
AcDbEntity
  8
text
 62
7
100
AcDbLine
 10
31.694412
 20
60.873500
 30
0.0
 11
31.962524
 21
60.784600
 31
0.0
  0
LINE
  5
456
100
AcDbEntity
  8
text
 62
7
100
AcDbLine
 10
31.962524
 20
60.784600
 30
0.0
 11
32.137503
 21
60.784600
 31
0.0
  0
LINE
  5
457
100
AcDbEntity
  8
text
 62
7
100
AcDbLine
 10
32.137503
 20
60.784600
 30
0.0
 11
32.405614
 21
60.873500
 31
0.0
  0
LINE
  5
458
100
AcDbEntity
  8
text
 62
7
100
AcDbLine
 10
32.405614
 20
60.873500
 30
0.0
 11
32.583415
 21
61.051301
 31
0.0
  0
LINE
  5
459
100
AcDbEntity
  8
text
 62
7
100
AcDbLine
 10
32.583415
 20
61.051301
 30
0.0
 11
32.673726
 21
61.318001
 31
0.0
  0
LINE
  5
45a
100
AcDbEntity
  8
text
 62
7
100
AcDbLine
 10
32.673726
 20
61.318001
 30
0.0
 11
32.673726
 21
62.652916
 31
0.0
  0
LINE
  5
45b
100
AcDbEntity
  8
text
 62
7
100
AcDbLine
 10
33.737702
 20
62.652916
 30
0.0
 11
33.737702
 21
60.784600
 31
0.0
  0
LINE
  5
45c
100
AcDbEntity
  8
text
 62
7
100
AcDbLine
 10
33.116811
 20
62.652916
 30
0.0
 11
34.361414
 21
62.652916
 31
0.0
  0
LINE
  5
45d
100
AcDbEntity
  8
text
 62
7
100
AcDbLine
 10
7.070691
 20
26.863316
 30
0.0
 11
7.070691
 21
24.995000
 31
0.0
  0
LINE
  5
45e
100
AcDbEntity
  8
text
 62
7
100
AcDbLine
 10
7.781893
 20
26.863316
 30
0.0
 11
7.781893
 21
24.995000
 31
0.0
  0
LINE
  5
45f
100
AcDbEntity
  8
text
 62
7
100
AcDbLine
 10
7.781893
 20
26.863316
 30
0.0
 11
9.029318
 21
24.995000
 31
0.0
  0
LINE
  5
460
100
AcDbEntity
  8
text
 62
7
100
AcDbLine
 10
9.029318
 20
26.863316
 30
0.0
 11
9.029318
 21
24.995000
 31
0.0
  0
LINE
  5
461
100
AcDbEntity
  8
text
 62
7
100
AcDbLine
 10
29.916403
 20
26.863316
 30
0.0
 11
29.738602
 21
26.773005
 31
0.0
  0
LINE
  5
462
100
AcDbEntity
  8
text
 62
7
100
AcDbLine
 10
29.738602
 20
26.773005
 30
0.0
 11
29.560802
 21
26.595204
 31
0.0
  0
LINE
  5
463
100
AcDbEntity
  8
text
 62
7
100
AcDbLine
 10
29.560802
 20
26.595204
 30
0.0
 11
29.470491
 21
26.417404
 31
0.0
  0
LINE
  5
464
100
AcDbEntity
  8
text
 62
7
100
AcDbLine
 10
29.470491
 20
26.417404
 30
0.0
 11
29.383001
 21
26.152114
 31
0.0
  0
LINE
  5
465
100
AcDbEntity
  8
text
 62
7
100
AcDbLine
 10
29.383001
 20
26.152114
 30
0.0
 11
29.383001
 21
25.706202
 31
0.0
  0
LINE
  5
466
100
AcDbEntity
  8
text
 62
7
100
AcDbLine
 10
29.383001
 20
25.706202
 30
0.0
 11
29.470491
 21
25.440912
 31
0.0
  0
LINE
  5
467
100
AcDbEntity
  8
text
 62
7
100
AcDbLine
 10
29.470491
 20
25.440912
 30
0.0
 11
29.560802
 21
25.261701
 31
0.0
  0
LINE
  5
468
100
AcDbEntity
  8
text
 62
7
100
AcDbLine
 10
29.560802
 20
25.261701
 30
0.0
 11
29.738602
 21
25.083900
 31
0.0
  0
LINE
  5
469
100
AcDbEntity
  8
text
 62
7
100
AcDbLine
 10
29.738602
 20
25.083900
 30
0.0
 11
29.916403
 21
24.995000
 31
0.0
  0
LINE
  5
46a
100
AcDbEntity
  8
text
 62
7
100
AcDbLine
 10
29.916403
 20
24.995000
 30
0.0
 11
30.272004
 21
24.995000
 31
0.0
  0
LINE
  5
46b
100
AcDbEntity
  8
text
 62
7
100
AcDbLine
 10
30.272004
 20
24.995000
 30
0.0
 11
30.449804
 21
25.083900
 31
0.0
  0
LINE
  5
46c
100
AcDbEntity
  8
text
 62
7
100
AcDbLine
 10
30.449804
 20
25.083900
 30
0.0
 11
30.627605
 21
25.261701
 31
0.0
  0
LINE
  5
46d
100
AcDbEntity
  8
text
 62
7
100
AcDbLine
 10
30.627605
 20
25.261701
 30
0.0
 11
30.717916
 21
25.440912
 31
0.0
  0
LINE
  5
46e
100
AcDbEntity
  8
text
 62
7
100
AcDbLine
 10
30.717916
 20
25.440912
 30
0.0
 11
30.805405
 21
25.706202
 31
0.0
  0
LINE
  5
46f
100
AcDbEntity
  8
text
 62
7
100
AcDbLine
 10
30.805405
 20
25.706202
 30
0.0
 11
30.805405
 21
26.152114
 31
0.0
  0
LINE
  5
470
100
AcDbEntity
  8
text
 62
7
100
AcDbLine
 10
30.805405
 20
26.152114
 30
0.0
 11
30.717916
 21
26.417404
 31
0.0
  0
LINE
  5
471
100
AcDbEntity
  8
text
 62
7
100
AcDbLine
 10
30.717916
 20
26.417404
 30
0.0
 11
30.627605
 21
26.595204
 31
0.0
  0
LINE
  5
472
100
AcDbEntity
  8
text
 62
7
100
AcDbLine
 10
30.627605
 20
26.595204
 30
0.0
 11
30.449804
 21
26.773005
 31
0.0
  0
LINE
  5
473
100
AcDbEntity
  8
text
 62
7
100
AcDbLine
 10
30.449804
 20
26.773005
 30
0.0
 11
30.272004
 21
26.863316
 31
0.0
  0
LINE
  5
474
100
AcDbEntity
  8
text
 62
7
100
AcDbLine
 10
30.272004
 20
26.863316
 30
0.0
 11
29.916403
 21
26.863316
 31
0.0
  0
LINE
  5
475
100
AcDbEntity
  8
text
 62
7
100
AcDbLine
 10
31.426301
 20
26.863316
 30
0.0
 11
31.426301
 21
25.528401
 31
0.0
  0
LINE
  5
476
100
AcDbEntity
  8
text
 62
7
100
AcDbLine
 10
31.426301
 20
25.528401
 30
0.0
 11
31.516612
 21
25.261701
 31
0.0
  0
LINE
  5
477
100
AcDbEntity
  8
text
 62
7
100
AcDbLine
 10
31.516612
 20
25.261701
 30
0.0
 11
31.694412
 21
25.083900
 31
0.0
  0
LINE
  5
478
100
AcDbEntity
  8
text
 62
7
100
AcDbLine
 10
31.694412
 20
25.083900
 30
0.0
 11
31.962524
 21
24.995000
 31
0.0
  0
LINE
  5
479
100
AcDbEntity
  8
text
 62
7
100
AcDbLine
 10
31.962524
 20
24.995000
 30
0.0
 11
32.137503
 21
24.995000
 31
0.0
  0
LINE
  5
47a
100
AcDbEntity
  8
text
 62
7
100
AcDbLine
 10
32.137503
 20
24.995000
 30
0.0
 11
32.405614
 21
25.083900
 31
0.0
  0
LINE
  5
47b
100
AcDbEntity
  8
text
 62
7
100
AcDbLine
 10
32.405614
 20
25.083900
 30
0.0
 11
32.583415
 21
25.261701
 31
0.0
  0
LINE
  5
47c
100
AcDbEntity
  8
text
 62
7
100
AcDbLine
 10
32.583415
 20
25.261701
 30
0.0
 11
32.673726
 21
25.528401
 31
0.0
  0
LINE
  5
47d
100
AcDbEntity
  8
text
 62
7
100
AcDbLine
 10
32.673726
 20
25.528401
 30
0.0
 11
32.673726
 21
26.863316
 31
0.0
  0
LINE
  5
47e
100
AcDbEntity
  8
text
 62
7
100
AcDbLine
 10
33.737702
 20
26.863316
 30
0.0
 11
33.737702
 21
24.995000
 31
0.0
  0
LINE
  5
47f
100
AcDbEntity
  8
text
 62
7
100
AcDbLine
 10
33.116811
 20
26.863316
 30
0.0
 11
34.361414
 21
26.863316
 31
0.0
  0
ENDSEC
  0
SECTION
  2
OBJECTS
  0
DICTIONARY
  5
C
330
0
100
AcDbDictionary
  3
ACAD_GROUP
350
D
  3
ACAD_MLINESTYLE
350
17
  0
DICTIONARY
  5
D
330
C
100
AcDbDictionary
  0
DICTIONARY
  5
1A
330
C
100
AcDbDictionary
  0
DICTIONARY
  5
17
330
C
100
AcDbDictionary
  3
STANDARD
350
18
  0
DICTIONARY
  5
19
330
C
100
AcDbDictionary
  0
ENDSEC
  0
EOF
